<?xml version="1.0" encoding="UTF-8"?>
<svg version="1.1" xmlns="http://www.w3.org/2000/svg" width="1200" height="1200">
<path d="M0 0 C0.96367996 -0.00807175 1.92735992 -0.01614349 2.92024231 -0.02445984 C4.96007521 -0.03824868 6.99993068 -0.04899392 9.03979492 -0.05688477 C11.08641525 -0.06831121 13.13300805 -0.08861134 15.17944336 -0.1184082 C63.57229162 -0.82100532 106.67064818 19.89200373 141.14453125 53.11328125 C146.95223297 59.07306681 152.02455049 65.54932115 156.95703125 72.23828125 C157.37984375 72.80611328 157.80265625 73.37394531 158.23828125 73.95898438 C177.45736255 100.11495283 188.92307512 133.78104969 189.95703125 166.23828125 C189.99699219 167.35460937 190.03695312 168.4709375 190.078125 169.62109375 C190.36263099 185.38607279 188.14403512 200.83442921 184.95703125 216.23828125 C185.53098633 216.16971924 186.10494141 216.10115723 186.69628906 216.03051758 C224.12274224 211.88809306 262.32655642 219.24306824 292.328125 243.02734375 C296.64616555 246.65886077 300.85651037 250.36226554 304.95703125 254.23828125 C305.76785156 254.98464844 306.57867188 255.73101563 307.4140625 256.5 C331.12489402 279.09063475 345.22631258 311.94891841 346.18359375 344.53515625 C346.89615605 384.39606191 334.41456032 418.56598945 306.81469727 447.71508789 C286.80787906 468.2687745 261.52826401 479.73922309 233.95703125 486.23828125 C233.07917969 486.44710938 232.20132813 486.6559375 231.296875 486.87109375 C228.38621245 487.32785882 225.58913782 487.33313956 222.64453125 487.30078125 C221.57589844 487.29175781 220.50726562 487.28273438 219.40625 487.2734375 C218.19388672 487.25603516 218.19388672 487.25603516 216.95703125 487.23828125 C216.95703125 487.89828125 216.95703125 488.55828125 216.95703125 489.23828125 C50.96703125 489.23828125 -115.02296875 489.23828125 -286.04296875 489.23828125 C-286.04296875 488.57828125 -286.04296875 487.91828125 -286.04296875 487.23828125 C-286.66558594 487.29628906 -287.28820312 487.35429688 -287.9296875 487.4140625 C-319.42087581 488.95128927 -350.55396141 470.45343187 -373.48046875 450.67578125 C-378.55103466 445.96193857 -382.83565402 440.72308972 -387.04296875 435.23828125 C-387.71070313 434.38621094 -388.3784375 433.53414062 -389.06640625 432.65625 C-410.4416949 404.47973314 -419.72403698 368.75182364 -415.16357422 333.65551758 C-409.65847964 297.44490733 -390.76332294 264.3774987 -361.29296875 242.39453125 C-345.02808072 230.64766767 -321.7055711 217.23828125 -301.04296875 217.23828125 C-301.35234375 216.22765625 -301.66171875 215.21703125 -301.98046875 214.17578125 C-308.28292382 193.58776134 -303.04555239 170.38352177 -293.26171875 151.8671875 C-279.84159526 128.95947672 -258.98442912 112.30293958 -233.39355469 104.84033203 C-204.85325317 97.53036282 -179.39602016 102.92836568 -154.04296875 117.23828125 C-153.8720874 116.62082031 -153.70120605 116.00335938 -153.52514648 115.3671875 C-142.03905315 75.32015164 -109.8879753 41.86499568 -74.43847656 21.56103516 C-51.65718399 8.98163818 -26.21547699 0.21343203 0 0 Z " fill="#FFFFFF" transform="translate(656.04296875,355.76171875)"/>
</svg>
