<svg width="1440" height="1024" viewBox="0 0 1440 1024" fill="none" xmlns="http://www.w3.org/2000/svg">
<g clip-path="url(#clip0_1_2)">
<rect width="1440" height="1024" fill="#21292E"/>
<path d="M84.888 99.052C104.999 99.052 111.306 90.722 111.306 77.394C111.306 64.066 104.999 55.617 84.888 55.617C64.658 55.617 58.47 64.066 58.47 77.394C58.47 90.722 64.658 99.052 84.888 99.052ZM46.57 77.394C46.57 59.663 57.637 44.193 84.888 44.193C95.836 44.193 104.166 46.692 110.235 50.857V50.738H132.488V43.955H144.388V111.428H132.488V78.941H123.206C122.492 95.958 111.068 110.476 84.888 110.476C57.756 110.476 46.57 95.125 46.57 77.394ZM119.874 62.043C120.707 63.828 121.421 65.732 121.897 67.636H132.488V62.043H119.874ZM243.766 98.219C243.766 96.434 239.363 94.411 209.256 94.411C179.149 94.411 174.627 96.434 174.627 98.219C174.627 99.885 179.149 101.908 209.256 101.908C239.363 101.908 243.766 99.885 243.766 98.219ZM158.681 69.064C158.681 62.162 166.654 57.878 191.525 57.878C216.039 57.878 223.893 62.162 223.893 69.064C223.893 76.085 216.039 80.369 191.525 80.369C166.654 80.369 158.681 76.085 158.681 69.064ZM160.228 55.855V45.74H185.456V42.765H197.237V45.74H222.465V55.855H160.228ZM162.727 98.219C162.727 88.461 173.199 82.987 209.256 82.987C225.559 82.987 236.626 84.177 243.766 86.319V62.043H239.363V79.774H227.463V43.955H239.363V50.738H243.766V43.955H255.666V98.219C255.666 107.858 245.313 113.332 209.256 113.332C173.199 113.332 162.727 107.858 162.727 98.219ZM170.581 69.064C170.581 69.897 172.247 70.611 191.525 70.611C210.565 70.611 211.993 69.897 211.993 69.064C211.993 68.35 210.565 67.636 191.525 67.636C172.247 67.636 170.581 68.35 170.581 69.064ZM342.247 101.908C372.83 101.908 377.352 99.885 377.352 98.219C377.352 96.434 372.83 94.411 342.247 94.411C311.664 94.411 307.023 96.434 307.023 98.219C307.023 99.885 311.664 101.908 342.247 101.908ZM292.505 71.206C310.355 67.398 319.637 63.352 323.564 60.377V55.974H294.528V45.264H364.262V50.738H377.352V43.955H389.252V98.219C389.252 107.858 378.78 113.332 342.247 113.332C305.595 113.332 295.123 107.739 295.123 98.219C295.123 88.461 305.714 82.987 342.247 82.987C358.788 82.987 370.093 84.058 377.352 86.319V62.043H359.859V55.974H335.345V59.901C339.629 62.4 349.03 65.97 366.404 69.659L364.024 80.369C346.65 76.68 335.702 72.753 329.752 69.421C323.802 73.705 312.735 78.227 294.885 81.916L292.505 71.206ZM486.361 111.428V110.238H403.537V71.682H460.538V56.688H404.846V45.264H472.438V83.106H415.437V98.814H486.361V43.955H498.261V111.428H486.361ZM511.115 111.428V88.342H523.015V100.004H603.816V111.428H511.115ZM508.973 84.177V59.187H571.805V56.331H509.925V45.264H583.705V70.254H520.873V73.11H585.49V84.177H508.973ZM589.417 94.292V43.955H601.317V46.335H613.812V57.64H601.317V94.292H589.417Z" fill="white"/>
<path d="M610 52L1257 57" stroke="white" stroke-width="11.3"/>
<circle cx="1306.15" cy="57.15" r="6.15" fill="white"/>
<circle cx="1346.15" cy="57.15" r="6.15" fill="white"/>
<circle cx="1385.15" cy="57.15" r="6.15" fill="white"/>
<circle cx="720" cy="551" r="275" fill="#D9D9D9"/>
</g>
<defs>
<clipPath id="clip0_1_2">
<rect width="1440" height="1024" fill="white"/>
</clipPath>
</defs>
</svg>
