<svg width="602" height="46" viewBox="0 0 602 46" fill="none" xmlns="http://www.w3.org/2000/svg">
<path d="M52.972 43.8519V0.759941H60.572V43.8519H52.972ZM-1.46031e-05 8.89194V1.59594H47.196V43.0919H39.596V8.89194H-1.46031e-05ZM91.4333 18.8479C104.657 18.8479 107.849 16.5679 107.849 13.2999C107.849 10.1839 104.657 7.82794 91.4333 7.82794C78.1333 7.82794 75.0173 10.1839 75.0173 13.2999C75.0173 16.5679 78.1333 18.8479 91.4333 18.8479ZM67.4173 13.2999C67.4173 5.92794 74.9413 0.531939 91.4333 0.531939C100.705 0.531939 107.165 2.27994 111.041 5.09194H121.605V0.759941H129.205V43.8519H121.605V36.0239H70.8373V28.7279H121.605V12.3119H115.373C115.449 12.6159 115.449 12.9959 115.449 13.2999C115.449 20.8239 107.849 26.1439 91.4333 26.1439C74.9413 26.1439 67.4173 20.8239 67.4173 13.2999ZM217.238 31.5399V43.8519H209.638V38.8359H156.59V31.5399H217.238ZM155.83 29.7919V22.7999H183.038V17.4039H190.638V22.7999H217.846V29.7919H155.83ZM156.742 14.3639C172.17 12.0839 179.922 8.35994 182.886 5.31994L182.962 -5.84126e-05H190.562V5.01594C193.754 7.52394 201.582 10.6399 216.63 12.8439L215.566 19.8359C200.822 17.6319 191.702 14.3639 186.99 11.1719C182.202 15.1239 173.006 19.1519 157.806 21.3559L156.742 14.3639ZM242.962 42.3319V35.0359H304.978V42.3319H242.962ZM244.482 8.89194V1.59594H302.774V31.3879H295.174V8.89194H244.482ZM353.807 35.9479C366.651 35.9479 370.679 30.6279 370.679 22.1159C370.679 13.6039 366.651 8.20794 353.807 8.20794C340.887 8.20794 336.935 13.6039 336.935 22.1159C336.935 30.6279 340.887 35.9479 353.807 35.9479ZM329.335 22.1159C329.335 10.7919 336.403 0.911939 353.807 0.911939C360.799 0.911939 366.119 2.50794 369.995 5.16794V5.09194H384.207V0.759941H391.807V43.8519H384.207V23.1039H378.279C377.823 33.9719 370.527 43.2439 353.807 43.2439C336.479 43.2439 329.335 33.4399 329.335 22.1159ZM376.151 12.3119C376.683 13.4519 377.139 14.6679 377.443 15.8839H384.207V12.3119H376.151ZM455.276 35.4159C455.276 34.2759 452.464 32.9839 433.236 32.9839C414.008 32.9839 411.12 34.2759 411.12 35.4159C411.12 36.4799 414.008 37.7719 433.236 37.7719C452.464 37.7719 455.276 36.4799 455.276 35.4159ZM400.936 16.7959C400.936 12.3879 406.028 9.65194 421.912 9.65194C437.568 9.65194 442.584 12.3879 442.584 16.7959C442.584 21.2799 437.568 24.0159 421.912 24.0159C406.028 24.0159 400.936 21.2799 400.936 16.7959ZM401.924 8.35994V1.89994H418.036V-5.84126e-05H425.56V1.89994H441.672V8.35994H401.924ZM403.52 35.4159C403.52 29.1839 410.208 25.6879 433.236 25.6879C443.648 25.6879 450.716 26.4479 455.276 27.8159V12.3119H452.464V23.6359H444.864V0.759941H452.464V5.09194H455.276V0.759941H462.876V35.4159C462.876 41.5719 456.264 45.0679 433.236 45.0679C410.208 45.0679 403.52 41.5719 403.52 35.4159ZM408.536 16.7959C408.536 17.3279 409.6 17.7839 421.912 17.7839C434.072 17.7839 434.984 17.3279 434.984 16.7959C434.984 16.3399 434.072 15.8839 421.912 15.8839C409.6 15.8839 408.536 16.3399 408.536 16.7959ZM523.947 43.8519V0.759941H531.547V43.8519H523.947ZM469.683 36.5559C481.463 31.7679 487.239 23.0279 489.291 15.4279V8.89194H472.267V1.59594H513.763V8.89194H496.815V15.3519C498.943 22.2679 504.719 30.2479 516.499 35.0359L513.915 41.5719C503.731 37.4679 497.043 30.9319 493.243 24.4719C489.519 31.6159 482.755 38.9119 472.267 43.0919L469.683 36.5559ZM541.222 8.89194V1.59594H598.07V19.7599H548.214V23.3319H599.058V30.6279H574.13V35.0359H601.186V42.3319H539.17V35.0359H566.53V30.6279H540.614V12.4639H590.47V8.89194H541.222Z" fill="white"/>
</svg>
