<?xml version="1.0" encoding="UTF-8"?>
<svg version="1.1" xmlns="http://www.w3.org/2000/svg" width="1200" height="1200">
<path d="M0 0 C4.29 0 8.58 0 13 0 C13 0.66 13 1.32 13 2 C13.58265625 2.13019531 14.1653125 2.26039062 14.765625 2.39453125 C31.62959951 6.96431455 40.40714559 22.03661158 49 36 C49.91605483 37.45871774 50.83266247 38.91708857 51.75 40.375 C52.50422633 41.58069983 53.25407398 42.78914748 54 44 C54.48210938 44.74378906 54.96421875 45.48757812 55.4609375 46.25390625 C57.31710803 49.56580443 58.59949792 53.00019882 59.875 56.5625 C61.67596935 61.49522359 63.54160453 66.3648253 65.625 71.1875 C69.07307374 79.34757161 71.64965253 87.77586227 73.44140625 96.44921875 C74.03731318 99.17038817 74.71857101 101.86530873 75.41040039 104.56347656 C78.95678471 118.43363366 81.48135363 132.26475122 83.19970703 146.47338867 C83.70157295 150.60870726 84.23038179 154.73886133 84.78295898 158.86767578 C86.99157172 176.08780775 87.46235278 193.08808091 87.53930664 210.41595459 C87.57540023 218.51197252 87.66701982 226.60752327 87.75390625 234.703125 C87.76222095 235.51525829 87.77053566 236.32739159 87.77910233 237.16413498 C87.95135073 253.74382378 88.40368154 270.30541003 89 286.875 C89.04206573 288.09253967 89.08413147 289.31007935 89.12747192 290.56451416 C89.24591706 293.95731374 89.37117455 297.3497678 89.5 300.7421875 C89.5354039 301.73337585 89.5708078 302.72456421 89.60728455 303.74578857 C89.66245995 305.10308075 89.66245995 305.10308075 89.71875 306.48779297 C89.74904297 307.26831024 89.77933594 308.04882751 89.81054688 308.85299683 C90.00477196 311.05407886 90.24325407 312.92014348 91 315 C93.37270137 316.72804289 95.66370179 318.21547786 98.1875 319.6875 C99.66071488 320.5758972 101.1333615 321.46523737 102.60546875 322.35546875 C103.71801025 323.0213501 103.71801025 323.0213501 104.85302734 323.70068359 C107.94343705 325.57095428 110.97241485 327.5302458 114 329.5 C119.00921222 332.74087487 124.05714503 335.9142234 129.125 339.0625 C134.89124509 342.64789072 140.56934932 346.34143373 146.203125 350.1328125 C150.75100858 353.16896942 155.37597309 356.08166602 160 359 C165.69697389 362.59549649 171.35551003 366.22779584 176.9375 370 C181.91131651 373.33735357 187.00740986 376.37236715 192.19921875 379.35546875 C196.25189964 381.73507636 200.12020291 384.35116843 204 387 C210.23325223 391.21276233 216.42920449 395.33551789 223 399 C224.48610857 399.8631572 225.96518144 400.73852547 227.4375 401.625 C228.11683594 402.02976562 228.79617188 402.43453125 229.49609375 402.8515625 C229.99238281 403.23054688 230.48867188 403.60953125 231 404 C231 404.66 231 405.32 231 406 C231.69480469 406.24492187 232.38960937 406.48984375 233.10546875 406.7421875 C236.46600214 408.20250025 239.28574867 410.06281778 242.3125 412.125 C243.38113281 412.84945313 244.44976563 413.57390625 245.55078125 414.3203125 C246.35902344 414.87460937 247.16726563 415.42890625 248 416 C247.97679687 415.34773438 247.95359375 414.69546875 247.9296875 414.0234375 C247.74895344 405.27074536 249.66463078 398.98877791 255 392 C259.56351163 387.44632353 262.69253055 384.89428162 269.24072266 384.80712891 C270.88350693 384.78303452 270.88350693 384.78303452 272.55947876 384.75845337 C277.58538226 384.71398764 282.61115264 384.67291484 287.63720703 384.64990234 C290.28508305 384.6333673 292.93291488 384.60611023 295.58056641 384.56787109 C299.40030052 384.512983 303.21898658 384.49120577 307.0390625 384.4765625 C308.80511337 384.44255844 308.80511337 384.44255844 310.60684204 384.40786743 C319.59639612 384.43086402 324.21025293 386.63133593 330.8125 392.5 C332.91768766 394.90592875 334.48741881 397.19092065 336 400 C336.35336929 400.58483154 336.70673859 401.16966309 337.07081604 401.7722168 C338.27690713 404.66390411 338.21853604 406.95088156 338.17944336 410.08203125 C338.16960922 411.31010498 338.15977509 412.53817871 338.14964294 413.8034668 C338.139783 414.45664886 338.12992306 415.10983093 338.11976433 415.7828064 C338.0895244 417.83416313 338.07277211 419.88523391 338.05970764 421.93676758 C338.02001359 427.76763421 337.95484555 433.59815444 337.88354492 439.42871094 C337.84080791 442.9994333 337.81272704 446.57003981 337.79324532 450.14096069 C337.78268745 451.49976337 337.7663003 452.85853389 337.74394035 454.2171936 C337.71271308 456.11727683 337.70150175 458.01765706 337.69116211 459.91796875 C337.67212074 461.53868286 337.67212074 461.53868286 337.6526947 463.19213867 C338.05108088 466.41297389 338.75355459 467.69442539 341 470 C343.53162911 471.43079713 345.99990256 472.71008795 348.625 473.9375 C350.08399614 474.6431625 351.54233581 475.35018398 353 476.05859375 C353.69738281 476.39487793 354.39476562 476.73116211 355.11328125 477.07763672 C358.83145734 478.89534755 362.41480417 480.93579634 366 483 C368.24952017 484.29251159 370.49943302 485.58431413 372.75 486.875 C373.35537598 487.22280518 373.96075195 487.57061035 374.58447266 487.92895508 C378.35444661 490.08644615 382.15758253 492.16067508 386 494.1875 C392.13703032 497.45556277 398.09287125 500.99930292 404.0625 504.5625 C410.69779431 508.51943909 417.29900327 512.29221869 424.26171875 515.640625 C429.22364028 518.1038899 433.97610919 520.94552984 438.76953125 523.71777344 C443.43577473 526.40025054 448.12607435 529.04049937 452.8125 531.6875 C453.77905518 532.23414307 454.74561035 532.78078613 455.74145508 533.34399414 C460.09539212 535.80442698 464.4534812 538.25623815 468.828125 540.6796875 C472.22091013 542.56078702 475.58864164 544.47891103 478.9375 546.4375 C479.95585938 547.03304687 480.97421875 547.62859375 482.0234375 548.2421875 C484.71432603 549.8312949 487.39031455 551.44222247 490.0625 553.0625 C493.59144397 555.19694192 497.17370578 557.18398543 500.8125 559.125 C507.13846184 562.56903564 511.20046248 565.15298557 514 572 C514.39416353 574.87798798 514.37451369 577.70853037 514.328125 580.609375 C514.32625183 581.41739563 514.32437866 582.22541626 514.32244873 583.05792236 C514.3157573 584.7556169 514.30190107 586.45329679 514.28125 588.15087891 C514.24993172 590.7556788 514.24025861 593.3598737 514.234375 595.96484375 C514.22521061 597.61719492 514.21483664 599.26953992 514.203125 600.921875 C514.19887512 601.70205994 514.19462524 602.48224487 514.19024658 603.28607178 C514.1172571 608.76548581 514.1172571 608.76548581 513 611 C500.88701232 611.52098872 490.10685632 610.35178258 478.33251953 607.52685547 C474.97026433 606.76740951 471.58272809 606.18211393 468.18920898 605.58056641 C461.44239952 604.35237128 454.72346618 602.97428342 448 601.625 C447.22309814 601.46937592 446.44619629 601.31375183 445.64575195 601.15341187 C434.79021238 598.97830678 423.94367073 596.76760834 413.1171875 594.45166016 C408.45633086 593.45735841 403.79154552 592.48156179 399.12768555 591.50146484 C395.13215558 590.66121202 391.13754167 589.81699594 387.14453125 588.96484375 C379.1454649 587.26164503 371.14432423 585.62382358 363.10180664 584.13769531 C349.54296499 581.6273536 336.04642305 578.82091639 322.5625 575.9375 C320.84015137 575.56951294 320.84015137 575.56951294 319.08300781 575.1940918 C313.50903683 573.99559976 307.94996326 572.75668499 302.40234375 571.44140625 C297.28705527 570.25047602 292.1727621 569.31677446 286.98730469 568.49169922 C281.84129715 567.64468556 276.73594174 566.59746669 271.625 565.5625 C270.52357666 565.34078125 269.42215332 565.1190625 268.28735352 564.890625 C261.75750223 563.57163843 255.23742668 562.21458266 248.7265625 560.8046875 C233.67255614 557.55403204 218.60249924 554.47632733 203.43676758 551.78759766 C197.09577261 550.64576415 190.86405983 549.28833783 184.62841797 547.66430664 C181.40577079 546.84981445 178.16801096 546.21158105 174.90234375 545.59765625 C172.67434015 545.13886143 170.46006073 544.61300796 168.25390625 544.05859375 C139.95766444 536.9911384 109.96469376 538.42913033 81 538 C80.06531055 541.47443059 79.84631078 544.5949076 79.7890625 548.203125 C79.76271729 549.47446289 79.73637207 550.74580078 79.70922852 552.05566406 C79.68930344 553.07811218 79.68930344 553.07811218 79.66897583 554.12121582 C79.37821705 568.19628153 78.61612721 582.21234274 77.5625 596.25 C77.47020111 597.51463074 77.47020111 597.51463074 77.3760376 598.80480957 C76.27055128 613.81846433 76.27055128 613.81846433 75.0234375 621.0703125 C73.44092193 630.65437057 72.98515178 640.37780234 72.31097412 650.05880737 C71.88888282 656.11681802 71.45009837 662.17361836 71.01171875 668.23046875 C70.88243988 670.0233709 70.88243988 670.0233709 70.75054932 671.85249329 C70.04553008 681.55572048 69.24134817 691.24751325 68.375 700.9375 C67.64290509 709.12755621 66.9521171 717.31622757 66.44140625 725.5234375 C66.39773926 726.22475296 66.35407227 726.92606842 66.30908203 727.64863586 C66.1066426 730.94294934 65.91424956 734.2373363 65.73388672 737.53295898 C65.40022867 743.26627697 64.91714814 748.89274299 64.04296875 754.5703125 C62.75076458 763.11152519 62.16634597 771.68656883 61.56738281 780.29858398 C61.37312534 783.0894327 61.17151719 785.87967966 60.96875 788.66992188 C60.84072498 790.45830326 60.71310579 792.24671374 60.5859375 794.03515625 C60.52659027 794.86225601 60.46724304 795.68935577 60.40609741 796.54151917 C60.14140602 800.36959919 59.92749709 804.15976233 60 808 C60.95777344 808.47308594 61.91554688 808.94617188 62.90234375 809.43359375 C72.28868301 814.08800642 81.57607074 818.90520388 90.81933594 823.83691406 C94.56415005 825.83426006 98.31308155 827.82381474 102.0625 829.8125 C102.74046631 830.17335693 103.41843262 830.53421387 104.11694336 830.90600586 C107.45275042 832.67608467 110.80158011 834.40952197 114.18359375 836.08984375 C117.16573509 837.57202063 120.09288699 839.1243118 123 840.75 C132.8502 846.14736986 142.94324076 851.04369319 153.10498047 855.82177734 C160.0864549 859.10638077 166.89897609 862.357592 173.41796875 866.50390625 C177.02491499 868.59386148 180.78090045 870.3135355 184.5625 872.0625 C190.52586828 874.82135365 196.31953233 877.69042599 202 881 C203.68236263 881.94695861 205.36472707 882.89391401 207.04711914 883.84082031 C212.15983255 886.73349482 217.23842953 889.68518131 222.25 892.75 C223.12140625 893.28109375 223.9928125 893.8121875 224.890625 894.359375 C227.2361396 896.18366414 227.91455519 897.26541174 229 900 C229.25396729 902.47964478 229.25396729 902.47964478 229.25878906 905.28759766 C229.26509338 906.34194 229.27139771 907.39628235 229.27789307 908.48257446 C229.27182037 910.18116104 229.27182037 910.18116104 229.265625 911.9140625 C229.26849518 913.66304337 229.26849518 913.66304337 229.27142334 915.44735718 C229.27278375 917.91021948 229.26909736 920.37308899 229.26074219 922.8359375 C229.25002169 926.61735005 229.26065254 930.39828956 229.2734375 934.1796875 C229.27211626 936.57031355 229.2695546 938.96093931 229.265625 941.3515625 C229.26967346 942.48800201 229.27372192 943.62444153 229.27789307 944.7953186 C229.27158875 945.84335663 229.26528442 946.89139465 229.25878906 947.97119141 C229.25719788 948.89622467 229.25560669 949.82125793 229.25396729 950.77432251 C229 953 229 953 227 955 C216.37703942 956.19340222 206.66405483 954.10625778 196.5 951.1875 C193.90840579 950.46472523 191.3139151 949.75280112 188.71875 949.04296875 C186.81996094 948.52162354 186.81996094 948.52162354 184.8828125 947.98974609 C179.71599126 946.62768253 174.47916788 945.66104116 169.22460938 944.7043457 C166.27840135 944.06081071 163.77448829 943.15078045 161 942 C159.40402543 941.58999309 157.79738776 941.21974934 156.18359375 940.88671875 C154.80627075 940.59680054 154.80627075 940.59680054 153.40112305 940.30102539 C151.93412964 939.99733032 151.93412964 939.99733032 150.4375 939.6875 C142.98451641 938.10762916 135.56892216 936.44923463 128.1875 934.5625 C119.39570643 932.31969552 110.56768187 930.26116809 101.72363281 928.23510742 C93.93057715 926.4489593 86.14805491 924.6235688 78.37304688 922.76049805 C74.2960021 921.78373917 70.2175877 920.81506829 66.1328125 919.87109375 C65.36074463 919.6920752 64.58867676 919.51305664 63.79321289 919.32861328 C62.36326306 918.99777012 60.93280319 918.66911921 59.50170898 918.34326172 C56.52871328 917.65392577 53.65878988 916.88323765 50.76953125 915.89453125 C47.41775209 914.81193967 44.49949197 914.86002032 41 915 C40.91363281 915.69480469 40.82726562 916.38960937 40.73828125 917.10546875 C38.58467959 932.69438349 34.46949208 947.93348637 30 963 C29.3097276 965.39503604 28.62224888 967.79087892 27.9375 970.1875 C27.60492187 971.34378906 27.27234375 972.50007813 26.9296875 973.69140625 C26.09556878 976.65988756 25.325399 979.63769325 24.5625 982.625 C23.21251116 987.64872897 21.26135844 992.3020015 19.19921875 997.0703125 C17.74737856 1000.61715336 16.66126304 1004.20205125 15.62109375 1007.88671875 C15 1010 15 1010 13.875 1012.75 C12.69870157 1015.54797654 12.69870157 1015.54797654 12 1021 C7.38 1021 2.76 1021 -2 1021 C-2.495 1019.288125 -2.99 1017.57625 -3.5 1015.8125 C-5.37660414 1009.67513627 -7.60554419 1003.72743695 -9.9375 997.75 C-13.03504873 989.78620294 -15.68009165 981.80723496 -17.984375 973.58203125 C-18.76652434 970.82345071 -19.60650569 968.13767542 -20.5625 965.4375 C-23.85358966 955.78862349 -26.02035218 945.73302095 -27.5703125 935.671875 C-28.20291779 931.73822028 -29.09640398 927.87851216 -30 924 C-30.3766387 922.31286499 -30.75167042 920.62537034 -31.125 918.9375 C-31.29257812 918.18339844 -31.46015625 917.42929687 -31.6328125 916.65234375 C-31.75398438 916.10707031 -31.87515625 915.56179688 -32 915 C-35.43185589 915.41182271 -38.60149603 915.86374084 -41.87890625 916.984375 C-44.90464346 917.96897034 -47.66288092 918.47046177 -50.8125 918.875 C-59.00753847 920.05778906 -66.96281319 922.04764693 -75 924 C-76.49865739 924.33931865 -77.99837486 924.67406586 -79.5 925 C-83.48912818 925.87474266 -87.4632299 926.81052554 -91.4375 927.75 C-98.68196265 929.46179576 -105.93339669 931.14205718 -113.1875 932.8125 C-141.48759912 939.26186965 -141.48759912 939.26186965 -169.67578125 946.17578125 C-172.20192514 946.80212245 -174.72419349 947.38796878 -177.265625 947.9453125 C-182.34540212 949.06263796 -187.39160934 950.30196245 -192.4375 951.5625 C-193.33404297 951.78357422 -194.23058594 952.00464844 -195.15429688 952.23242188 C-196.00958984 952.44576172 -196.86488281 952.65910156 -197.74609375 952.87890625 C-198.51622803 953.0704126 -199.2863623 953.26191895 -200.07983398 953.45922852 C-202.06134716 953.95233822 -202.06134716 953.95233822 -204 955 C-206.16410684 955.12244289 -208.33246523 955.17551142 -210.5 955.1875 C-211.6653125 955.20167969 -212.830625 955.21585938 -214.03125 955.23046875 C-217 955 -217 955 -219 953 C-219.26069641 950.82574463 -219.26069641 950.82574463 -219.2746582 948.09472656 C-219.28419022 947.07316467 -219.29372223 946.05160278 -219.30354309 944.99908447 C-219.30217598 943.33664703 -219.30217598 943.33664703 -219.30078125 941.640625 C-219.30506638 940.5034906 -219.3093515 939.3663562 -219.31376648 938.19476318 C-219.31951921 935.78382026 -219.32000314 933.37285997 -219.31567383 930.96191406 C-219.31252479 927.27899306 -219.33592426 923.59688345 -219.36132812 919.9140625 C-219.36360215 917.57291768 -219.36430413 915.2317707 -219.36328125 912.890625 C-219.372491 911.7904303 -219.38170074 910.6902356 -219.39118958 909.55670166 C-219.35755707 903.97267198 -219.23304693 899.78626529 -216 895 C-214.30078125 893.6015625 -214.30078125 893.6015625 -212.3125 892.625 C-211.52488281 892.22539063 -210.73726563 891.82578125 -209.92578125 891.4140625 C-208.96027344 890.94742188 -207.99476563 890.48078125 -207 890 C-205.02828341 889.01859312 -203.05944943 888.03153118 -201.09057617 887.04443359 C-199.73748163 886.36843938 -198.38229652 885.69660689 -197.0246582 885.02978516 C-192.69373045 882.89476764 -188.46635202 880.61580619 -184.25488281 878.25439453 C-180.66013337 876.25463028 -177.01857825 874.34641817 -173.375 872.4375 C-172.57449219 872.01694336 -171.77398437 871.59638672 -170.94921875 871.16308594 C-166.31694771 868.73167568 -161.67931411 866.31067261 -157.0390625 863.89453125 C-155.53206787 863.10961304 -155.53206787 863.10961304 -153.99462891 862.30883789 C-152.05737662 861.30041168 -150.11958653 860.29301768 -148.18115234 859.28686523 C-142.61094961 856.38875388 -137.08278786 853.42335968 -131.57617188 850.40625 C-127.98484014 848.44585664 -124.36985844 846.53204737 -120.75 844.625 C-119.27593901 843.84654852 -117.80198264 843.06789891 -116.328125 842.2890625 C-115.60173828 841.90524414 -114.87535156 841.52142578 -114.12695312 841.12597656 C-110.91385536 839.42501158 -107.70665406 837.71307348 -104.5 836 C-98.36328982 832.72161846 -92.21369162 829.4680414 -86.0612793 826.21923828 C-82.12604476 824.13760533 -78.20993887 822.02688989 -74.3125 819.875 C-69.00782663 816.95864818 -63.59690746 814.2806487 -58.1640625 811.61328125 C-55.35776304 810.18241498 -52.68997314 808.63480764 -50 807 C-50.6968225 796.90324693 -51.47225215 786.81437213 -52.30224609 776.7277832 C-52.43568383 775.09803075 -52.56748189 773.46814332 -52.69775391 771.83813477 C-52.88866095 769.45037563 -53.08439775 767.06305669 -53.28125 764.67578125 C-53.338573 763.94772781 -53.395896 763.21967438 -53.45495605 762.46955872 C-53.70766323 759.46278719 -54.04130715 756.87607856 -55 754 C-55.26931281 751.1566605 -55.49438148 748.32534632 -55.68359375 745.4765625 C-55.74334381 744.62755371 -55.80309387 743.77854492 -55.86465454 742.90380859 C-55.99239747 741.08679947 -56.1185248 739.26967618 -56.24319458 737.45245361 C-56.56714286 732.73848973 -56.9039024 728.02545401 -57.2421875 723.3125 C-57.30791458 722.39554352 -57.37364166 721.47858704 -57.44136047 720.53384399 C-57.95474508 713.44962815 -58.5764981 706.38238505 -59.29833984 699.31640625 C-60.14069157 690.93880333 -60.72288163 682.54239812 -61.30297852 674.14306641 C-61.60732926 669.82839055 -61.91884345 665.56394913 -62.53515625 661.28125 C-63.12138254 657.14318206 -63.23555751 653.04817029 -63.375 648.875 C-63.71762211 640.30639494 -64.49035015 631.83394152 -65.4375 623.3125 C-66.73102134 611.60585796 -67.55341426 599.93018846 -68.17984009 588.17260742 C-68.66329637 579.11696764 -69.30699188 570.12393243 -70.38867188 561.11694336 C-71.09156121 554.99166287 -71.12514696 548.96789226 -70.97265625 542.80859375 C-70.79427799 540.04603994 -70.79427799 540.04603994 -72 538 C-79.43417753 538.11872366 -86.86823637 538.24351447 -94.30224609 538.37231445 C-96.82566073 538.41534368 -99.34909853 538.45703773 -101.87255859 538.49731445 C-125.77483851 538.40099469 -125.77483851 538.40099469 -149.2265625 542.25 C-151.68777369 542.91556697 -154.12206966 543.45912424 -156.625 543.9375 C-163.70756227 545.30350472 -170.73550741 546.924686 -177.7734375 548.50146484 C-185.13545392 550.14984615 -192.50315114 551.7711697 -199.875 553.375 C-201.36978882 553.700448 -201.36978882 553.700448 -202.89477539 554.0324707 C-210.15848825 555.60998162 -217.42858398 557.1547005 -224.70849609 558.65576172 C-229.50681473 559.65356065 -234.2503393 560.79090788 -239 562 C-246.54541245 563.86076756 -254.03742482 565.35723367 -261.7265625 566.48046875 C-266.79159897 567.28434685 -271.77564169 568.4145641 -276.78222656 569.51855469 C-281.41058163 570.52330108 -286.05010688 571.47551664 -290.6875 572.4375 C-299.45036894 574.25669683 -299.45036894 574.25669683 -308.20703125 576.10546875 C-309.80466989 576.44539527 -311.40232555 576.7852418 -313 577.125 C-313.76231934 577.28718018 -314.52463867 577.44936035 -315.31005859 577.61645508 C-321.71243837 578.9661049 -328.13841143 580.15391704 -334.58203125 581.2890625 C-337.84224298 581.96718654 -340.846773 582.94470315 -344 584 C-345.95086662 584.37456639 -347.91005983 584.7081256 -349.875 585 C-353.86129007 585.59528598 -357.71263632 586.40883862 -361.61621094 587.41113281 C-366.77872618 588.68642847 -371.98788159 589.76296534 -377.1875 590.875 C-378.4240332 591.13966064 -379.66056641 591.40432129 -380.93457031 591.67700195 C-392.3622188 594.10585698 -403.8233899 596.31268157 -415.31298828 598.42529297 C-422.5990484 599.76567543 -429.82542863 601.1445074 -437 603 C-440.32614635 603.70403431 -443.6631593 604.34890913 -447 605 C-452.03725332 606.00138507 -457.07226839 607.01360443 -462.10546875 608.03515625 C-463.79947917 608.37760417 -465.49348958 608.72005208 -467.1875 609.0625 C-468.03763672 609.23587891 -468.88777344 609.40925781 -469.76367188 609.58789062 C-476.41634124 610.92869889 -482.93761108 612.14424404 -489.75 612.125 C-490.67296875 612.12757813 -491.5959375 612.13015625 -492.546875 612.1328125 C-495 612 -495 612 -498 611 C-500.56489932 607.15265102 -500.30582459 603.96176675 -500.30078125 599.5 C-500.30506638 598.66791016 -500.3093515 597.83582031 -500.31376648 596.97851562 C-500.31950693 595.22006134 -500.32001213 593.46158331 -500.31567383 591.703125 C-500.31251175 589.01000601 -500.33598298 586.31798332 -500.36132812 583.625 C-500.36360091 581.91666805 -500.36430471 580.20833315 -500.36328125 578.5 C-500.372491 577.69369141 -500.38170074 576.88738281 -500.39118958 576.05664062 C-500.34409632 570.3795616 -500.34409632 570.3795616 -498.53923035 568.38867188 C-498.03128433 567.93041016 -497.52333832 567.47214844 -497 567 C-496.67 566.34 -496.34 565.68 -496 565 C-494 564 -492 563 -490 562 C-488.26399151 560.80503452 -486.5802456 559.56136428 -484.90625 558.28125 C-482.39022437 556.59015081 -479.71576094 555.34822729 -477 554 C-473.50050028 552.05826857 -470.03527483 550.05533357 -466.5703125 548.05273438 C-461.21674877 545 -461.21674877 545 -459 545 C-459 544.34 -459 543.68 -459 543 C-457.49389648 541.89013672 -457.49389648 541.89013672 -455.37109375 540.6796875 C-454.59080811 540.23085205 -453.81052246 539.7820166 -453.0065918 539.31958008 C-452.1587915 538.84286865 -451.31099121 538.36615723 -450.4375 537.875 C-449.57358643 537.38217529 -448.70967285 536.88935059 -447.81958008 536.3815918 C-442.05568385 533.11033488 -436.24161499 529.94276705 -430.375 526.86010742 C-424.87575108 523.96478275 -419.49514657 520.88234071 -414.12109375 517.76171875 C-411.12266513 516.06923902 -408.07911868 514.53955934 -405 513 C-401.96445737 511.35965799 -398.9507382 509.68088759 -395.9375 508 C-394.75317383 507.34257813 -394.75317383 507.34257813 -393.54492188 506.671875 C-389.65743168 504.50817551 -385.80264978 502.31073426 -382 500 C-380.34138713 499.05686719 -378.68272148 498.1138266 -377.0234375 497.171875 C-373.82722989 495.32078951 -370.67900427 493.39057473 -367.52734375 491.46484375 C-364.73915976 489.84881748 -361.88877675 488.42819971 -359 487 C-349.8699299 482.23828544 -340.76761873 477.40784883 -332 472 C-330.89626541 471.43463531 -330.89626541 471.43463531 -329.77023315 470.85784912 C-324.99728384 468.26313454 -324.99728384 468.26313454 -322.21401978 463.82254028 C-321.97371335 461.18977576 -322.01278527 458.69459589 -322.15625 456.0546875 C-322.1713562 455.08959259 -322.1864624 454.12449768 -322.20202637 453.13015747 C-322.25882916 450.04239099 -322.37724534 446.96078151 -322.5 443.875 C-322.60718052 439.85185653 -322.69258646 435.82827654 -322.78125 431.8046875 C-322.80612488 430.81784973 -322.83099976 429.83101196 -322.85662842 428.81427002 C-323.00963475 422.14979633 -322.99467102 415.5131181 -322.734375 408.8515625 C-322.71201782 408.03589813 -322.68966064 407.22023376 -322.66662598 406.37985229 C-322.38303733 400.58552305 -321.00963311 396.79191359 -316.8359375 392.55859375 C-315.92714844 391.78708984 -315.92714844 391.78708984 -315 391 C-314.13375 390.195625 -313.2675 389.39125 -312.375 388.5625 C-305.48914428 384.03233176 -298.18724223 383.84681958 -290.19921875 383.8671875 C-289.36340775 383.86623077 -288.52759674 383.86527405 -287.66645813 383.86428833 C-285.90402145 383.86361027 -284.14158222 383.8654384 -282.37915039 383.86962891 C-279.70648466 383.87496212 -277.03398853 383.86968165 -274.36132812 383.86328125 C-272.64062463 383.86394249 -270.91992125 383.86522461 -269.19921875 383.8671875 C-268.0175135 383.86415115 -268.0175135 383.86415115 -266.81193542 383.86105347 C-255.72197318 383.90700381 -248.64138259 384.9854377 -240.1875 392.5 C-234.58935315 398.89788212 -232.50879931 405.48585473 -233 414 C-233.33 414.99 -233.66 415.98 -234 417 C-233.05125 416.34 -232.1025 415.68 -231.125 415 C-228 413 -228 413 -226 413 C-226 412.34 -226 411.68 -226 411 C-224.87464844 410.45472656 -224.87464844 410.45472656 -223.7265625 409.8984375 C-217.80323493 406.98899449 -212.07931089 403.92961614 -206.45703125 400.4765625 C-204.04835692 399.02906028 -201.60577918 397.69448131 -199.125 396.375 C-192.64145386 392.88672195 -186.36829018 389.05241146 -180.08056641 385.22607422 C-175.79257901 382.62721804 -171.51886342 380.18327109 -167 378 C-163.78025848 376.29299968 -160.57577035 374.55932742 -157.37109375 372.82421875 C-155.28378559 371.69470205 -153.19324658 370.57110686 -151.09765625 369.45703125 C-146.45662781 366.97338188 -141.97210252 364.37665057 -137.5625 361.5 C-132.85628711 358.45401584 -128.02595412 355.92288625 -122.98828125 353.47265625 C-112.84745864 348.47515282 -103.11039049 342.67381224 -93.375 336.9375 C-92.63765625 336.50373047 -91.9003125 336.06996094 -91.140625 335.62304688 C-89.72137242 334.78751915 -88.30425863 333.94834425 -86.88964844 333.10498047 C-85.29731111 332.17385402 -83.67133245 331.30060903 -82.0390625 330.44140625 C-79.54866828 328.68095517 -79.51605104 327.9250168 -79 325 C-78.92007639 322.130892 -78.89454296 319.28754811 -78.91821289 316.41918945 C-78.92122847 315.5503308 -78.92424404 314.68147215 -78.927351 313.78628445 C-78.93442875 311.89264698 -78.943771 309.99901694 -78.95509148 308.10540009 C-78.97290626 305.07069347 -78.98429083 302.03602517 -78.99378967 299.00128174 C-79.00741143 294.67851017 -79.02275362 290.35575059 -79.03936768 286.0329895 C-79.26406757 224.18332455 -79.26406757 224.18332455 -78.125 198.5625 C-78.0856131 197.63893707 -78.0462262 196.71537415 -78.00564575 195.76382446 C-77.58057589 186.17018674 -76.85383151 176.65088403 -75.69802856 167.11634827 C-75.12271323 162.36928053 -74.75784675 157.65056879 -74.5 152.875 C-74.23169131 148.42201719 -73.77365856 144.42721508 -72.5234375 140.16015625 C-71.82386172 137.27310096 -71.53082629 134.38816276 -71.1875 131.4375 C-70.32609228 124.62144051 -69.02619403 117.96153296 -67.5625 111.25 C-67.35713623 110.30439209 -67.15177246 109.35878418 -66.94018555 108.38452148 C-64.86493858 99.0479407 -62.51331589 89.90145058 -59 81 C-58.64035156 80.03449219 -58.28070312 79.06898438 -57.91015625 78.07421875 C-54.9580764 70.19886196 -51.63214086 62.58349599 -48 55 C-47.42036703 53.74098018 -46.84094712 52.48186226 -46.26171875 51.22265625 C-41.29628777 40.65261457 -35.02170764 31.31286484 -28 22 C-27.26265625 21.01386719 -26.5253125 20.02773437 -25.765625 19.01171875 C-24.89164063 18.01591797 -24.89164063 18.01591797 -24 17 C-23.34 17 -22.68 17 -22 17 C-21.61521484 16.11828125 -21.61521484 16.11828125 -21.22265625 15.21875 C-17.52009472 8.4997246 -10.13175271 4.26471832 -3 2 C-2.01 2 -1.02 2 0 2 C0 1.34 0 0.68 0 0 Z " fill="#FFFFFF" transform="translate(588,84)"/>
<path d="M0 0 C1.98 0 3.96 0 6 0 C6 7.26 6 14.52 6 22 C5.01 22 4.02 22 3 22 C3 23.32 3 24.64 3 26 C1.35 26 -0.3 26 -2 26 C-1.34 17.42 -0.68 8.84 0 0 Z " fill="#FFFFFF" transform="translate(671,666)"/>
<path d="M0 0 C1.65 0 3.3 0 5 0 C5 9.9 5 19.8 5 30 C3.35 30 1.7 30 0 30 C0 20.1 0 10.2 0 0 Z " fill="#FFFFFF" transform="translate(680,298)"/>
<path d="M0 0 C1.32 0 2.64 0 4 0 C4 6.27 4 12.54 4 19 C2.68 19 1.36 19 0 19 C0 12.73 0 6.46 0 0 Z " fill="#FFFFFF" transform="translate(932,512)"/>
<path d="M0 0 C3.63 0 7.26 0 11 0 C11 2.64 11 5.28 11 8 C8.69 8 6.38 8 4 8 C4 6.68 4 5.36 4 4 C2.68 4 1.36 4 0 4 C0 2.68 0 1.36 0 0 Z " fill="#FFFFFF" transform="translate(673,628)"/>
<path d="M0 0 C1.32 0 2.64 0 4 0 C4 4.95 4 9.9 4 15 C2.68 15 1.36 15 0 15 C0 10.05 0 5.1 0 0 Z " fill="#FFFFFF" transform="translate(823,1022)"/>
<path d="M0 0 C1.32 0 2.64 0 4 0 C4 1.32 4 2.64 4 4 C5.32 4 6.64 4 8 4 C8 5.32 8 6.64 8 8 C9.32 8 10.64 8 12 8 C12 9.32 12 10.64 12 12 C10.35 12 8.7 12 7 12 C7 11.01 7 10.02 7 9 C6.01 9 5.02 9 4 9 C4 7.68 4 6.36 4 5 C2.68 4.67 1.36 4.34 0 4 C0 2.68 0 1.36 0 0 Z " fill="#FFFFFF" transform="translate(917,466)"/>
<path d="M0 0 C1.32 0 2.64 0 4 0 C3.67 1.65 3.34 3.3 3 5 C2.01 5 1.02 5 0 5 C0 5.99 0 6.98 0 8 C-0.99 8 -1.98 8 -3 8 C-3 9.32 -3 10.64 -3 12 C-4.65 12 -6.3 12 -8 12 C-8 10.68 -8 9.36 -8 8 C-6.68 8 -5.36 8 -4 8 C-4 6.68 -4 5.36 -4 4 C-2.68 4 -1.36 4 0 4 C0 2.68 0 1.36 0 0 Z " fill="#FFFFFF" transform="translate(553,102)"/>
<path d="M0 0 C1.32 0 2.64 0 4 0 C4 0.99 4 1.98 4 3 C5.32 3.33 6.64 3.66 8 4 C8 4.99 8 5.98 8 7 C9.32 7 10.64 7 12 7 C12 8.32 12 9.64 12 11 C10.35 11 8.7 11 7 11 C7 10.01 7 9.02 7 8 C6.01 8 5.02 8 4 8 C4 6.68 4 5.36 4 4 C2.68 3.67 1.36 3.34 0 3 C0 2.01 0 1.02 0 0 Z " fill="#FFFFFF" transform="translate(628,99)"/>
<path d="M0 0 C1.32 0 2.64 0 4 0 C4 0.99 4 1.98 4 3 C5.32 3 6.64 3 8 3 C8 4.65 8 6.3 8 8 C5.36 8 2.72 8 0 8 C0 5.36 0 2.72 0 0 Z " fill="#FFFFFF" transform="translate(823,996)"/>
<path d="M0 0 C1.32 0 2.64 0 4 0 C4.28875 0.804375 4.5775 1.60875 4.875 2.4375 C5.73262568 5.1326468 5.73262568 5.1326468 8 6 C8 6.66 8 7.32 8 8 C5.36 8 2.72 8 0 8 C0 5.36 0 2.72 0 0 Z " fill="#FFFFFF" transform="translate(365,1037)"/>
<path d="M0 0 C2.475 0.495 2.475 0.495 5 1 C5 1.99 5 2.98 5 4 C5.99 4 6.98 4 8 4 C8 5.65 8 7.3 8 9 C6.68 8.67 5.36 8.34 4 8 C4 7.01 4 6.02 4 5 C2.68 5 1.36 5 0 5 C0 3.35 0 1.7 0 0 Z " fill="#FFFFFF" transform="translate(346,466)"/>
<path d="M0 0 C1.32 0 2.64 0 4 0 C4 1.32 4 2.64 4 4 C5.32 4 6.64 4 8 4 C8 5.65 8 7.3 8 9 C6.68 9 5.36 9 4 9 C4 7.68 4 6.36 4 5 C2.68 5 1.36 5 0 5 C0 3.35 0 1.7 0 0 Z " fill="#FFFFFF" transform="translate(812,969)"/>
<path d="M0 0 C1.32 0 2.64 0 4 0 C4 0.99 4 1.98 4 3 C5.32 3 6.64 3 8 3 C8 4.65 8 6.3 8 8 C5.525 7.01 5.525 7.01 3 6 C3 5.34 3 4.68 3 4 C2.01 4 1.02 4 0 4 C0 2.68 0 1.36 0 0 Z " fill="#FFFFFF" transform="translate(816,478)"/>
<path d="M0 0 C1.32 0 2.64 0 4 0 C3.75390625 1.859375 3.75390625 1.859375 3 4 C1.15234375 5.265625 1.15234375 5.265625 -1.0625 6.25 C-2.16271484 6.75273438 -2.16271484 6.75273438 -3.28515625 7.265625 C-4.13400391 7.62914062 -4.13400391 7.62914062 -5 8 C-5 6.68 -5 5.36 -5 4 C-3.68 4 -2.36 4 -1 4 C-0.67 2.68 -0.34 1.36 0 0 Z " fill="#FFFFFF" transform="translate(456,924)"/>
<path d="M0 0 C0.99 0 1.98 0 3 0 C3 3.63 3 7.26 3 11 C2.01 11 1.02 11 0 11 C0 7.37 0 3.74 0 0 Z " fill="#FFFFFF" transform="translate(500,335)"/>
<path d="M0 0 C1.32 0 2.64 0 4 0 C4 1.32 4 2.64 4 4 C-1.75 7 -1.75 7 -4 7 C-4 6.01 -4 5.02 -4 4 C-3.01 4 -2.02 4 -1 4 C-0.67 2.68 -0.34 1.36 0 0 Z " fill="#FFFFFF" transform="translate(422,451)"/>
<path d="M0 0 C1.32 0 2.64 0 4 0 C4 1.32 4 2.64 4 4 C3.236875 4.28875 2.47375 4.5775 1.6875 4.875 C-1.15029308 5.96269013 -1.15029308 5.96269013 -4 8 C-4 6.35 -4 4.7 -4 3 C-2.68 3 -1.36 3 0 3 C0 2.01 0 1.02 0 0 Z " fill="#FFFFFF" transform="translate(129,617)"/>
<path d="M0 0 C1.32 0 2.64 0 4 0 C4 1.32 4 2.64 4 4 C3.01 4 2.02 4 1 4 C1 4.66 1 5.32 1 6 C0.01 6 -0.98 6 -2 6 C-2 6.66 -2 7.32 -2 8 C-2.66 8 -3.32 8 -4 8 C-4 6.68 -4 5.36 -4 4 C-2.68 4 -1.36 4 0 4 C0 2.68 0 1.36 0 0 Z " fill="#FFFFFF" transform="translate(215,568)"/>
<path d="M0 0 C1.32 0 2.64 0 4 0 C3.9375 2.3125 3.9375 2.3125 3 5 C-0.5625 6.8125 -0.5625 6.8125 -4 8 C-4 6.68 -4 5.36 -4 4 C-2.68 4 -1.36 4 0 4 C0 2.68 0 1.36 0 0 Z " fill="#FFFFFF" transform="translate(448,436)"/>
<path d="M0 0 C1.65 0 3.3 0 5 0 C4.67 1.32 4.34 2.64 4 4 C3.01 4 2.02 4 1 4 C1 4.66 1 5.32 1 6 C-0.32 6.33 -1.64 6.66 -3 7 C-3 6.01 -3 5.02 -3 4 C-2.01 4 -1.02 4 0 4 C0 2.68 0 1.36 0 0 Z " fill="#FFFFFF" transform="translate(526,887)"/>
<path d="M0 0 C1.65 0 3.3 0 5 0 C4.9375 1.8125 4.9375 1.8125 4 4 C0.4375 5.75 0.4375 5.75 -3 7 C-3 6.01 -3 5.02 -3 4 C-2.01 4 -1.02 4 0 4 C0 2.68 0 1.36 0 0 Z " fill="#FFFFFF" transform="translate(162,598)"/>
<path d="M0 0 C1.65 0 3.3 0 5 0 C5 1.65 5 3.3 5 5 C3.35 5 1.7 5 0 5 C0 3.35 0 1.7 0 0 Z " fill="#FFFFFF" transform="translate(267,466)"/>
<path d="M0 0 C1.65 0 3.3 0 5 0 C5 1.65 5 3.3 5 5 C3.35 4.67 1.7 4.34 0 4 C0 2.68 0 1.36 0 0 Z " fill="#FFFFFF" transform="translate(774,451)"/>
<path d="M0 0 C1.65 0 3.3 0 5 0 C5 1.65 5 3.3 5 5 C3.68 4.67 2.36 4.34 1 4 C0.67 2.68 0.34 1.36 0 0 Z " fill="#FFFFFF" transform="translate(755,939)"/>
<path d="M0 0 C1.65 0 3.3 0 5 0 C5 1.65 5 3.3 5 5 C3.68 4.67 2.36 4.34 1 4 C0.67 2.68 0.34 1.36 0 0 Z " fill="#FFFFFF" transform="translate(1063,620)"/>
<path d="M0 0 C0.99 0 1.98 0 3 0 C3 2.31 3 4.62 3 7 C2.01 7 1.02 7 0 7 C0 4.69 0 2.38 0 0 Z " fill="#FFFFFF" transform="translate(500,377)"/>
<path d="M0 0 C0.99 0 1.98 0 3 0 C3 2.31 3 4.62 3 7 C2.01 7 1.02 7 0 7 C0 4.69 0 2.38 0 0 Z " fill="#FFFFFF" transform="translate(500,362)"/>
<path d="M0 0 C1.32 0 2.64 0 4 0 C4 1.65 4 3.3 4 5 C2.68 5 1.36 5 0 5 C0 3.35 0 1.7 0 0 Z " fill="#FFFFFF" transform="translate(365,973)"/>
<path d="M0 0 C1.32 0 2.64 0 4 0 C4 1.65 4 3.3 4 5 C2.68 5 1.36 5 0 5 C0 3.35 0 1.7 0 0 Z " fill="#FFFFFF" transform="translate(1090,635)"/>
<path d="M0 0 C1.32 0 2.64 0 4 0 C4 1.65 4 3.3 4 5 C2.68 5 1.36 5 0 5 C0 3.35 0 1.7 0 0 Z " fill="#FFFFFF" transform="translate(827,485)"/>
<path d="M0 0 C1.65 0 3.3 0 5 0 C5 1.32 5 2.64 5 4 C3.35 4 1.7 4 0 4 C0 2.68 0 1.36 0 0 Z " fill="#FFFFFF" transform="translate(560,91)"/>
<path d="M0 0 C1.65 0 3.3 0 5 0 C5 1.32 5 2.64 5 4 C3.35 3.67 1.7 3.34 0 3 C0 2.01 0 1.02 0 0 Z " fill="#FFFFFF" transform="translate(770,947)"/>
<path d="M0 0 C1.65 0 3.3 0 5 0 C4.1875 1.9375 4.1875 1.9375 3 4 C2.01 4.33 1.02 4.66 0 5 C0 3.35 0 1.7 0 0 Z " fill="#FFFFFF" transform="translate(421,943)"/>
<path d="M0 0 C1.65 0 3.3 0 5 0 C4.1875 1.9375 4.1875 1.9375 3 4 C2.01 4.33 1.02 4.66 0 5 C0 3.35 0 1.7 0 0 Z " fill="#FFFFFF" transform="translate(485,909)"/>
<path d="M0 0 C0.99 0 1.98 0 3 0 C3 1.65 3 3.3 3 5 C1.68 5 0.36 5 -1 5 C-0.67 3.35 -0.34 1.7 0 0 Z " fill="#FFFFFF" transform="translate(1102,695)"/>
<path d="M0 0 C1.65 0 3.3 0 5 0 C4.67 1.32 4.34 2.64 4 4 C2.68 4 1.36 4 0 4 C0 2.68 0 1.36 0 0 Z " fill="#FFFFFF" transform="translate(117,624)"/>
<path d="M0 0 C1.32 0 2.64 0 4 0 C4 1.65 4 3.3 4 5 C2.68 4.67 1.36 4.34 0 4 C0 2.68 0 1.36 0 0 Z " fill="#FFFFFF" transform="translate(1037,605)"/>
<path d="M0 0 C1.65 0 3.3 0 5 0 C4.1875 1.9375 4.1875 1.9375 3 4 C2.01 4.33 1.02 4.66 0 5 C0 3.35 0 1.7 0 0 Z " fill="#FFFFFF" transform="translate(177,590)"/>
<path d="M0 0 C1.65 0 3.3 0 5 0 C4.67 1.32 4.34 2.64 4 4 C2.68 4 1.36 4 0 4 C0 2.68 0 1.36 0 0 Z " fill="#FFFFFF" transform="translate(196,579)"/>
<path d="M0 0 C1.65 0 3.3 0 5 0 C5 1.32 5 2.64 5 4 C3.35 3.67 1.7 3.34 0 3 C0 2.01 0 1.02 0 0 Z " fill="#FFFFFF" transform="translate(969,568)"/>
<path d="M0 0 C1.65 0 3.3 0 5 0 C4.67 1.32 4.34 2.64 4 4 C2.68 4 1.36 4 0 4 C0 2.68 0 1.36 0 0 Z " fill="#FFFFFF" transform="translate(222,564)"/>
<path d="M0 0 C1.32 0 2.64 0 4 0 C3.67 1.65 3.34 3.3 3 5 C2.01 5 1.02 5 0 5 C0 3.35 0 1.7 0 0 Z " fill="#FFFFFF" transform="translate(256,545)"/>
<path d="M0 0 C1.32 0 2.64 0 4 0 C3.67 1.65 3.34 3.3 3 5 C2.01 5 1.02 5 0 5 C0 3.35 0 1.7 0 0 Z " fill="#FFFFFF" transform="translate(395,466)"/>
<path d="M0 0 C1.65 0 3.3 0 5 0 C5 1.65 5 3.3 5 5 C3.0625 4.1875 3.0625 4.1875 1 3 C0.67 2.01 0.34 1.02 0 0 Z " fill="#FFFFFF" transform="translate(755,440)"/>
<path d="M0 0 C1.32 0 2.64 0 4 0 C4 1.65 4 3.3 4 5 C2.68 4.67 1.36 4.34 0 4 C0 2.68 0 1.36 0 0 Z " fill="#FFFFFF" transform="translate(733,425)"/>
<path d="M0 0 C1.65 0 3.3 0 5 0 C4.67 1.32 4.34 2.64 4 4 C2.68 4 1.36 4 0 4 C0 2.68 0 1.36 0 0 Z " fill="#FFFFFF" transform="translate(481,418)"/>
<path d="M0 0 C1.32 0.33 2.64 0.66 4 1 C4 2.32 4 3.64 4 5 C2.68 5 1.36 5 0 5 C0 3.35 0 1.7 0 0 Z " fill="#FFFFFF" transform="translate(542,117)"/>
<path d="M0 0 C0.33 0 0.66 0 1 0 C1 3.63 1 7.26 1 11 C0.34 11 -0.32 11 -1 11 C-1.14285714 3.57142857 -1.14285714 3.57142857 0 0 Z " fill="#FFFFFF" transform="translate(657,846)"/>
<path d="M0 0 C1.32 0 2.64 0 4 0 C3.67 1.65 3.34 3.3 3 5 C2.01 5 1.02 5 0 5 C0 3.35 0 1.7 0 0 Z " fill="#FFFFFF" transform="translate(369,481)"/>
<path d="M0 0 C1.32 0 2.64 0 4 0 C4 1.65 4 3.3 4 5 C3.01 5 2.02 5 1 5 C0.67 3.35 0.34 1.7 0 0 Z " fill="#FFFFFF" transform="translate(797,466)"/>
<path d="M0 0 C1.65 0 3.3 0 5 0 C5 1.32 5 2.64 5 4 C3.0625 3.6875 3.0625 3.6875 1 3 C0.67 2.01 0.34 1.02 0 0 Z " fill="#FFFFFF" transform="translate(804,966)"/>
<path d="M0 0 C1.65 0 3.3 0 5 0 C4.34 1.32 3.68 2.64 3 4 C2.01 4 1.02 4 0 4 C0 2.68 0 1.36 0 0 Z " fill="#FFFFFF" transform="translate(406,951)"/>
<path d="M0 0 C1.32 0 2.64 0 4 0 C4 1.65 4 3.3 4 5 C2.68 4.34 1.36 3.68 0 3 C0 2.01 0 1.02 0 0 Z " fill="#FFFFFF" transform="translate(763,943)"/>
<path d="M0 0 C1.65 0 3.3 0 5 0 C5 1.32 5 2.64 5 4 C3.0625 3.6875 3.0625 3.6875 1 3 C0.67 2.01 0.34 1.02 0 0 Z " fill="#FFFFFF" transform="translate(740,932)"/>
<path d="M0 0 C1.32 0 2.64 0 4 0 C3.6875 1.9375 3.6875 1.9375 3 4 C2.01 4.33 1.02 4.66 0 5 C0 3.35 0 1.7 0 0 Z " fill="#FFFFFF" transform="translate(478,913)"/>
<path d="M0 0 C1.65 0 3.3 0 5 0 C5 1.32 5 2.64 5 4 C3.0625 3.6875 3.0625 3.6875 1 3 C0.67 2.01 0.34 1.02 0 0 Z " fill="#FFFFFF" transform="translate(988,579)"/>
<path d="M0 0 C1.65 0 3.3 0 5 0 C5 1.32 5 2.64 5 4 C3.0625 3.6875 3.0625 3.6875 1 3 C0.67 2.01 0.34 1.02 0 0 Z " fill="#FFFFFF" transform="translate(744,433)"/>
<path d="M0 0 C1.65 0 3.3 0 5 0 C4.34 1.32 3.68 2.64 3 4 C2.01 4 1.02 4 0 4 C0 2.68 0 1.36 0 0 Z " fill="#FFFFFF" transform="translate(455,433)"/>
<path d="M0 0 C1.65 0 3.3 0 5 0 C5 2 5 2 3.625 3.625 C2 5 2 5 0 5 C0 3.35 0 1.7 0 0 Z " fill="#FFFFFF" transform="translate(470,425)"/>
<path d="M0 0 C1.65 0 3.3 0 5 0 C5 1.32 5 2.64 5 4 C3.0625 3.6875 3.0625 3.6875 1 3 C0.67 2.01 0.34 1.02 0 0 Z " fill="#FFFFFF" transform="translate(714,414)"/>
<path d="M0 0 C1.65 0 3.3 0 5 0 C4.34 1.32 3.68 2.64 3 4 C2.01 4 1.02 4 0 4 C0 2.68 0 1.36 0 0 Z " fill="#FFFFFF" transform="translate(496,410)"/>
<path d="M0 0 C1.32 0 2.64 0 4 0 C4 1.65 4 3.3 4 5 C2.68 4.34 1.36 3.68 0 3 C0 2.01 0 1.02 0 0 Z " fill="#FFFFFF" transform="translate(703,406)"/>
<path d="M0 0 C1.65 0 3.3 0 5 0 C5 1.32 5 2.64 5 4 C3.0625 3.6875 3.0625 3.6875 1 3 C0.67 2.01 0.34 1.02 0 0 Z " fill="#FFFFFF" transform="translate(684,395)"/>
<path d="M0 0 C1.32 0 2.64 0 4 0 C4 1.32 4 2.64 4 4 C2.68 4 1.36 4 0 4 C0 2.68 0 1.36 0 0 Z " fill="#FFFFFF" transform="translate(1101,643)"/>
<path d="M0 0 C1.32 0 2.64 0 4 0 C4 1.32 4 2.64 4 4 C2.68 4 1.36 4 0 4 C0 2.68 0 1.36 0 0 Z " fill="#FFFFFF" transform="translate(936,549)"/>
<path d="M0 0 C1.32 0 2.64 0 4 0 C4 1.32 4 2.64 4 4 C2.68 4 1.36 4 0 4 C0 2.68 0 1.36 0 0 Z " fill="#FFFFFF" transform="translate(834,474)"/>
<path d="M0 0 C1.32 0 2.64 0 4 0 C4 0.99 4 1.98 4 3 C3.34 3 2.68 3 2 3 C2 3.66 2 4.32 2 5 C1.34 5 0.68 5 0 5 C0 3.35 0 1.7 0 0 Z " fill="#FFFFFF" transform="translate(842,466)"/>
<path d="M0 0 C1.32 0 2.64 0 4 0 C4 1.32 4 2.64 4 4 C2.68 4 1.36 4 0 4 C0 2.68 0 1.36 0 0 Z " fill="#FFFFFF" transform="translate(786,459)"/>
<path d="M0 0 C1.32 0 2.64 0 4 0 C4 1.32 4 2.64 4 4 C2.68 4 1.36 4 0 4 C0 2.68 0 1.36 0 0 Z " fill="#FFFFFF" transform="translate(763,444)"/>
<path d="M0 0 C1.32 0 2.64 0 4 0 C4 1.32 4 2.64 4 4 C2.68 4 1.36 4 0 4 C0 2.68 0 1.36 0 0 Z " fill="#FFFFFF" transform="translate(722,418)"/>
<path d="M0 0 C1.32 0 2.64 0 4 0 C4 1.32 4 2.64 4 4 C2.68 4 1.36 4 0 4 C0 2.68 0 1.36 0 0 Z " fill="#FFFFFF" transform="translate(681,335)"/>
<path d="M0 0 C1.32 0 2.64 0 4 0 C4 1.32 4 2.64 4 4 C2.68 4 1.36 4 0 4 C0 2.68 0 1.36 0 0 Z " fill="#FFFFFF" transform="translate(639,114)"/>
<path d="M0 0 C1.32 0 2.64 0 4 0 C4 1.32 4 2.64 4 4 C2.68 4 1.36 4 0 4 C0 2.68 0 1.36 0 0 Z " fill="#FFFFFF" transform="translate(624,91)"/>
<path d="M0 0 C1.32 0 2.64 0 4 0 C4 1.32 4 2.64 4 4 C2.68 3.67 1.36 3.34 0 3 C0 2.01 0 1.02 0 0 Z " fill="#FFFFFF" transform="translate(778,951)"/>
<path d="M0 0 C1.32 0 2.64 0 4 0 C4 0.99 4 1.98 4 3 C2.02 3.99 2.02 3.99 0 5 C0 3.35 0 1.7 0 0 Z " fill="#FFFFFF" transform="translate(429,939)"/>
<path d="M0 0 C1.65 0 3.3 0 5 0 C5 0.66 5 1.32 5 2 C3.35 2.66 1.7 3.32 0 4 C0 2.68 0 1.36 0 0 Z " fill="#FFFFFF" transform="translate(436,936)"/>
<path d="M0 0 C1.32 0 2.64 0 4 0 C4 1.65 4 3.3 4 5 C3.34 5 2.68 5 2 5 C1.34 3.35 0.68 1.7 0 0 Z " fill="#FFFFFF" transform="translate(733,928)"/>
<path d="M0 0 C1.32 0 2.64 0 4 0 C3.67 1.32 3.34 2.64 3 4 C2.01 4 1.02 4 0 4 C0 2.68 0 1.36 0 0 Z " fill="#FFFFFF" transform="translate(463,921)"/>
<path d="M0 0 C1.65 0 3.3 0 5 0 C5 1.32 5 2.64 5 4 C2.525 3.01 2.525 3.01 0 2 C0 1.34 0 0.68 0 0 Z " fill="#FFFFFF" transform="translate(710,917)"/>
<path d="M0 0 C1.65 0 3.3 0 5 0 C5 0.66 5 1.32 5 2 C3.35 2.66 1.7 3.32 0 4 C0 2.68 0 1.36 0 0 Z " fill="#FFFFFF" transform="translate(500,902)"/>
<path d="M0 0 C1.32 0 2.64 0 4 0 C3.67 1.32 3.34 2.64 3 4 C2.01 4 1.02 4 0 4 C0 2.68 0 1.36 0 0 Z " fill="#FFFFFF" transform="translate(88,643)"/>
<path d="M0 0 C1.32 0 2.64 0 4 0 C4 0.99 4 1.98 4 3 C2.02 3.99 2.02 3.99 0 5 C0 3.35 0 1.7 0 0 Z " fill="#FFFFFF" transform="translate(99,635)"/>
<path d="M0 0 C1.65 0 3.3 0 5 0 C5 1.32 5 2.64 5 4 C2.525 3.01 2.525 3.01 0 2 C0 1.34 0 0.68 0 0 Z " fill="#FFFFFF" transform="translate(1048,613)"/>
<path d="M0 0 C1.32 0 2.64 0 4 0 C3.67 1.32 3.34 2.64 3 4 C2.01 4 1.02 4 0 4 C0 2.68 0 1.36 0 0 Z " fill="#FFFFFF" transform="translate(136,613)"/>
<path d="M0 0 C1.32 0 2.64 0 4 0 C4 1.32 4 2.64 4 4 C2.68 3.67 1.36 3.34 0 3 C0 2.01 0 1.02 0 0 Z " fill="#FFFFFF" transform="translate(1030,602)"/>
<path d="M0 0 C1.32 0 2.64 0 4 0 C3.67 1.32 3.34 2.64 3 4 C2.01 4 1.02 4 0 4 C0 2.68 0 1.36 0 0 Z " fill="#FFFFFF" transform="translate(170,594)"/>
<path d="M0 0 C1.32 0 2.64 0 4 0 C4 1.32 4 2.64 4 4 C2.68 3.67 1.36 3.34 0 3 C0 2.01 0 1.02 0 0 Z " fill="#FFFFFF" transform="translate(996,583)"/>
<path d="M0 0 C1.32 0 2.64 0 4 0 C4 0.99 4 1.98 4 3 C2.02 3.99 2.02 3.99 0 5 C0 3.35 0 1.7 0 0 Z " fill="#FFFFFF" transform="translate(204,575)"/>
<path d="M0 0 C1.32 0 2.64 0 4 0 C4 1.32 4 2.64 4 4 C2.68 3.67 1.36 3.34 0 3 C0 2.01 0 1.02 0 0 Z " fill="#FFFFFF" transform="translate(962,564)"/>
<path d="M0 0 C1.65 0 3.3 0 5 0 C5 0.66 5 1.32 5 2 C3.35 2.66 1.7 3.32 0 4 C0 2.68 0 1.36 0 0 Z " fill="#FFFFFF" transform="translate(376,478)"/>
<path d="M0 0 C1.32 0 2.64 0 4 0 C3.67 1.32 3.34 2.64 3 4 C2.01 4 1.02 4 0 4 C0 2.68 0 1.36 0 0 Z " fill="#FFFFFF" transform="translate(429,448)"/>
<path d="M0 0 C1.65 0 3.3 0 5 0 C5 0.66 5 1.32 5 2 C3.35 2.66 1.7 3.32 0 4 C0 2.68 0 1.36 0 0 Z " fill="#FFFFFF" transform="translate(436,444)"/>
<path d="M0 0 C1.32 0 2.64 0 4 0 C3.67 1.32 3.34 2.64 3 4 C2.01 4 1.02 4 0 4 C0 2.68 0 1.36 0 0 Z " fill="#FFFFFF" transform="translate(489,414)"/>
<path d="M0 0 C1.32 0 2.64 0 4 0 C4 1.32 4 2.64 4 4 C2.68 3.67 1.36 3.34 0 3 C0 2.01 0 1.02 0 0 Z " fill="#FFFFFF" transform="translate(692,399)"/>
<path d="M0 0 C1.32 0 2.64 0 4 0 C4 0.99 4 1.98 4 3 C2.68 3.33 1.36 3.66 0 4 C0 2.68 0 1.36 0 0 Z " fill="#FFFFFF" transform="translate(414,947)"/>
<path d="M0 0 C1.32 0 2.64 0 4 0 C4 1.65 4 3.3 4 5 C2 3.625 2 3.625 0 2 C0 1.34 0 0.68 0 0 Z " fill="#FFFFFF" transform="translate(703,913)"/>
<path d="M0 0 C1.65 0 3.3 0 5 0 C5 0.66 5 1.32 5 2 C3.35 2.66 1.7 3.32 0 4 C0 2.68 0 1.36 0 0 Z " fill="#FFFFFF" transform="translate(515,894)"/>
<path d="M0 0 C1.32 0 2.64 0 4 0 C4 1.32 4 2.64 4 4 C2.68 3.34 1.36 2.68 0 2 C0 1.34 0 0.68 0 0 Z " fill="#FFFFFF" transform="translate(718,921)"/>
<path d="M0 0 C1.32 0 2.64 0 4 0 C4 1.32 4 2.64 4 4 C2.68 3.34 1.36 2.68 0 2 C0 1.34 0 0.68 0 0 Z " fill="#FFFFFF" transform="translate(1056,617)"/>
<path d="M0 0 C1.32 0 2.64 0 4 0 C3.34 1.32 2.68 2.64 2 4 C1.34 4 0.68 4 0 4 C0 2.68 0 1.36 0 0 Z " fill="#FFFFFF" transform="translate(144,609)"/>
<path d="M0 0 C1.32 0 2.64 0 4 0 C3.34 1.32 2.68 2.64 2 4 C1.34 4 0.68 4 0 4 C0 2.68 0 1.36 0 0 Z " fill="#FFFFFF" transform="translate(245,553)"/>
<path d="M0 0 C1.32 0 2.64 0 4 0 C4 1.32 4 2.64 4 4 C2.68 3.34 1.36 2.68 0 2 C0 1.34 0 0.68 0 0 Z " fill="#FFFFFF" transform="translate(808,474)"/>
<path d="M0 0 C1.32 0 2.64 0 4 0 C3.34 1.32 2.68 2.64 2 4 C1.34 4 0.68 4 0 4 C0 2.68 0 1.36 0 0 Z " fill="#FFFFFF" transform="translate(384,474)"/>
<path d="M0 0 C1.32 0 2.64 0 4 0 C4 1.32 4 2.64 4 4 C2.68 3.34 1.36 2.68 0 2 C0 1.34 0 0.68 0 0 Z " fill="#FFFFFF" transform="translate(767,448)"/>
<path d="M0 0 C1.32 0 2.64 0 4 0 C3.34 1.32 2.68 2.64 2 4 C1.34 4 0.68 4 0 4 C0 2.68 0 1.36 0 0 Z " fill="#FFFFFF" transform="translate(463,429)"/>
<path d="M0 0 C1.32 0 2.64 0 4 0 C4 1.32 4 2.64 4 4 C2.68 3.34 1.36 2.68 0 2 C0 1.34 0 0.68 0 0 Z " fill="#FFFFFF" transform="translate(613,84)"/>
<path d="M0 0 C0.99 0 1.98 0 3 0 C3 1.32 3 2.64 3 4 C2.01 4 1.02 4 0 4 C0 2.68 0 1.36 0 0 Z " fill="#FFFFFF" transform="translate(264,474)"/>
<path d="M0 0 C0.99 0 1.98 0 3 0 C3 1.32 3 2.64 3 4 C2.01 4 1.02 4 0 4 C0 2.68 0 1.36 0 0 Z " fill="#FFFFFF" transform="translate(500,350)"/>
<path d="M0 0 C0.99 0 1.98 0 3 0 C3 1.32 3 2.64 3 4 C2.01 4 1.02 4 0 4 C0 2.68 0 1.36 0 0 Z " fill="#FFFFFF" transform="translate(652,136)"/>
<path d="M0 0 C0.99 0 1.98 0 3 0 C3 1.32 3 2.64 3 4 C2.01 4 1.02 4 0 4 C0 2.68 0 1.36 0 0 Z " fill="#FFFFFF" transform="translate(538,125)"/>
<path d="M0 0 C0.99 0 1.98 0 3 0 C3 1.32 3 2.64 3 4 C2.01 4 1.02 4 0 4 C0 2.68 0 1.36 0 0 Z " fill="#FFFFFF" transform="translate(644,121)"/>
<path d="M0 0 C1.32 0 2.64 0 4 0 C4 0.66 4 1.32 4 2 C2.02 2.99 2.02 2.99 0 4 C0 2.68 0 1.36 0 0 Z " fill="#FFFFFF" transform="translate(444,932)"/>
<path d="M0 0 C1.32 0 2.64 0 4 0 C4 0.66 4 1.32 4 2 C2.02 2.99 2.02 2.99 0 4 C0 2.68 0 1.36 0 0 Z " fill="#FFFFFF" transform="translate(493,906)"/>
<path d="M0 0 C1.32 0 2.64 0 4 0 C4 0.66 4 1.32 4 2 C2.02 2.99 2.02 2.99 0 4 C0 2.68 0 1.36 0 0 Z " fill="#FFFFFF" transform="translate(185,587)"/>
<path d="M0 0 C1.32 0 2.64 0 4 0 C4 0.66 4 1.32 4 2 C2.02 2.99 2.02 2.99 0 4 C0 2.68 0 1.36 0 0 Z " fill="#FFFFFF" transform="translate(403,463)"/>
<path d="M0 0 C1.32 0 2.64 0 4 0 C4 0.66 4 1.32 4 2 C2.02 2.99 2.02 2.99 0 4 C0 2.68 0 1.36 0 0 Z " fill="#FFFFFF" transform="translate(410,459)"/>
<path d="M0 0 C0.99 0 1.98 0 3 0 C2.67 1.32 2.34 2.64 2 4 C1.34 4 0.68 4 0 4 C0 2.68 0 1.36 0 0 Z " fill="#FFFFFF" transform="translate(572,84)"/>
<path d="M0 0 C0.66 0 1.32 0 2 0 C2 1.32 2 2.64 2 4 C1.34 4 0.68 4 0 4 C0 2.68 0 1.36 0 0 Z " fill="#FFFFFF" transform="translate(519,752)"/>
<path d="M0 0 C0.66 0 1.32 0 2 0 C2 1.32 2 2.64 2 4 C1.34 4 0.68 4 0 4 C0 2.68 0 1.36 0 0 Z " fill="#FFFFFF" transform="translate(649,129)"/>
</svg>
