<svg width="133" height="114" viewBox="0 0 133 114" fill="none" xmlns="http://www.w3.org/2000/svg">
<path d="M1.15312 71.582L28.6922 38.9648L1.15312 6.44531L9.06328 0L40.9969 38.9648L9.06328 77.9297L1.15312 71.582Z" fill="white"/>
<path d="M46.9539 71.582L74.493 38.9648L46.9539 6.44531L54.8641 0L86.7977 38.9648L54.8641 77.9297L46.9539 71.582Z" fill="white"/>
<path d="M92.7547 71.582L120.294 38.9648L92.7547 6.44531L100.665 0L132.598 38.9648L100.665 77.9297L92.7547 71.582Z" fill="white"/>
<path d="M0 108.648V106.868H16.32V108.648H9.16V109.068H15.98V111.548C15.28 111.728 4.3 112.268 2.14 112.208V112.388H16.36V113.748H0.14V110.928C5.46 110.928 12.96 110.688 13.98 110.508V110.308L0.38 110.488V109.068H7.16V108.648H0ZM0.4 106.388V102.388H2.4V104.668H15.72V106.388H0.4Z" fill="white"/>
<path d="M32.2887 113.728V113.528H18.3687V107.048H27.9488V104.528H18.5888V102.608H29.9488V108.968H20.3687V111.608H32.2887V105.428H30.5688V103.528H32.2887V102.388H34.2887V113.728H32.2887Z" fill="white"/>
<path d="M35.4891 111.768C38.6691 110.508 40.2091 108.228 40.7891 106.248V102.608H42.7891L42.7691 106.248C43.3491 108.228 44.8891 110.508 48.0691 111.768L47.3891 113.488C44.5891 112.388 42.7891 110.508 41.7891 108.648C40.7691 110.508 38.9691 112.388 36.1691 113.488L35.4891 111.768ZM46.9291 104.688V102.788H49.8891V102.388H51.8891V113.728H49.8891V104.688H46.9291Z" fill="white"/>
<path d="M59.3667 113.728V109.108H72.5267V102.388H74.5267V102.788H76.6267V104.688H74.5267V113.728H59.3667ZM58.6867 106.588C61.6067 106.008 63.1867 105.428 63.8867 105.028V104.388H59.0067V102.608H70.7267V104.388H65.8867V104.948C66.6267 105.288 68.2267 105.788 71.0667 106.328L70.7067 108.168C67.9267 107.628 66.1467 107.088 64.9667 106.508C64.0067 107.108 62.1267 107.808 59.0467 108.428L58.6867 106.588ZM61.3667 111.868H72.5267V110.968H61.3667V111.868Z" fill="white"/>
<path d="M77.6172 108.948V107.168H93.9372V108.948H77.6172ZM77.9972 113.728V109.508H93.3572V113.728H77.9972ZM78.0172 104.308V102.388H93.3572V106.648H91.3572V104.308H78.0172ZM79.9972 111.928H91.3772V111.308H79.9972V111.928Z" fill="white"/>
<path d="M101.387 111.708C104.247 111.708 104.747 111.028 104.747 109.628C104.747 108.208 104.247 107.528 101.387 107.528C98.4869 107.528 97.9469 108.228 97.9469 109.628C97.9469 111.008 98.4869 111.708 101.387 111.708ZM95.9469 109.628C95.9469 107.488 97.3069 105.648 101.387 105.648C105.447 105.648 106.747 107.508 106.747 109.628C106.747 111.728 105.447 113.588 101.387 113.588C97.3069 113.588 95.9469 111.748 95.9469 109.628ZM96.2669 105.148V103.248H100.347V102.248H102.327V103.248H106.427V105.148H96.2669ZM107.587 113.728V102.388H109.587V103.508H110.327V102.388H112.327V113.728H110.327V105.428H109.587V113.728H107.587Z" fill="white"/>
<path d="M128.496 113.728V102.388H130.496V113.728H128.496ZM113.936 111.628C116.676 110.388 118.016 108.088 118.496 106.068V104.528H114.556V102.608H124.416V104.048H125.696V102.388H127.696V113.728H125.696V105.968H123.176V104.528H120.476V106.068C120.896 107.888 122.156 109.968 124.896 111.228L124.136 112.908C121.856 111.868 120.356 110.248 119.496 108.648C118.596 110.428 117.056 112.228 114.696 113.308L113.936 111.628Z" fill="white"/>
</svg>
