<?xml version="1.0" standalone="no"?>
<!DOCTYPE svg PUBLIC "-//W3C//DTD SVG 20010904//EN"
 "http://www.w3.org/TR/2001/REC-SVG-20010904/DTD/svg10.dtd">
<svg version="1.0" xmlns="http://www.w3.org/2000/svg"
 width="740.000000pt" height="495.000000pt" viewBox="0 0 740.000000 495.000000"
 preserveAspectRatio="xMidYMid meet">

<g transform="translate(0.000000,495.000000) scale(0.100000,-0.100000)"
fill="#000000" stroke="none">
<path d="M3364 4001 c-172 -31 -340 -94 -462 -174 -76 -50 -393 -367 -489
-489 -118 -149 -184 -303 -222 -517 -62 -347 -17 -659 142 -964 79 -152 159
-257 294 -388 217 -209 474 -346 777 -411 145 -32 435 -31 583 0 284 61 537
195 723 381 149 150 222 279 353 626 76 204 100 327 101 525 0 132 -3 157 -32
270 -67 259 -242 543 -469 761 -198 189 -428 309 -711 370 -141 30 -448 36
-588 10z"/>
</g>
</svg>
