<svg width="176" height="37" viewBox="0 0 176 37" fill="none" xmlns="http://www.w3.org/2000/svg">
<g clip-path="url(#clip0_107_137)">
<rect width="176" height="37" rx="10" fill="#FFE0C2" fill-opacity="0.1"/>
<path d="M27.589 15.95V14.69H39.079V17.735H37.579V17.48H27.739V16.22H37.579V15.95H27.589ZM27.289 19.28V17.96H39.529V19.28H27.289ZM27.394 23.195V21.05C31.384 21.05 37.159 20.855 37.924 20.72V20.57L27.574 20.705V19.625H39.424V21.515C38.899 21.65 30.514 22.07 28.894 22.025V22.16H39.664V23.195H27.394ZM53.1231 20.195V23.18H51.6081V21.635H41.5881V20.195H51.6081V14.675H53.1081V20.195H53.1231ZM41.1681 19.595V16.55H48.9531V16.19H41.2881V14.84H50.4531V17.885H42.6681V18.23H50.6781V19.595H41.1681ZM54.3229 21.71C56.7079 20.765 57.8629 19.055 58.2979 17.57V14.84H59.7979L59.7829 17.57C60.2179 19.055 61.3729 20.765 63.7579 21.71L63.2479 23C61.1479 22.175 59.7979 20.765 59.0479 19.37C58.2829 20.765 56.9329 22.175 54.8329 23L54.3229 21.71ZM65.1229 23.18V14.675H66.6229V23.18H65.1229ZM74.2488 14.675H75.7638V23.03H74.2488V16.28L72.2688 18.05L71.4288 16.94L74.2488 14.675ZM87.9609 18.935V14.675H89.4609V18.935H87.9609ZM77.2659 16.835C77.2659 15.575 78.6459 14.63 82.2009 14.63C85.7559 14.63 87.1509 15.575 87.1509 16.835C87.1509 18.11 85.7559 19.04 82.2009 19.04C78.6459 19.04 77.2659 18.11 77.2659 16.835ZM77.7309 23.18V20.915C81.5259 20.915 87.2409 20.72 87.9609 20.57V20.45L77.8959 20.585V19.46H89.4609V21.455C88.9659 21.59 80.7759 22.025 79.2309 21.98V22.1H89.6109V23.18H77.7309ZM78.7659 16.835C78.7659 17.255 79.3959 17.6 82.2009 17.6C85.0209 17.6 85.6509 17.24 85.6509 16.835C85.6509 16.43 85.0059 16.07 82.2009 16.07C79.3959 16.07 78.7659 16.43 78.7659 16.835ZM101.207 23.18V14.675H102.707V14.975H104.282V16.4H102.707V23.18H101.207ZM90.8122 21.71C93.1072 20.765 94.2172 19.055 94.6222 17.57V16.835H91.2322V15.395H94.6222V14.54H96.1222V15.395H99.5272V16.835H96.1222V17.555C96.5122 18.905 97.6372 20.465 99.9322 21.41L99.3922 22.7C97.4272 21.905 96.1522 20.615 95.4022 19.355C94.6822 20.75 93.3772 22.175 91.3522 23L90.8122 21.71ZM105.433 16.28V14.84H116.653V18.425H106.813V19.13H116.848V20.57H111.928V21.44H117.268V22.88H105.028V21.44H110.428V20.57H105.313V16.985H115.153V16.28H105.433ZM126.815 18.515C129.41 18.515 130.055 18.02 130.055 17.285C130.055 16.58 129.41 16.07 126.815 16.07C124.205 16.07 123.575 16.58 123.575 17.285C123.575 18.02 124.205 18.515 126.815 18.515ZM122.075 17.285C122.075 15.77 123.545 14.63 126.815 14.63C127.895 14.63 128.765 14.75 129.47 14.975H132.77V14.675H134.27V21.02H132.77V18.68H131.03C130.355 19.46 128.975 19.955 126.815 19.955C123.545 19.955 122.075 18.83 122.075 17.285ZM123.05 23.18V20.27H124.55V21.74H134.525V23.18H123.05ZM131.375 16.415C131.495 16.67 131.555 16.955 131.555 17.255H132.77V16.415H131.375ZM146.764 18.83V18.38H145.609V18.695H144.109V16.28H136.324V14.84H145.609V14.975H146.764V14.675H148.264V18.83H146.764ZM136.534 23.18V20.765C140.329 20.765 146.044 20.555 146.764 20.405V20.24L136.699 20.39V19.16H148.264V21.275C147.769 21.44 139.579 21.905 138.034 21.845V22.01H148.414V23.18H136.534ZM145.609 16.955H146.764V16.415H145.609V16.955Z" fill="white"/>
</g>
<defs>
<clipPath id="clip0_107_137">
<rect width="176" height="37" rx="10" fill="white"/>
</clipPath>
</defs>
</svg>
