<svg width="823" height="421" viewBox="0 0 823 421" fill="none" xmlns="http://www.w3.org/2000/svg">
<g clip-path="url(#clip0_97_105)">
<rect width="823" height="421" rx="50" fill="#FFE0C2"/>
<path d="M764 6.5C792.443 6.5 815.5 29.5573 815.5 58V363C815.5 391.443 792.443 414.5 764 414.5H59C30.5573 414.5 7.5 391.443 7.5 363V58C7.5 29.5573 30.5573 6.5 59 6.5H764Z" stroke="black" stroke-width="3"/>
<path d="M70.4 76.1C83.075 76.1 87.05 70.85 87.05 62.45C87.05 54.05 83.075 48.725 70.4 48.725C57.65 48.725 53.75 54.05 53.75 62.45C53.75 70.85 57.65 76.1 70.4 76.1ZM46.25 62.45C46.25 51.275 53.225 41.525 70.4 41.525C77.3 41.525 82.55 43.1 86.375 45.725V45.65H100.4V41.375H107.9V83.9H100.4V63.425H94.55C94.1 74.15 86.9 83.3 70.4 83.3C53.3 83.3 46.25 73.625 46.25 62.45ZM92.45 52.775C92.975 53.9 93.425 55.1 93.725 56.3H100.4V52.775H92.45ZM170.533 75.575C170.533 74.45 167.758 73.175 148.783 73.175C129.808 73.175 126.958 74.45 126.958 75.575C126.958 76.625 129.808 77.9 148.783 77.9C167.758 77.9 170.533 76.625 170.533 75.575ZM116.908 57.2C116.908 52.85 121.933 50.15 137.608 50.15C153.058 50.15 158.008 52.85 158.008 57.2C158.008 61.625 153.058 64.325 137.608 64.325C121.933 64.325 116.908 61.625 116.908 57.2ZM117.883 48.875V42.5H133.783V40.625H141.208V42.5H157.108V48.875H117.883ZM119.458 75.575C119.458 69.425 126.058 65.975 148.783 65.975C159.058 65.975 166.033 66.725 170.533 68.075V52.775H167.758V63.95H160.258V41.375H167.758V45.65H170.533V41.375H178.033V75.575C178.033 81.65 171.508 85.1 148.783 85.1C126.058 85.1 119.458 81.65 119.458 75.575ZM124.408 57.2C124.408 57.725 125.458 58.175 137.608 58.175C149.608 58.175 150.508 57.725 150.508 57.2C150.508 56.75 149.608 56.3 137.608 56.3C125.458 56.3 124.408 56.75 124.408 57.2ZM205.676 76.1C215.351 76.1 218.426 71 218.426 62.45C218.426 53.9 215.351 48.725 205.676 48.725C196.001 48.725 193.001 53.9 193.001 62.45C193.001 71 196.001 76.1 205.676 76.1ZM185.501 62.45C185.501 51.425 191.351 41.525 205.676 41.525C211.376 41.525 215.726 43.1 218.951 45.65H230.651V41.375H238.151V83.9H230.651V52.85H224.201C225.401 55.775 225.926 59.075 225.926 62.45C225.926 73.475 220.076 83.3 205.676 83.3C191.276 83.3 185.501 73.475 185.501 62.45ZM241.151 83.9V41.375H248.651V83.9H241.151ZM276.13 49.325V42.125H321.055V58.025H313.555V49.325H276.13ZM274.18 67.7V60.95H295.03V54.575H302.53V60.95H326.38V41.3H333.88V42.875H340.255V50H333.88V73.175H326.38V67.7H274.18ZM277.03 83.9V70.325H284.53V76.7H335.305V83.9H277.03ZM346.247 83.9V71.375H353.747V76.7H403.697V83.9H346.247ZM343.247 59.375C343.247 54.05 349.097 50.75 367.547 50.75C386.147 50.75 391.622 54.2 391.622 59.375C391.622 64.55 386.147 68 367.547 68C349.097 68 343.247 64.7 343.247 59.375ZM344.222 49.4V42.8H363.722V40.625H371.147V42.8H390.572V49.4H344.222ZM350.747 59.375C350.747 60.575 352.697 61.55 367.547 61.55C382.397 61.55 384.122 60.65 384.122 59.375C384.122 58.1 382.397 57.2 367.547 57.2C352.697 57.2 350.747 58.175 350.747 59.375ZM394.847 73.1V41.375H402.347V42.875H410.222V50H402.347V73.1H394.847ZM456.093 76.1C468.768 76.1 472.743 70.85 472.743 62.45C472.743 54.05 468.768 48.725 456.093 48.725C443.343 48.725 439.443 54.05 439.443 62.45C439.443 70.85 443.343 76.1 456.093 76.1ZM431.943 62.45C431.943 51.275 438.918 41.525 456.093 41.525C462.993 41.525 468.243 43.1 472.068 45.725V45.65H486.093V41.375H493.593V83.9H486.093V63.425H480.243C479.793 74.15 472.593 83.3 456.093 83.3C438.993 83.3 431.943 73.625 431.943 62.45ZM478.143 52.775C478.668 53.9 479.118 55.1 479.418 56.3H486.093V52.775H478.143ZM500.352 63.875V42.2H546.102V49.4H507.852V56.675H547.752V63.875H500.352ZM501.702 83.9V66.575H551.052V41.375H558.552V42.875H566.427V50H558.552V83.9H501.702ZM509.202 76.925H551.052V73.55H509.202V76.925Z" fill="black"/>
<path d="M54.89 144.49C54.91 144.95 54.94 145.49 54.98 146.11C55.04 146.71 55.09 147.34 55.13 148C55.19 148.66 55.24 149.32 55.28 149.98C55.34 150.62 55.39 151.22 55.43 151.78H52.73L53.21 144.49L47.15 148.6L45.86 146.26L52.49 143.08C52.07 142.88 51.58 142.65 51.02 142.39C50.48 142.13 49.91 141.86 49.31 141.58C48.71 141.28 48.11 140.98 47.51 140.68C46.91 140.38 46.36 140.11 45.86 139.87L47.18 137.59L53.27 141.73L52.73 134.32H55.43L54.92 141.7L60.98 137.59C61.26 138.11 61.49 138.53 61.67 138.85C61.87 139.15 62.08 139.49 62.3 139.87L55.58 143.11C56 143.31 56.49 143.55 57.05 143.83C57.61 144.09 58.19 144.37 58.79 144.67C59.41 144.95 60.03 145.24 60.65 145.54C61.27 145.82 61.84 146.08 62.36 146.32C62.06 146.84 61.81 147.26 61.61 147.58C61.43 147.88 61.23 148.22 61.01 148.6L54.89 144.49ZM86.7106 136.03H88.8106V161.11H86.7106V148.45H82.1206V161.11H80.0206V136.03H82.1206V146.47H86.7106V136.03ZM68.4706 158.83H77.3806V160.81H66.3706V136.36H76.6606V138.34H68.4706V158.83ZM116.332 150.28H105.232V153.1C106.792 153.1 108.042 153.11 108.982 153.13C110.902 153.13 112.322 153.51 113.242 154.27C114.162 155.01 114.622 156.08 114.622 157.48C114.622 158.82 114.142 159.85 113.182 160.57C112.242 161.31 110.852 161.71 109.012 161.77H108.172C106.212 161.81 104.882 161.83 104.182 161.83L100.252 161.8C100.072 161.78 99.7723 161.77 99.3523 161.77C97.5323 161.71 96.1423 161.31 95.1823 160.57C94.2423 159.85 93.7723 158.82 93.7723 157.48C93.7723 154.64 95.6523 153.19 99.4123 153.13C100.352 153.11 101.592 153.1 103.132 153.1V150.28H92.0923V148.3H116.332V150.28ZM114.922 146.92H111.832L104.572 140.53H103.822L96.6523 146.92H93.5023L100.732 140.53H94.3123V138.55H102.952L104.632 135.58H107.032L105.502 138.55H114.112V140.53H107.692L114.922 146.92ZM104.212 159.82L108.802 159.79C110.202 159.75 111.172 159.56 111.712 159.22C112.252 158.9 112.522 158.33 112.522 157.51C112.522 156.65 112.262 156.04 111.742 155.68C111.222 155.32 110.232 155.14 108.772 155.14C107.832 155.12 106.312 155.11 104.212 155.11C102.092 155.11 100.562 155.12 99.6223 155.14C98.6223 155.14 97.8523 155.23 97.3123 155.41C96.7723 155.57 96.3923 155.82 96.1723 156.16C95.9723 156.48 95.8723 156.93 95.8723 157.51C95.8723 158.33 96.1423 158.9 96.6823 159.22C97.2223 159.56 98.1923 159.75 99.5923 159.79L104.212 159.82ZM140.694 139.33C140.954 139.99 141.064 140.71 141.024 141.49C140.924 143.07 140.804 144.53 140.664 145.87C140.544 147.19 140.404 148.47 140.244 149.71C140.104 150.93 139.944 152.13 139.764 153.31C139.604 154.47 139.434 155.68 139.254 156.94C139.094 157.78 138.794 158.47 138.354 159.01C137.934 159.55 137.424 159.97 136.824 160.27C136.224 160.57 135.574 160.78 134.874 160.9C134.194 161.02 133.524 161.08 132.864 161.08C131.704 161.08 130.694 160.93 129.834 160.63C128.994 160.33 128.304 159.9 127.764 159.34C127.224 158.8 126.844 158.15 126.624 157.39C126.404 156.63 126.354 155.78 126.474 154.84C126.714 152.52 126.964 150.24 127.224 148C127.484 145.74 127.754 143.39 128.034 140.95C128.174 139.97 128.474 139.17 128.934 138.55C129.394 137.91 129.934 137.4 130.554 137.02C131.194 136.64 131.884 136.38 132.624 136.24C133.364 136.08 134.094 136 134.814 136C135.874 136 136.794 136.14 137.574 136.42C138.374 136.7 139.034 137.09 139.554 137.59C140.074 138.07 140.454 138.65 140.694 139.33ZM136.734 157.45C137.054 156.97 137.264 156.31 137.364 155.47C137.644 153.43 137.904 151.32 138.144 149.14C138.404 146.96 138.644 144.57 138.864 141.97C138.924 141.13 138.844 140.45 138.624 139.93C138.404 139.41 138.094 139.01 137.694 138.73C137.294 138.43 136.834 138.23 136.314 138.13C135.794 138.03 135.254 137.98 134.694 137.98C134.254 137.98 133.784 138.03 133.284 138.13C132.784 138.21 132.314 138.4 131.874 138.7C131.434 138.98 131.044 139.39 130.704 139.93C130.364 140.47 130.134 141.19 130.014 142.09C129.834 143.39 129.674 144.6 129.534 145.72C129.414 146.82 129.294 147.89 129.174 148.93C129.074 149.97 128.974 151.01 128.874 152.05C128.794 153.07 128.714 154.13 128.634 155.23C128.574 156.01 128.654 156.65 128.874 157.15C129.114 157.67 129.434 158.07 129.834 158.35C130.234 158.63 130.694 158.82 131.214 158.92C131.754 159.04 132.294 159.1 132.834 159.1C133.274 159.1 133.734 159.06 134.214 158.98C134.694 158.92 135.154 158.77 135.594 158.53C136.034 158.29 136.414 157.93 136.734 157.45ZM146.304 136.03H148.404V161.11H146.304V136.03ZM152.795 150.28V148.3H162.665V141.97H164.765V148.3H177.035V150.28H152.795ZM174.875 136.15L174.035 145.63H171.815L172.505 138.13H154.595V136.15H174.875ZM173.165 161.74L167.165 155.02H163.565L157.085 161.74H154.085L162.425 153.04H168.155L176.015 161.74H173.165ZM178.401 151.39V149.41H202.641V151.39H178.401ZM200.691 161.74H180.771V153.88H182.871V159.76H200.691V161.74ZM181.611 144.76C180.751 143.84 180.321 142.66 180.321 141.22C180.321 139.78 180.751 138.6 181.611 137.68C182.491 136.76 183.751 136.23 185.391 136.09C186.131 136.03 186.931 135.99 187.791 135.97C188.671 135.93 189.551 135.91 190.431 135.91C191.311 135.91 192.181 135.93 193.041 135.97C193.921 135.99 194.731 136.03 195.471 136.09C197.131 136.23 198.391 136.76 199.251 137.68C200.131 138.6 200.571 139.78 200.571 141.22C200.571 142.66 200.131 143.84 199.251 144.76C198.391 145.68 197.131 146.21 195.471 146.35C194.731 146.41 193.921 146.46 193.041 146.5C192.181 146.52 191.311 146.53 190.431 146.53C189.551 146.53 188.671 146.52 187.791 146.5C186.931 146.46 186.131 146.41 185.391 146.35C183.751 146.21 182.491 145.68 181.611 144.76ZM183.141 139.09C182.661 139.67 182.421 140.38 182.421 141.22C182.421 142.06 182.661 142.77 183.141 143.35C183.641 143.93 184.431 144.27 185.511 144.37C186.211 144.43 186.991 144.48 187.851 144.52C188.711 144.56 189.581 144.58 190.461 144.58C191.361 144.58 192.231 144.57 193.071 144.55C193.931 144.51 194.711 144.45 195.411 144.37C196.491 144.25 197.271 143.91 197.751 143.35C198.231 142.77 198.471 142.06 198.471 141.22C198.471 140.38 198.231 139.68 197.751 139.12C197.271 138.54 196.491 138.19 195.411 138.07C194.711 137.99 193.931 137.93 193.071 137.89C192.231 137.85 191.361 137.84 190.461 137.86C189.581 137.86 188.711 137.88 187.851 137.92C186.991 137.96 186.211 138.01 185.511 138.07C184.431 138.17 183.641 138.51 183.141 139.09ZM232.612 136.03H234.712V161.11H232.612V154.18H225.742L225.352 156.94C225.192 157.78 224.902 158.47 224.482 159.01C224.062 159.55 223.562 159.97 222.982 160.27C222.402 160.57 221.772 160.78 221.092 160.9C220.412 161.02 219.742 161.08 219.082 161.08C217.922 161.08 216.922 160.93 216.082 160.63C215.242 160.33 214.552 159.9 214.012 159.34C213.492 158.8 213.122 158.15 212.902 157.39C212.702 156.63 212.662 155.78 212.782 154.84C213.022 152.52 213.272 150.24 213.532 148C213.792 145.74 214.062 143.39 214.342 140.95C214.482 139.97 214.772 139.17 215.212 138.55C215.672 137.91 216.212 137.4 216.832 137.02C217.452 136.64 218.122 136.38 218.842 136.24C219.582 136.08 220.312 136 221.032 136C222.092 136 223.012 136.14 223.792 136.42C224.572 136.7 225.212 137.09 225.712 137.59C226.232 138.07 226.602 138.65 226.822 139.33C227.062 139.99 227.162 140.71 227.122 141.49C227.102 141.57 227.092 141.65 227.092 141.73C227.092 141.79 227.092 141.85 227.092 141.91H232.612V136.03ZM222.832 157.45C223.152 156.97 223.362 156.31 223.462 155.47C223.742 153.43 224.002 151.32 224.242 149.14C224.502 146.96 224.742 144.57 224.962 141.97C225.022 141.13 224.942 140.45 224.722 139.93C224.522 139.41 224.232 139.01 223.852 138.73C223.472 138.43 223.022 138.23 222.502 138.13C222.002 138.03 221.472 137.98 220.912 137.98C220.472 137.98 220.002 138.03 219.502 138.13C219.022 138.21 218.562 138.4 218.122 138.7C217.702 138.98 217.322 139.39 216.982 139.93C216.662 140.47 216.442 141.19 216.322 142.09C216.142 143.39 215.982 144.6 215.842 145.72C215.722 146.82 215.602 147.89 215.482 148.93C215.382 149.97 215.282 151.01 215.182 152.05C215.102 153.07 215.022 154.13 214.942 155.23C214.882 156.01 214.962 156.65 215.182 157.15C215.402 157.67 215.702 158.07 216.082 158.35C216.482 158.63 216.942 158.82 217.462 158.92C217.982 159.04 218.512 159.1 219.052 159.1C219.492 159.1 219.942 159.06 220.402 158.98C220.882 158.92 221.332 158.77 221.752 158.53C222.172 158.29 222.532 157.93 222.832 157.45ZM232.612 152.2V143.89H226.942C226.822 145.45 226.682 146.9 226.522 148.24C226.382 149.58 226.222 150.9 226.042 152.2H232.612ZM247.054 161.74C245.274 161.68 243.914 161.23 242.974 160.39C242.054 159.55 241.594 158.44 241.594 157.06C241.594 155.62 242.034 154.48 242.914 153.64C243.814 152.78 245.214 152.34 247.114 152.32H247.804C249.884 152.28 251.344 152.26 252.184 152.26C253.124 152.26 254.814 152.28 257.254 152.32C259.134 152.32 260.514 152.75 261.394 153.61C262.294 154.47 262.744 155.62 262.744 157.06C262.744 158.44 262.284 159.55 261.364 160.39C260.444 161.23 259.084 161.68 257.284 161.74C254.844 161.78 253.144 161.8 252.184 161.8C251.244 161.8 249.534 161.78 247.054 161.74ZM243.814 150.64C242.394 150.6 241.314 150.18 240.574 149.38C239.854 148.58 239.494 147.59 239.494 146.41C239.494 145.19 239.844 144.19 240.544 143.41C241.244 142.63 242.354 142.23 243.874 142.21H247.264C248.784 142.21 249.894 142.61 250.594 143.41C251.294 144.19 251.644 145.19 251.644 146.41C251.644 147.59 251.274 148.58 250.534 149.38C249.814 150.18 248.744 150.6 247.324 150.64H243.814ZM252.184 159.79L257.074 159.76C258.414 159.72 259.344 159.48 259.864 159.04C260.384 158.6 260.644 157.95 260.644 157.09C260.644 156.17 260.394 155.48 259.894 155.02C259.394 154.56 258.444 154.33 257.044 154.33C256.104 154.31 254.484 154.3 252.184 154.3C249.884 154.3 248.264 154.31 247.324 154.33C245.924 154.35 244.964 154.59 244.444 155.05C243.944 155.49 243.694 156.17 243.694 157.09C243.694 157.95 243.954 158.6 244.474 159.04C245.014 159.48 245.954 159.72 247.294 159.76L252.184 159.79ZM260.584 151V144.7H256.204V150.7H254.104V136.03H256.204V142.72H260.584V136.03H262.684V151H260.584ZM238.954 138.58H244.444L245.254 135.34H247.534L246.754 138.58H252.184V140.56H238.954V138.58ZM247.054 148.66C247.754 148.66 248.324 148.49 248.764 148.15C249.224 147.81 249.454 147.23 249.454 146.41C249.454 144.93 248.654 144.19 247.054 144.19H244.084C242.484 144.19 241.684 144.93 241.684 146.41C241.684 147.23 241.904 147.81 242.344 148.15C242.804 148.49 243.384 148.66 244.084 148.66H247.054ZM282.106 136.03H284.206V161.11H282.106V148.45H278.056C277.896 149.93 277.716 151.35 277.516 152.71C277.316 154.07 277.106 155.48 276.886 156.94C276.726 157.78 276.476 158.47 276.136 159.01C275.816 159.55 275.426 159.97 274.966 160.27C274.506 160.59 273.976 160.8 273.376 160.9C272.796 161.02 272.176 161.08 271.516 161.08C270.416 161.08 269.516 160.93 268.816 160.63C268.116 160.35 267.566 159.94 267.166 159.4C266.786 158.86 266.536 158.2 266.416 157.42C266.316 156.66 266.316 155.8 266.416 154.84C266.636 152.52 266.876 150.24 267.136 148C267.416 145.74 267.696 143.39 267.976 140.95C268.116 139.97 268.356 139.17 268.696 138.55C269.036 137.91 269.456 137.4 269.956 137.02C270.456 136.64 271.016 136.38 271.636 136.24C272.276 136.08 272.956 136 273.676 136C274.736 136 275.596 136.14 276.256 136.42C276.916 136.7 277.426 137.09 277.786 137.59C278.166 138.07 278.416 138.65 278.536 139.33C278.656 139.99 278.696 140.71 278.656 141.49C278.596 142.41 278.536 143.28 278.476 144.1C278.416 144.92 278.346 145.71 278.266 146.47H282.106V136.03ZM274.516 157.45C274.736 156.97 274.896 156.31 274.996 155.47C275.276 153.43 275.536 151.32 275.776 149.14C276.036 146.96 276.276 144.57 276.496 141.97C276.556 141.13 276.536 140.45 276.436 139.93C276.336 139.41 276.166 139.01 275.926 138.73C275.686 138.43 275.366 138.23 274.966 138.13C274.586 138.03 274.116 137.98 273.556 137.98C273.116 137.98 272.706 138.03 272.326 138.13C271.946 138.21 271.596 138.4 271.276 138.7C270.976 138.98 270.706 139.39 270.466 139.93C270.246 140.47 270.076 141.19 269.956 142.09C269.776 143.39 269.616 144.6 269.476 145.72C269.356 146.82 269.236 147.89 269.116 148.93C269.016 149.97 268.916 151.01 268.816 152.05C268.736 153.07 268.656 154.13 268.576 155.23C268.516 156.01 268.526 156.65 268.606 157.15C268.706 157.67 268.866 158.07 269.086 158.35C269.326 158.63 269.636 158.82 270.016 158.92C270.416 159.04 270.906 159.1 271.486 159.1C271.926 159.1 272.336 159.06 272.716 158.98C273.096 158.92 273.436 158.77 273.736 158.53C274.036 158.29 274.296 157.93 274.516 157.45ZM287.746 136.03H289.846V161.11H287.746V136.03ZM322.843 136.03H324.943V161.11H322.843V148.45H318.253V161.11H316.153V136.03H318.253V146.47H322.843V136.03ZM304.603 158.83H313.513V160.81H302.503V136.36H312.793V138.34H304.603V158.83ZM334.885 151.84C334.445 151.82 333.885 151.8 333.205 151.78C332.445 151.76 331.785 151.61 331.225 151.33C330.665 151.05 330.195 150.69 329.815 150.25C329.455 149.81 329.175 149.32 328.975 148.78C328.795 148.22 328.705 147.67 328.705 147.13C328.705 146.59 328.785 146.05 328.945 145.51C329.125 144.97 329.395 144.49 329.755 144.07C330.115 143.63 330.585 143.28 331.165 143.02C331.745 142.74 332.445 142.59 333.265 142.57C333.865 142.55 334.385 142.54 334.825 142.54C335.285 142.54 335.725 142.54 336.145 142.54C336.565 142.54 336.995 142.55 337.435 142.57C337.875 142.57 338.385 142.57 338.965 142.57C339.785 142.57 340.485 142.71 341.065 142.99C341.645 143.25 342.115 143.6 342.475 144.04C342.835 144.48 343.095 144.97 343.255 145.51C343.435 146.05 343.525 146.59 343.525 147.13C343.525 147.67 343.425 148.22 343.225 148.78C343.045 149.32 342.765 149.81 342.385 150.25C342.025 150.69 341.555 151.05 340.975 151.33C340.415 151.61 339.765 151.76 339.025 151.78C338.345 151.8 337.785 151.82 337.345 151.84C336.905 151.84 336.495 151.84 336.115 151.84C335.735 151.84 335.325 151.84 334.885 151.84ZM351.145 161.77H330.595V153.82H332.695V159.79H351.145V161.77ZM336.115 149.86C337.015 149.86 338.005 149.83 339.085 149.77C339.705 149.73 340.225 149.48 340.645 149.02C341.085 148.56 341.305 147.93 341.305 147.13C341.305 146.29 341.085 145.65 340.645 145.21C340.225 144.75 339.705 144.51 339.085 144.49C338.005 144.45 337.015 144.43 336.115 144.43C335.215 144.43 334.225 144.45 333.145 144.49C332.525 144.51 331.995 144.75 331.555 145.21C331.135 145.65 330.925 146.29 330.925 147.13C330.925 147.93 331.135 148.56 331.555 149.02C331.995 149.48 332.525 149.73 333.145 149.77C334.225 149.83 335.215 149.86 336.115 149.86ZM349.885 144.04H354.175V146.02H349.885V154.48H347.785V136.03H349.885V144.04ZM344.065 138.82V140.8H328.135V138.82H334.945L335.815 135.34H338.095L337.255 138.82H344.065ZM383.843 136.03H385.943V161.11H383.843V154.18H376.973L376.583 156.94C376.423 157.78 376.133 158.47 375.713 159.01C375.293 159.55 374.793 159.97 374.213 160.27C373.633 160.57 373.003 160.78 372.323 160.9C371.643 161.02 370.973 161.08 370.313 161.08C369.153 161.08 368.153 160.93 367.313 160.63C366.473 160.33 365.783 159.9 365.243 159.34C364.723 158.8 364.353 158.15 364.133 157.39C363.933 156.63 363.893 155.78 364.013 154.84C364.253 152.52 364.503 150.24 364.763 148C365.023 145.74 365.293 143.39 365.573 140.95C365.713 139.97 366.003 139.17 366.443 138.55C366.903 137.91 367.443 137.4 368.063 137.02C368.683 136.64 369.353 136.38 370.073 136.24C370.813 136.08 371.543 136 372.263 136C373.323 136 374.243 136.14 375.023 136.42C375.803 136.7 376.443 137.09 376.943 137.59C377.463 138.07 377.833 138.65 378.053 139.33C378.293 139.99 378.393 140.71 378.353 141.49C378.333 141.57 378.323 141.65 378.323 141.73C378.323 141.79 378.323 141.85 378.323 141.91H383.843V136.03ZM374.063 157.45C374.383 156.97 374.593 156.31 374.693 155.47C374.973 153.43 375.233 151.32 375.473 149.14C375.733 146.96 375.973 144.57 376.193 141.97C376.253 141.13 376.173 140.45 375.953 139.93C375.753 139.41 375.463 139.01 375.083 138.73C374.703 138.43 374.253 138.23 373.733 138.13C373.233 138.03 372.703 137.98 372.143 137.98C371.703 137.98 371.233 138.03 370.733 138.13C370.253 138.21 369.793 138.4 369.353 138.7C368.933 138.98 368.553 139.39 368.213 139.93C367.893 140.47 367.673 141.19 367.553 142.09C367.373 143.39 367.213 144.6 367.073 145.72C366.953 146.82 366.833 147.89 366.713 148.93C366.613 149.97 366.513 151.01 366.413 152.05C366.333 153.07 366.253 154.13 366.173 155.23C366.113 156.01 366.193 156.65 366.413 157.15C366.633 157.67 366.933 158.07 367.313 158.35C367.713 158.63 368.173 158.82 368.693 158.92C369.213 159.04 369.743 159.1 370.283 159.1C370.723 159.1 371.173 159.06 371.633 158.98C372.113 158.92 372.563 158.77 372.983 158.53C373.403 158.29 373.763 157.93 374.063 157.45ZM383.843 152.2V143.89H378.173C378.053 145.45 377.913 146.9 377.753 148.24C377.613 149.58 377.453 150.9 377.273 152.2H383.843ZM411.995 143.44V149.86H409.895V136.03H411.995V141.46H416.285V143.44H411.995ZM392.705 161.77V151.6H412.145V161.77H392.705ZM394.805 153.58V159.79H410.045V153.58H394.805ZM391.715 148.72V136.36H404.555V138.34H393.815V146.74H405.305V148.72H391.715ZM432.256 139.33C432.516 139.99 432.626 140.71 432.586 141.49C432.486 143.07 432.366 144.53 432.226 145.87C432.106 147.19 431.966 148.47 431.806 149.71C431.666 150.93 431.506 152.13 431.326 153.31C431.166 154.47 430.996 155.68 430.816 156.94C430.656 157.78 430.356 158.47 429.916 159.01C429.496 159.55 428.986 159.97 428.386 160.27C427.786 160.57 427.136 160.78 426.436 160.9C425.756 161.02 425.086 161.08 424.426 161.08C423.266 161.08 422.256 160.93 421.396 160.63C420.556 160.33 419.866 159.9 419.326 159.34C418.786 158.8 418.406 158.15 418.186 157.39C417.966 156.63 417.916 155.78 418.036 154.84C418.276 152.52 418.526 150.24 418.786 148C419.046 145.74 419.316 143.39 419.596 140.95C419.736 139.97 420.036 139.17 420.496 138.55C420.956 137.91 421.496 137.4 422.116 137.02C422.756 136.64 423.446 136.38 424.186 136.24C424.926 136.08 425.656 136 426.376 136C427.436 136 428.356 136.14 429.136 136.42C429.936 136.7 430.596 137.09 431.116 137.59C431.636 138.07 432.016 138.65 432.256 139.33ZM428.296 157.45C428.616 156.97 428.826 156.31 428.926 155.47C429.206 153.43 429.466 151.32 429.706 149.14C429.966 146.96 430.206 144.57 430.426 141.97C430.486 141.13 430.406 140.45 430.186 139.93C429.966 139.41 429.656 139.01 429.256 138.73C428.856 138.43 428.396 138.23 427.876 138.13C427.356 138.03 426.816 137.98 426.256 137.98C425.816 137.98 425.346 138.03 424.846 138.13C424.346 138.21 423.876 138.4 423.436 138.7C422.996 138.98 422.606 139.39 422.266 139.93C421.926 140.47 421.696 141.19 421.576 142.09C421.396 143.39 421.236 144.6 421.096 145.72C420.976 146.82 420.856 147.89 420.736 148.93C420.636 149.97 420.536 151.01 420.436 152.05C420.356 153.07 420.276 154.13 420.196 155.23C420.136 156.01 420.216 156.65 420.436 157.15C420.676 157.67 420.996 158.07 421.396 158.35C421.796 158.63 422.256 158.82 422.776 158.92C423.316 159.04 423.856 159.1 424.396 159.1C424.836 159.1 425.296 159.06 425.776 158.98C426.256 158.92 426.716 158.77 427.156 158.53C427.596 158.29 427.976 157.93 428.296 157.45ZM437.866 136.03H439.966V161.11H437.866V136.03ZM454.814 150.22H474.284V156.79H456.914V159.76H474.734V161.74H454.814V154.81H472.184V152.2H454.814V150.22ZM456.914 141.91H474.284V143.89H454.814V136.06H474.254V138.04H456.914V141.91ZM452.444 148.09V146.11H476.684V148.09H452.444ZM498.569 136.03H500.669V161.11H498.569V149.08H492.389C492.229 150.44 492.059 151.75 491.879 153.01C491.699 154.27 491.509 155.58 491.309 156.94C491.149 157.78 490.859 158.47 490.439 159.01C490.019 159.55 489.519 159.97 488.939 160.27C488.359 160.57 487.729 160.78 487.049 160.9C486.369 161.02 485.699 161.08 485.039 161.08C483.879 161.08 482.879 160.93 482.039 160.63C481.199 160.33 480.509 159.9 479.969 159.34C479.449 158.8 479.079 158.15 478.859 157.39C478.659 156.63 478.619 155.78 478.739 154.84C478.979 152.52 479.229 150.24 479.489 148C479.749 145.74 480.019 143.39 480.299 140.95C480.439 139.97 480.729 139.17 481.169 138.55C481.629 137.91 482.169 137.4 482.789 137.02C483.409 136.64 484.079 136.38 484.799 136.24C485.539 136.08 486.269 136 486.989 136C488.049 136 488.969 136.14 489.749 136.42C490.529 136.7 491.169 137.09 491.669 137.59C492.189 138.07 492.559 138.65 492.779 139.33C493.019 139.99 493.119 140.71 493.079 141.49C492.999 142.53 492.929 143.51 492.869 144.43C492.809 145.35 492.729 146.24 492.629 147.1H498.569V136.03ZM488.789 157.45C489.109 156.97 489.319 156.31 489.419 155.47C489.699 153.43 489.959 151.32 490.199 149.14C490.459 146.96 490.699 144.57 490.919 141.97C490.979 141.13 490.899 140.45 490.679 139.93C490.479 139.41 490.189 139.01 489.809 138.73C489.429 138.43 488.979 138.23 488.459 138.13C487.959 138.03 487.429 137.98 486.869 137.98C486.429 137.98 485.959 138.03 485.459 138.13C484.979 138.21 484.519 138.4 484.079 138.7C483.659 138.98 483.279 139.39 482.939 139.93C482.619 140.47 482.399 141.19 482.279 142.09C482.099 143.39 481.939 144.6 481.799 145.72C481.679 146.82 481.559 147.89 481.439 148.93C481.339 149.97 481.239 151.01 481.139 152.05C481.059 153.07 480.979 154.13 480.899 155.23C480.839 156.01 480.919 156.65 481.139 157.15C481.359 157.67 481.659 158.07 482.039 158.35C482.439 158.63 482.899 158.82 483.419 158.92C483.939 159.04 484.469 159.1 485.009 159.1C485.449 159.1 485.899 159.06 486.359 158.98C486.839 158.92 487.289 158.77 487.709 158.53C488.129 158.29 488.489 157.93 488.789 157.45ZM526.721 156.31H509.531V159.79H527.171V161.77H507.431V154.33H524.621V151.3H507.431V149.32H526.721V156.31ZM505.571 136.36H519.701L517.661 147.43H515.381L517.031 138.34H505.571V136.36ZM531.011 142.78H526.721V147.76H524.621V136.03H526.721V140.8H531.011V142.78ZM555.909 136.36V138.34H550.839L555.819 160.81H553.689L548.709 138.34H547.779L542.799 160.81H540.669L545.649 138.34H540.279V136.36H555.909ZM561.579 146.53H566.109V148.51H561.579V161.11H559.479V136.03H561.579V146.53ZM570.74 158.83H582.74V160.81H568.64V146.89H579.32V138.34H568.7V136.36H581.42V148.87H570.74V158.83ZM587.69 136.03H589.79V161.11H587.69V136.03ZM65.21 174.03H67.31V199.11H65.21V192.18H58.34L57.95 194.94C57.79 195.78 57.5 196.47 57.08 197.01C56.66 197.55 56.16 197.97 55.58 198.27C55 198.57 54.37 198.78 53.69 198.9C53.01 199.02 52.34 199.08 51.68 199.08C50.52 199.08 49.52 198.93 48.68 198.63C47.84 198.33 47.15 197.9 46.61 197.34C46.09 196.8 45.72 196.15 45.5 195.39C45.3 194.63 45.26 193.78 45.38 192.84C45.62 190.52 45.87 188.24 46.13 186C46.39 183.74 46.66 181.39 46.94 178.95C47.08 177.97 47.37 177.17 47.81 176.55C48.27 175.91 48.81 175.4 49.43 175.02C50.05 174.64 50.72 174.38 51.44 174.24C52.18 174.08 52.91 174 53.63 174C54.69 174 55.61 174.14 56.39 174.42C57.17 174.7 57.81 175.09 58.31 175.59C58.83 176.07 59.2 176.65 59.42 177.33C59.66 177.99 59.76 178.71 59.72 179.49C59.7 179.57 59.69 179.65 59.69 179.73C59.69 179.79 59.69 179.85 59.69 179.91H65.21V174.03ZM55.43 195.45C55.75 194.97 55.96 194.31 56.06 193.47C56.34 191.43 56.6 189.32 56.84 187.14C57.1 184.96 57.34 182.57 57.56 179.97C57.62 179.13 57.54 178.45 57.32 177.93C57.12 177.41 56.83 177.01 56.45 176.73C56.07 176.43 55.62 176.23 55.1 176.13C54.6 176.03 54.07 175.98 53.51 175.98C53.07 175.98 52.6 176.03 52.1 176.13C51.62 176.21 51.16 176.4 50.72 176.7C50.3 176.98 49.92 177.39 49.58 177.93C49.26 178.47 49.04 179.19 48.92 180.09C48.74 181.39 48.58 182.6 48.44 183.72C48.32 184.82 48.2 185.89 48.08 186.93C47.98 187.97 47.88 189.01 47.78 190.05C47.7 191.07 47.62 192.13 47.54 193.23C47.48 194.01 47.56 194.65 47.78 195.15C48 195.67 48.3 196.07 48.68 196.35C49.08 196.63 49.54 196.82 50.06 196.92C50.58 197.04 51.11 197.1 51.65 197.1C52.09 197.1 52.54 197.06 53 196.98C53.48 196.92 53.93 196.77 54.35 196.53C54.77 196.29 55.13 195.93 55.43 195.45ZM65.21 190.2V181.89H59.54C59.42 183.45 59.28 184.9 59.12 186.24C58.98 187.58 58.82 188.9 58.64 190.2H65.21ZM79.6517 199.74C77.8717 199.68 76.5117 199.23 75.5717 198.39C74.6517 197.55 74.1917 196.44 74.1917 195.06C74.1917 193.62 74.6317 192.48 75.5117 191.64C76.4117 190.78 77.8117 190.34 79.7117 190.32H80.4017C82.4817 190.28 83.9417 190.26 84.7817 190.26C85.7217 190.26 87.4117 190.28 89.8517 190.32C91.7317 190.32 93.1117 190.75 93.9917 191.61C94.8917 192.47 95.3417 193.62 95.3417 195.06C95.3417 196.44 94.8817 197.55 93.9617 198.39C93.0417 199.23 91.6817 199.68 89.8817 199.74C87.4417 199.78 85.7417 199.8 84.7817 199.8C83.8417 199.8 82.1317 199.78 79.6517 199.74ZM76.4117 188.64C74.9917 188.6 73.9117 188.18 73.1717 187.38C72.4517 186.58 72.0917 185.59 72.0917 184.41C72.0917 183.19 72.4417 182.19 73.1417 181.41C73.8417 180.63 74.9517 180.23 76.4717 180.21H79.8617C81.3817 180.21 82.4917 180.61 83.1917 181.41C83.8917 182.19 84.2417 183.19 84.2417 184.41C84.2417 185.59 83.8717 186.58 83.1317 187.38C82.4117 188.18 81.3417 188.6 79.9217 188.64H76.4117ZM84.7817 197.79L89.6717 197.76C91.0117 197.72 91.9417 197.48 92.4617 197.04C92.9817 196.6 93.2417 195.95 93.2417 195.09C93.2417 194.17 92.9917 193.48 92.4917 193.02C91.9917 192.56 91.0417 192.33 89.6417 192.33C88.7017 192.31 87.0817 192.3 84.7817 192.3C82.4817 192.3 80.8617 192.31 79.9217 192.33C78.5217 192.35 77.5617 192.59 77.0417 193.05C76.5417 193.49 76.2917 194.17 76.2917 195.09C76.2917 195.95 76.5517 196.6 77.0717 197.04C77.6117 197.48 78.5517 197.72 79.8917 197.76L84.7817 197.79ZM93.1817 189V182.7H88.8017V188.7H86.7017V174.03H88.8017V180.72H93.1817V174.03H95.2817V189H93.1817ZM71.5517 176.58H77.0417L77.8517 173.34H80.1317L79.3517 176.58H84.7817V178.56H71.5517V176.58ZM79.6517 186.66C80.3517 186.66 80.9217 186.49 81.3617 186.15C81.8217 185.81 82.0517 185.23 82.0517 184.41C82.0517 182.93 81.2517 182.19 79.6517 182.19H76.6817C75.0817 182.19 74.2817 182.93 74.2817 184.41C74.2817 185.23 74.5017 185.81 74.9417 186.15C75.4017 186.49 75.9817 186.66 76.6817 186.66H79.6517ZM101.923 181.14C101.063 180.46 100.633 179.48 100.633 178.2C100.633 176.92 101.063 175.95 101.923 175.29C102.803 174.61 104.063 174.2 105.703 174.06C106.443 174 107.243 173.96 108.103 173.94C108.983 173.9 109.863 173.88 110.743 173.88C111.623 173.88 112.493 173.9 113.353 173.94C114.233 173.96 115.043 174 115.783 174.06C117.443 174.2 118.703 174.61 119.563 175.29C120.443 175.95 120.883 176.92 120.883 178.2C120.883 179.48 120.443 180.46 119.563 181.14C118.703 181.82 117.443 182.23 115.783 182.37C115.043 182.43 114.233 182.48 113.353 182.52C112.493 182.54 111.623 182.55 110.743 182.55C109.863 182.55 108.983 182.54 108.103 182.52C107.243 182.48 106.443 182.43 105.703 182.37C104.063 182.23 102.803 181.82 101.923 181.14ZM101.083 188.82H120.553V195.09H103.183V197.76H121.003V199.74H101.083V193.11H118.453V190.8H101.083V188.82ZM103.453 176.67C102.973 176.99 102.733 177.5 102.733 178.2C102.733 178.9 102.973 179.42 103.453 179.76C103.953 180.1 104.743 180.31 105.823 180.39C106.523 180.43 107.303 180.47 108.163 180.51C109.023 180.53 109.893 180.54 110.773 180.54C111.673 180.54 112.543 180.53 113.383 180.51C114.243 180.49 115.023 180.45 115.723 180.39C116.803 180.29 117.583 180.07 118.063 179.73C118.543 179.39 118.783 178.88 118.783 178.2C118.783 177.52 118.543 177.02 118.063 176.7C117.583 176.36 116.803 176.14 115.723 176.04C115.023 175.98 114.243 175.94 113.383 175.92C112.543 175.88 111.673 175.86 110.773 175.86C109.893 175.86 109.023 175.88 108.163 175.92C107.303 175.94 106.523 175.98 105.823 176.04C104.743 176.12 103.953 176.33 103.453 176.67ZM98.7134 186.57V184.59H122.953V186.57H98.7134ZM132.945 174.36H146.565L142.485 198.81H140.235L143.955 176.34H132.945V174.36ZM158.385 186.45H154.095V199.11H151.995V174.03H154.095V184.47H158.385V186.45ZM175.407 174.03H177.507V199.11H175.407V185.61H169.197L166.947 198.81H164.667L168.507 176.34H159.927V174.36H171.147L169.557 183.63H175.407V174.03ZM181.047 174.03H183.147V199.11H181.047V174.03ZM194.514 189.78V187.8H202.314V184.35H196.194V174.36H210.144V176.34H198.294V182.37H210.444V184.35H204.414V187.8H212.394V189.78H194.514ZM217.644 199.77H197.184V191.85H199.284V197.79H217.644V199.77ZM215.094 174.03H217.194V192.51H215.094V174.03ZM244.522 177.33C244.782 177.99 244.892 178.71 244.852 179.49C244.752 181.07 244.632 182.53 244.492 183.87C244.372 185.19 244.232 186.47 244.072 187.71C243.932 188.93 243.772 190.13 243.592 191.31C243.432 192.47 243.262 193.68 243.082 194.94C242.922 195.78 242.622 196.47 242.182 197.01C241.762 197.55 241.252 197.97 240.652 198.27C240.052 198.57 239.402 198.78 238.702 198.9C238.022 199.02 237.352 199.08 236.692 199.08C235.532 199.08 234.522 198.93 233.662 198.63C232.822 198.33 232.132 197.9 231.592 197.34C231.052 196.8 230.672 196.15 230.452 195.39C230.232 194.63 230.182 193.78 230.302 192.84C230.542 190.52 230.792 188.24 231.052 186C231.312 183.74 231.582 181.39 231.862 178.95C232.002 177.97 232.302 177.17 232.762 176.55C233.222 175.91 233.762 175.4 234.382 175.02C235.022 174.64 235.712 174.38 236.452 174.24C237.192 174.08 237.922 174 238.642 174C239.702 174 240.622 174.14 241.402 174.42C242.202 174.7 242.862 175.09 243.382 175.59C243.902 176.07 244.282 176.65 244.522 177.33ZM240.562 195.45C240.882 194.97 241.092 194.31 241.192 193.47C241.472 191.43 241.732 189.32 241.972 187.14C242.232 184.96 242.472 182.57 242.692 179.97C242.752 179.13 242.672 178.45 242.452 177.93C242.232 177.41 241.922 177.01 241.522 176.73C241.122 176.43 240.662 176.23 240.142 176.13C239.622 176.03 239.082 175.98 238.522 175.98C238.082 175.98 237.612 176.03 237.112 176.13C236.612 176.21 236.142 176.4 235.702 176.7C235.262 176.98 234.872 177.39 234.532 177.93C234.192 178.47 233.962 179.19 233.842 180.09C233.662 181.39 233.502 182.6 233.362 183.72C233.242 184.82 233.122 185.89 233.002 186.93C232.902 187.97 232.802 189.01 232.702 190.05C232.622 191.07 232.542 192.13 232.462 193.23C232.402 194.01 232.482 194.65 232.702 195.15C232.942 195.67 233.262 196.07 233.662 196.35C234.062 196.63 234.522 196.82 235.042 196.92C235.582 197.04 236.122 197.1 236.662 197.1C237.102 197.1 237.562 197.06 238.042 196.98C238.522 196.92 238.982 196.77 239.422 196.53C239.862 196.29 240.242 195.93 240.562 195.45ZM250.132 174.03H252.232V199.11H250.132V174.03ZM258.694 183.48C258.354 182.66 258.184 181.65 258.184 180.45C258.184 179.25 258.354 178.25 258.694 177.45C259.054 176.65 259.534 176 260.134 175.5C260.754 175 261.484 174.63 262.324 174.39C263.164 174.15 264.074 174.01 265.054 173.97C265.914 173.93 266.654 173.9 267.274 173.88C267.914 173.86 268.504 173.85 269.044 173.85C269.604 173.85 270.144 173.86 270.664 173.88C271.184 173.9 271.764 173.93 272.404 173.97C273.364 174.03 274.264 174.18 275.104 174.42C275.944 174.66 276.674 175.03 277.294 175.53C277.914 176.01 278.404 176.65 278.764 177.45C279.124 178.25 279.304 179.25 279.304 180.45C279.304 181.65 279.124 182.66 278.764 183.48C278.404 184.28 277.914 184.93 277.294 185.43C276.694 185.93 275.974 186.3 275.134 186.54C274.294 186.76 273.394 186.9 272.434 186.96C271.634 187 270.954 187.04 270.394 187.08C269.854 187.1 269.324 187.11 268.804 187.11C268.304 187.11 267.764 187.1 267.184 187.08C266.624 187.04 265.914 187 265.054 186.96C264.054 186.9 263.134 186.76 262.294 186.54C261.454 186.3 260.724 185.93 260.104 185.43C259.504 184.93 259.034 184.28 258.694 183.48ZM260.644 178.44C260.404 178.98 260.284 179.65 260.284 180.45C260.284 181.25 260.384 181.93 260.584 182.49C260.804 183.03 261.114 183.48 261.514 183.84C261.934 184.18 262.434 184.45 263.014 184.65C263.594 184.83 264.244 184.95 264.964 185.01C265.544 185.07 266.154 185.11 266.794 185.13C267.454 185.15 268.114 185.16 268.774 185.16C269.434 185.16 270.084 185.15 270.724 185.13C271.364 185.09 271.974 185.05 272.554 185.01C273.194 184.95 273.794 184.83 274.354 184.65C274.914 184.47 275.404 184.2 275.824 183.84C276.244 183.48 276.574 183.03 276.814 182.49C277.054 181.93 277.174 181.25 277.174 180.45C277.174 179.65 277.054 178.98 276.814 178.44C276.594 177.88 276.284 177.42 275.884 177.06C275.484 176.7 274.994 176.43 274.414 176.25C273.834 176.07 273.204 175.96 272.524 175.92C271.984 175.9 271.394 175.88 270.754 175.86C270.134 175.82 269.484 175.8 268.804 175.8C268.144 175.8 267.484 175.81 266.824 175.83C266.164 175.85 265.544 175.88 264.964 175.92C264.304 175.98 263.684 176.1 263.104 176.28C262.544 176.46 262.054 176.73 261.634 177.09C261.214 177.43 260.884 177.88 260.644 178.44ZM256.654 192.03V190.05H280.864V192.03H275.074V199.65H272.974V192.03H264.514V199.65H262.414V192.03H256.654ZM297.529 177.42C297.789 178.06 297.899 178.75 297.859 179.49C297.839 179.97 297.799 180.58 297.739 181.32C297.699 182.04 297.649 182.77 297.589 183.51C297.529 184.25 297.459 184.95 297.379 185.61C297.319 186.25 297.249 186.75 297.169 187.11C297.009 187.85 296.739 188.47 296.359 188.97C295.999 189.47 295.569 189.89 295.069 190.23C294.569 190.55 294.009 190.8 293.389 190.98C292.789 191.14 292.169 191.25 291.529 191.31V196.83H298.999V198.81H282.229V196.83H289.429V191.37C287.489 191.25 285.999 190.68 284.959 189.66C283.939 188.62 283.509 187.22 283.669 185.46C283.689 185.18 283.709 184.73 283.729 184.11C283.769 183.49 283.809 182.83 283.849 182.13C283.909 181.43 283.969 180.76 284.029 180.12C284.089 179.46 284.169 178.95 284.269 178.59C284.509 177.67 284.879 176.92 285.379 176.34C285.879 175.76 286.449 175.31 287.089 174.99C287.749 174.65 288.449 174.42 289.189 174.3C289.929 174.18 290.659 174.12 291.379 174.12C292.519 174.12 293.499 174.26 294.319 174.54C295.159 174.82 295.839 175.21 296.359 175.71C296.899 176.19 297.289 176.76 297.529 177.42ZM294.169 188.22C294.529 187.88 294.799 187.42 294.979 186.84C295.059 186.56 295.129 186.11 295.189 185.49C295.269 184.85 295.339 184.18 295.399 183.48C295.459 182.76 295.509 182.07 295.549 181.41C295.589 180.73 295.619 180.22 295.639 179.88C295.659 179.04 295.549 178.38 295.309 177.9C295.069 177.4 294.739 177.02 294.319 176.76C293.899 176.48 293.419 176.3 292.879 176.22C292.359 176.14 291.819 176.1 291.259 176.1C290.839 176.1 290.379 176.13 289.879 176.19C289.399 176.25 288.919 176.39 288.439 176.61C287.979 176.81 287.559 177.11 287.179 177.51C286.819 177.89 286.559 178.42 286.399 179.1C286.339 179.38 286.269 179.84 286.189 180.48C286.129 181.1 286.079 181.76 286.039 182.46C285.999 183.16 285.959 183.83 285.919 184.47C285.879 185.09 285.859 185.55 285.859 185.85C285.839 186.63 285.949 187.25 286.189 187.71C286.449 188.17 286.789 188.53 287.209 188.79C287.649 189.03 288.139 189.19 288.679 189.27C289.219 189.35 289.759 189.39 290.299 189.39C290.679 189.39 291.099 189.37 291.559 189.33C292.039 189.27 292.499 189.16 292.939 189C293.399 188.82 293.809 188.56 294.169 188.22ZM303.889 184.5H308.179V186.48H303.889V199.11H301.789V174.03H303.889V184.5ZM340.067 184.86H337.217L329.867 176.04H328.997L321.707 184.86H318.827L326.267 176.04H319.637V174.06H339.257V176.04H332.627L340.067 184.86ZM341.567 189.03H331.067V194.55H328.967V189.03H317.327V187.05H341.567V189.03ZM321.797 191.28V197.76H339.617V199.74H319.697V191.28H321.797ZM357.662 174.21V198.81H344.312V174.21H346.412V184.26H355.562V174.21H357.662ZM355.562 186.24H346.412V196.83H355.562V186.24ZM363.452 174.03H365.552V199.11H363.452V174.03ZM391.41 176.34H379.32V174.36H393.87L392.52 190.92H390.21L391.41 176.34ZM385.56 196.83H394.8V198.81H378.03V196.83H383.46V182.31H385.56V196.83ZM399.69 184.5H403.98V186.48H399.69V199.11H397.59V174.03H399.69V184.5ZM415.662 199.77C414.882 199.77 414.032 199.76 413.112 199.74C412.192 199.72 411.382 199.55 410.682 199.23C410.002 198.93 409.422 198.53 408.942 198.03C408.482 197.53 408.132 196.96 407.892 196.32C407.652 195.7 407.532 195.06 407.532 194.4C407.532 193.72 407.642 193.06 407.862 192.42C408.082 191.78 408.412 191.22 408.852 190.74C409.312 190.24 409.892 189.84 410.592 189.54C411.312 189.22 412.172 189.05 413.172 189.03C414.092 189.01 414.932 189 415.692 189C416.472 189 417.222 189 417.942 189C418.682 189 419.432 189 420.192 189C420.972 189 421.822 189.01 422.742 189.03C423.722 189.03 424.572 189.19 425.292 189.51C426.012 189.81 426.592 190.21 427.032 190.71C427.492 191.21 427.832 191.78 428.052 192.42C428.272 193.06 428.382 193.72 428.382 194.4C428.382 195.06 428.262 195.7 428.022 196.32C427.782 196.96 427.422 197.53 426.942 198.03C426.482 198.53 425.902 198.93 425.202 199.23C424.502 199.55 423.692 199.72 422.772 199.74C421.852 199.76 421.002 199.77 420.222 199.77C419.462 199.79 418.702 199.8 417.942 199.8C417.202 199.8 416.442 199.79 415.662 199.77ZM411.582 197.43C412.062 197.63 412.652 197.74 413.352 197.76C414.772 197.78 416.302 197.79 417.942 197.79C419.602 197.79 421.142 197.78 422.562 197.76C423.262 197.74 423.842 197.63 424.302 197.43C424.782 197.23 425.162 196.97 425.442 196.65C425.742 196.35 425.952 196 426.072 195.6C426.212 195.22 426.282 194.83 426.282 194.43C426.282 194.01 426.222 193.6 426.102 193.2C426.002 192.8 425.812 192.44 425.532 192.12C425.252 191.8 424.862 191.54 424.362 191.34C423.882 191.14 423.272 191.04 422.532 191.04C421.112 191.02 419.582 191.01 417.942 191.01C416.322 191.01 414.802 191.02 413.382 191.04C412.622 191.04 412.002 191.14 411.522 191.34C411.042 191.54 410.662 191.8 410.382 192.12C410.102 192.44 409.902 192.8 409.782 193.2C409.682 193.6 409.632 194.01 409.632 194.43C409.632 194.83 409.692 195.22 409.812 195.6C409.952 196 410.162 196.35 410.442 196.65C410.742 196.97 411.122 197.23 411.582 197.43ZM420.582 174.36V176.34H415.812L420.372 186.93H418.062L413.502 176.34H412.962L407.982 186.93H405.672L410.532 176.34H405.792V174.36H420.582ZM425.862 182.07H419.742V180.09H425.862V174.03H427.962V187.5H425.862V182.07ZM448.043 174.03H450.143V199.11H448.043V186.45H443.993C443.833 187.93 443.653 189.35 443.453 190.71C443.253 192.07 443.043 193.48 442.823 194.94C442.663 195.78 442.413 196.47 442.073 197.01C441.753 197.55 441.363 197.97 440.903 198.27C440.443 198.59 439.913 198.8 439.313 198.9C438.733 199.02 438.113 199.08 437.453 199.08C436.353 199.08 435.453 198.93 434.753 198.63C434.053 198.35 433.503 197.94 433.103 197.4C432.723 196.86 432.473 196.2 432.353 195.42C432.253 194.66 432.253 193.8 432.353 192.84C432.573 190.52 432.813 188.24 433.073 186C433.353 183.74 433.633 181.39 433.913 178.95C434.053 177.97 434.293 177.17 434.633 176.55C434.973 175.91 435.393 175.4 435.893 175.02C436.393 174.64 436.953 174.38 437.573 174.24C438.213 174.08 438.893 174 439.613 174C440.673 174 441.533 174.14 442.193 174.42C442.853 174.7 443.363 175.09 443.723 175.59C444.103 176.07 444.353 176.65 444.473 177.33C444.593 177.99 444.633 178.71 444.593 179.49C444.533 180.41 444.473 181.28 444.413 182.1C444.353 182.92 444.283 183.71 444.203 184.47H448.043V174.03ZM440.453 195.45C440.673 194.97 440.833 194.31 440.933 193.47C441.213 191.43 441.473 189.32 441.713 187.14C441.973 184.96 442.213 182.57 442.433 179.97C442.493 179.13 442.473 178.45 442.373 177.93C442.273 177.41 442.103 177.01 441.863 176.73C441.623 176.43 441.303 176.23 440.903 176.13C440.523 176.03 440.053 175.98 439.493 175.98C439.053 175.98 438.643 176.03 438.263 176.13C437.883 176.21 437.533 176.4 437.213 176.7C436.913 176.98 436.643 177.39 436.403 177.93C436.183 178.47 436.013 179.19 435.893 180.09C435.713 181.39 435.553 182.6 435.413 183.72C435.293 184.82 435.173 185.89 435.053 186.93C434.953 187.97 434.853 189.01 434.753 190.05C434.673 191.07 434.593 192.13 434.513 193.23C434.453 194.01 434.463 194.65 434.543 195.15C434.643 195.67 434.803 196.07 435.023 196.35C435.263 196.63 435.573 196.82 435.953 196.92C436.353 197.04 436.843 197.1 437.423 197.1C437.863 197.1 438.273 197.06 438.653 196.98C439.033 196.92 439.373 196.77 439.673 196.53C439.973 196.29 440.233 195.93 440.453 195.45ZM453.683 174.03H455.783V199.11H453.683V174.03ZM468.395 176.34H466.415L461.675 198.81H459.575L464.615 174.36H470.195L475.235 198.81H473.135L468.395 176.34ZM479.585 186.21H473.375V184.23H479.585V174.03H481.685V199.11H479.585V186.21ZM506.657 174.03H508.757V199.11H506.657V174.03ZM486.077 198.81V196.83H503.957V198.81H486.077ZM501.077 177.42C501.337 178.06 501.447 178.75 501.407 179.49C501.387 179.97 501.347 180.6 501.287 181.38C501.247 182.14 501.197 182.92 501.137 183.72C501.077 184.52 501.007 185.27 500.927 185.97C500.847 186.65 500.767 187.17 500.687 187.53C500.487 188.39 500.157 189.1 499.697 189.66C499.237 190.2 498.687 190.63 498.047 190.95C497.427 191.27 496.737 191.49 495.977 191.61C495.237 191.73 494.477 191.79 493.697 191.79C492.617 191.79 491.657 191.66 490.817 191.4C489.977 191.12 489.277 190.73 488.717 190.23C488.157 189.73 487.737 189.12 487.457 188.4C487.197 187.66 487.107 186.82 487.187 185.88C487.207 185.6 487.237 185.13 487.277 184.47C487.317 183.81 487.357 183.11 487.397 182.37C487.457 181.61 487.517 180.88 487.577 180.18C487.637 179.48 487.717 178.95 487.817 178.59C488.057 177.67 488.427 176.92 488.927 176.34C489.427 175.76 489.997 175.31 490.637 174.99C491.297 174.65 491.997 174.42 492.737 174.3C493.477 174.18 494.207 174.12 494.927 174.12C496.067 174.12 497.047 174.26 497.867 174.54C498.707 174.82 499.387 175.21 499.907 175.71C500.447 176.19 500.837 176.76 501.077 177.42ZM497.687 188.64C498.047 188.3 498.317 187.84 498.497 187.26C498.577 186.98 498.657 186.51 498.737 185.85C498.817 185.17 498.887 184.45 498.947 183.69C499.007 182.91 499.057 182.17 499.097 181.47C499.137 180.75 499.167 180.22 499.187 179.88C499.207 179.04 499.097 178.38 498.857 177.9C498.617 177.4 498.287 177.02 497.867 176.76C497.447 176.48 496.967 176.3 496.427 176.22C495.907 176.14 495.367 176.1 494.807 176.1C494.387 176.1 493.927 176.13 493.427 176.19C492.947 176.25 492.467 176.39 491.987 176.61C491.527 176.81 491.107 177.11 490.727 177.51C490.367 177.89 490.107 178.42 489.947 179.1C489.887 179.38 489.817 179.86 489.737 180.54C489.677 181.22 489.617 181.94 489.557 182.7C489.517 183.44 489.477 184.15 489.437 184.83C489.397 185.49 489.377 185.97 489.377 186.27C489.357 187.05 489.467 187.67 489.707 188.13C489.967 188.59 490.307 188.95 490.727 189.21C491.167 189.45 491.657 189.61 492.197 189.69C492.737 189.77 493.277 189.81 493.817 189.81C494.197 189.81 494.617 189.79 495.077 189.75C495.557 189.69 496.017 189.58 496.457 189.42C496.917 189.24 497.327 188.98 497.687 188.64ZM528.164 176.82H520.784V174.84H537.734V176.82H530.324V199.08H528.164V176.82ZM550.753 197.1L556.213 174.84H560.893V199.08H558.793V176.85H557.863L552.313 199.08H548.503L542.983 176.82H542.053V199.08H539.953V174.84H544.603L550.093 197.1H550.753ZM563.808 199.08V197.13H567.258V176.82H563.808V174.84H572.898V176.82H569.418V197.13H572.898V199.08H563.808ZM576.894 189.66H596.364V195.54H578.994V197.76H596.814V199.74H576.894V193.56H594.264V191.64H576.894V189.66ZM578.994 181.98H596.784V183.96H576.894V177.99H594.264V176.04H576.924V174.06H596.364V179.97H578.994V181.98ZM574.524 187.77V185.79H598.764V187.77H574.524ZM623.755 174.36V176.34H618.925L623.605 187.74H621.355L616.675 176.34H616.135L611.095 187.74H608.845L613.765 176.34H608.965V174.36H623.755ZM631.135 199.77H629.035V192H610.975V190.02H631.135V199.77ZM629.035 182.16H622.915V180.18H629.035V174.03H631.135V188.19H629.035V182.16ZM655.747 174.03H657.847V199.11H655.747V187.08H649.567C649.407 188.44 649.237 189.75 649.057 191.01C648.877 192.27 648.687 193.58 648.487 194.94C648.327 195.78 648.037 196.47 647.617 197.01C647.197 197.55 646.697 197.97 646.117 198.27C645.537 198.57 644.907 198.78 644.227 198.9C643.547 199.02 642.877 199.08 642.217 199.08C641.057 199.08 640.057 198.93 639.217 198.63C638.377 198.33 637.687 197.9 637.147 197.34C636.627 196.8 636.257 196.15 636.037 195.39C635.837 194.63 635.797 193.78 635.917 192.84C636.157 190.52 636.407 188.24 636.667 186C636.927 183.74 637.197 181.39 637.477 178.95C637.617 177.97 637.907 177.17 638.347 176.55C638.807 175.91 639.347 175.4 639.967 175.02C640.587 174.64 641.257 174.38 641.977 174.24C642.717 174.08 643.447 174 644.167 174C645.227 174 646.147 174.14 646.927 174.42C647.707 174.7 648.347 175.09 648.847 175.59C649.367 176.07 649.737 176.65 649.957 177.33C650.197 177.99 650.297 178.71 650.257 179.49C650.177 180.53 650.107 181.51 650.047 182.43C649.987 183.35 649.907 184.24 649.807 185.1H655.747V174.03ZM645.967 195.45C646.287 194.97 646.497 194.31 646.597 193.47C646.877 191.43 647.137 189.32 647.377 187.14C647.637 184.96 647.877 182.57 648.097 179.97C648.157 179.13 648.077 178.45 647.857 177.93C647.657 177.41 647.367 177.01 646.987 176.73C646.607 176.43 646.157 176.23 645.637 176.13C645.137 176.03 644.607 175.98 644.047 175.98C643.607 175.98 643.137 176.03 642.637 176.13C642.157 176.21 641.697 176.4 641.257 176.7C640.837 176.98 640.457 177.39 640.117 177.93C639.797 178.47 639.577 179.19 639.457 180.09C639.277 181.39 639.117 182.6 638.977 183.72C638.857 184.82 638.737 185.89 638.617 186.93C638.517 187.97 638.417 189.01 638.317 190.05C638.237 191.07 638.157 192.13 638.077 193.23C638.017 194.01 638.097 194.65 638.317 195.15C638.537 195.67 638.837 196.07 639.217 196.35C639.617 196.63 640.077 196.82 640.597 196.92C641.117 197.04 641.647 197.1 642.187 197.1C642.627 197.1 643.077 197.06 643.537 196.98C644.017 196.92 644.467 196.77 644.887 196.53C645.307 196.29 645.667 195.93 645.967 195.45ZM672.019 199.92C671.259 199.92 670.429 199.91 669.529 199.89C668.789 199.87 668.109 199.79 667.489 199.65C666.869 199.51 666.329 199.29 665.869 198.99C665.429 198.69 665.079 198.31 664.819 197.85C664.579 197.39 664.459 196.82 664.459 196.14C664.459 194.94 664.909 194.05 665.809 193.47C666.709 192.87 667.969 192.56 669.589 192.54C670.469 192.52 671.289 192.51 672.049 192.51C672.829 192.51 673.579 192.51 674.299 192.51C675.039 192.51 675.789 192.51 676.549 192.51C677.329 192.51 678.159 192.52 679.039 192.54C680.659 192.54 681.919 192.84 682.819 193.44C683.719 194.04 684.169 194.94 684.169 196.14C684.169 196.82 684.039 197.39 683.779 197.85C683.539 198.31 683.189 198.69 682.729 198.99C682.289 199.29 681.759 199.51 681.139 199.65C680.519 199.79 679.839 199.87 679.099 199.89C678.199 199.91 677.359 199.92 676.579 199.92C675.819 199.94 675.059 199.95 674.299 199.95C673.559 199.95 672.799 199.94 672.019 199.92ZM666.709 179.16H684.229V181.14H675.379V183.6H686.479V185.58H662.239V183.6H673.279V181.14H664.609V174.06H666.709V179.16ZM684.949 189.12V191.1H663.649V189.12H672.589L673.699 186.66H676.399L675.289 189.12H684.949ZM677.179 197.82C678.119 197.8 679.019 197.76 679.879 197.7C680.619 197.66 681.169 197.52 681.529 197.28C681.889 197.04 682.069 196.66 682.069 196.14C682.069 195.16 681.339 194.63 679.879 194.55C679.019 194.51 678.119 194.48 677.179 194.46C676.239 194.44 675.289 194.43 674.329 194.43C673.369 194.43 672.409 194.44 671.449 194.46C670.509 194.48 669.619 194.51 668.779 194.55C667.299 194.63 666.559 195.16 666.559 196.14C666.559 197.12 667.299 197.64 668.779 197.7C669.619 197.74 670.509 197.77 671.449 197.79C672.409 197.81 673.369 197.82 674.329 197.82C675.289 197.84 676.239 197.84 677.179 197.82ZM691.054 181.14C690.194 180.46 689.764 179.48 689.764 178.2C689.764 176.92 690.194 175.95 691.054 175.29C691.934 174.61 693.194 174.2 694.834 174.06C695.574 174 696.374 173.96 697.234 173.94C698.114 173.9 698.994 173.88 699.874 173.88C700.754 173.88 701.624 173.9 702.484 173.94C703.364 173.96 704.174 174 704.914 174.06C706.574 174.2 707.834 174.61 708.694 175.29C709.574 175.95 710.014 176.92 710.014 178.2C710.014 179.48 709.574 180.46 708.694 181.14C707.834 181.82 706.574 182.23 704.914 182.37C704.174 182.43 703.364 182.48 702.484 182.52C701.624 182.54 700.754 182.55 699.874 182.55C698.994 182.55 698.114 182.54 697.234 182.52C696.374 182.48 695.574 182.43 694.834 182.37C693.194 182.23 691.934 181.82 691.054 181.14ZM690.214 188.82H709.684V195.09H692.314V197.76H710.134V199.74H690.214V193.11H707.584V190.8H690.214V188.82ZM692.584 176.67C692.104 176.99 691.864 177.5 691.864 178.2C691.864 178.9 692.104 179.42 692.584 179.76C693.084 180.1 693.874 180.31 694.954 180.39C695.654 180.43 696.434 180.47 697.294 180.51C698.154 180.53 699.024 180.54 699.904 180.54C700.804 180.54 701.674 180.53 702.514 180.51C703.374 180.49 704.154 180.45 704.854 180.39C705.934 180.29 706.714 180.07 707.194 179.73C707.674 179.39 707.914 178.88 707.914 178.2C707.914 177.52 707.674 177.02 707.194 176.7C706.714 176.36 705.934 176.14 704.854 176.04C704.154 175.98 703.374 175.94 702.514 175.92C701.674 175.88 700.804 175.86 699.904 175.86C699.024 175.86 698.154 175.88 697.294 175.92C696.434 175.94 695.654 175.98 694.954 176.04C693.874 176.12 693.084 176.33 692.584 176.67ZM687.844 186.57V184.59H712.084V186.57H687.844ZM737.556 174.03H739.656V199.11H737.556V192.03H732.756C732.696 192.51 732.626 192.99 732.546 193.47C732.486 193.95 732.416 194.44 732.336 194.94C732.176 195.78 731.926 196.47 731.586 197.01C731.266 197.55 730.876 197.97 730.416 198.27C729.956 198.59 729.426 198.8 728.826 198.9C728.246 199.02 727.626 199.08 726.966 199.08C725.866 199.08 724.966 198.93 724.266 198.63C723.566 198.35 723.016 197.94 722.616 197.4C722.236 196.86 721.986 196.2 721.866 195.42C721.766 194.66 721.766 193.8 721.866 192.84C722.086 190.52 722.326 188.24 722.586 186C722.866 183.74 723.146 181.39 723.426 178.95C723.566 177.97 723.806 177.17 724.146 176.55C724.486 175.91 724.906 175.4 725.406 175.02C725.906 174.64 726.466 174.38 727.086 174.24C727.726 174.08 728.406 174 729.126 174C730.186 174 731.046 174.14 731.706 174.42C732.366 174.7 732.876 175.09 733.236 175.59C733.616 176.07 733.866 176.65 733.986 177.33C734.106 177.99 734.146 178.71 734.106 179.49C734.086 179.57 734.076 179.69 734.076 179.85H737.556V174.03ZM729.966 195.45C730.186 194.97 730.346 194.31 730.446 193.47C730.726 191.43 730.986 189.32 731.226 187.14C731.486 184.96 731.726 182.57 731.946 179.97C732.006 179.13 731.986 178.45 731.886 177.93C731.786 177.41 731.616 177.01 731.376 176.73C731.136 176.43 730.816 176.23 730.416 176.13C730.036 176.03 729.566 175.98 729.006 175.98C728.566 175.98 728.156 176.03 727.776 176.13C727.396 176.21 727.046 176.4 726.726 176.7C726.426 176.98 726.156 177.39 725.916 177.93C725.696 178.47 725.526 179.19 725.406 180.09C725.226 181.39 725.066 182.6 724.926 183.72C724.806 184.82 724.686 185.89 724.566 186.93C724.466 187.97 724.366 189.01 724.266 190.05C724.186 191.07 724.106 192.13 724.026 193.23C723.966 194.01 723.976 194.65 724.056 195.15C724.156 195.67 724.316 196.07 724.536 196.35C724.776 196.63 725.086 196.82 725.466 196.92C725.866 197.04 726.356 197.1 726.936 197.1C727.376 197.1 727.786 197.06 728.166 196.98C728.546 196.92 728.886 196.77 729.186 196.53C729.486 196.29 729.746 195.93 729.966 195.45ZM743.196 174.03H745.296V199.11H743.196V174.03ZM737.556 190.05V181.83H733.956C733.836 183.39 733.696 184.84 733.536 186.18C733.376 187.5 733.216 188.79 733.056 190.05H737.556ZM759.167 199.77C758.387 199.77 757.537 199.76 756.617 199.74C755.697 199.72 754.887 199.55 754.187 199.23C753.507 198.93 752.927 198.53 752.447 198.03C751.987 197.53 751.637 196.96 751.397 196.32C751.157 195.7 751.037 195.06 751.037 194.4C751.037 193.72 751.147 193.06 751.367 192.42C751.587 191.78 751.917 191.22 752.357 190.74C752.817 190.24 753.397 189.84 754.097 189.54C754.817 189.22 755.677 189.05 756.677 189.03C757.597 189.01 758.437 189 759.197 189C759.977 189 760.727 189 761.447 189C762.187 189 762.937 189 763.697 189C764.477 189 765.327 189.01 766.247 189.03C767.227 189.03 768.077 189.19 768.797 189.51C769.517 189.81 770.097 190.21 770.537 190.71C770.997 191.21 771.337 191.78 771.557 192.42C771.777 193.06 771.887 193.72 771.887 194.4C771.887 195.06 771.767 195.7 771.527 196.32C771.287 196.96 770.927 197.53 770.447 198.03C769.987 198.53 769.407 198.93 768.707 199.23C768.007 199.55 767.197 199.72 766.277 199.74C765.357 199.76 764.507 199.77 763.727 199.77C762.967 199.79 762.207 199.8 761.447 199.8C760.707 199.8 759.947 199.79 759.167 199.77ZM755.087 197.43C755.567 197.63 756.157 197.74 756.857 197.76C758.277 197.78 759.807 197.79 761.447 197.79C763.107 197.79 764.647 197.78 766.067 197.76C766.767 197.74 767.347 197.63 767.807 197.43C768.287 197.23 768.667 196.97 768.947 196.65C769.247 196.35 769.457 196 769.577 195.6C769.717 195.22 769.787 194.83 769.787 194.43C769.787 194.01 769.727 193.6 769.607 193.2C769.507 192.8 769.317 192.44 769.037 192.12C768.757 191.8 768.367 191.54 767.867 191.34C767.387 191.14 766.777 191.04 766.037 191.04C764.617 191.02 763.087 191.01 761.447 191.01C759.827 191.01 758.307 191.02 756.887 191.04C756.127 191.04 755.507 191.14 755.027 191.34C754.547 191.54 754.167 191.8 753.887 192.12C753.607 192.44 753.407 192.8 753.287 193.2C753.187 193.6 753.137 194.01 753.137 194.43C753.137 194.83 753.197 195.22 753.317 195.6C753.457 196 753.667 196.35 753.947 196.65C754.247 196.97 754.627 197.23 755.087 197.43ZM764.087 174.36V176.34H759.317L763.877 186.93H761.567L757.007 176.34H756.467L751.487 186.93H749.177L754.037 176.34H749.297V174.36H764.087ZM769.367 182.07H763.247V180.09H769.367V174.03H771.467V187.5H769.367V182.07ZM59.6 215.33C59.86 215.99 59.97 216.71 59.93 217.49C59.83 219.07 59.71 220.53 59.57 221.87C59.45 223.19 59.31 224.47 59.15 225.71C59.01 226.93 58.85 228.13 58.67 229.31C58.51 230.47 58.34 231.68 58.16 232.94C58 233.78 57.7 234.47 57.26 235.01C56.84 235.55 56.33 235.97 55.73 236.27C55.13 236.57 54.48 236.78 53.78 236.9C53.1 237.02 52.43 237.08 51.77 237.08C50.61 237.08 49.6 236.93 48.74 236.63C47.9 236.33 47.21 235.9 46.67 235.34C46.13 234.8 45.75 234.15 45.53 233.39C45.31 232.63 45.26 231.78 45.38 230.84C45.62 228.52 45.87 226.24 46.13 224C46.39 221.74 46.66 219.39 46.94 216.95C47.08 215.97 47.38 215.17 47.84 214.55C48.3 213.91 48.84 213.4 49.46 213.02C50.1 212.64 50.79 212.38 51.53 212.24C52.27 212.08 53 212 53.72 212C54.78 212 55.7 212.14 56.48 212.42C57.28 212.7 57.94 213.09 58.46 213.59C58.98 214.07 59.36 214.65 59.6 215.33ZM55.64 233.45C55.96 232.97 56.17 232.31 56.27 231.47C56.55 229.43 56.81 227.32 57.05 225.14C57.31 222.96 57.55 220.57 57.77 217.97C57.83 217.13 57.75 216.45 57.53 215.93C57.31 215.41 57 215.01 56.6 214.73C56.2 214.43 55.74 214.23 55.22 214.13C54.7 214.03 54.16 213.98 53.6 213.98C53.16 213.98 52.69 214.03 52.19 214.13C51.69 214.21 51.22 214.4 50.78 214.7C50.34 214.98 49.95 215.39 49.61 215.93C49.27 216.47 49.04 217.19 48.92 218.09C48.74 219.39 48.58 220.6 48.44 221.72C48.32 222.82 48.2 223.89 48.08 224.93C47.98 225.97 47.88 227.01 47.78 228.05C47.7 229.07 47.62 230.13 47.54 231.23C47.48 232.01 47.56 232.65 47.78 233.15C48.02 233.67 48.34 234.07 48.74 234.35C49.14 234.63 49.6 234.82 50.12 234.92C50.66 235.04 51.2 235.1 51.74 235.1C52.18 235.1 52.64 235.06 53.12 234.98C53.6 234.92 54.06 234.77 54.5 234.53C54.94 234.29 55.32 233.93 55.64 233.45ZM65.21 212.03H67.31V237.11H65.21V212.03ZM75.1817 234.83H86.4017V236.81H73.0817V212.36H85.9817V214.34H75.1817V234.83ZM92.8217 222.47H97.6517V224.45H92.8217V237.11H90.7217V212.03H92.8217V222.47ZM104.563 239.57H100.633V235.91H104.563V239.57ZM66.32 250.03H68.42V275.11H66.32V262.45H61.94V275.11H59.84V250.03H61.94V260.47H66.32V250.03ZM53.78 252.34H45.2V250.36H56.42L52.22 274.81H49.94L53.78 252.34ZM74.4617 268.87V266.89H94.6217V275.77H92.5217V268.87H74.4617ZM92.5217 265.03V250.03H94.6217V265.03H92.5217ZM86.9717 250.21V258.19H75.4817V262.36H88.1117V264.34H73.3817V256.21H84.8717V252.19H73.3817V250.21H86.9717ZM102.553 272.83H113.923V274.81H100.453V250.36H113.503V252.34H102.553V261.19H112.963V263.17H102.553V272.83ZM119.263 262.84H114.343V260.86H119.263V250.03H121.363V275.11H119.263V262.84ZM126.265 250.36H139.885L135.805 274.81H133.555L137.275 252.34H126.265V250.36ZM151.705 262.45H147.415V275.11H145.315V250.03H147.415V260.47H151.705V262.45ZM170.003 273.13V258.28H172.103V273.13H185.033V275.11H160.823V273.13H170.003ZM180.563 252.13H162.413V250.15H183.023L180.983 266.92H178.763L180.563 252.13ZM196.658 275.77C195.878 275.77 195.028 275.76 194.108 275.74C193.188 275.72 192.378 275.55 191.678 275.23C190.998 274.93 190.418 274.53 189.938 274.03C189.478 273.53 189.128 272.96 188.888 272.32C188.648 271.7 188.528 271.06 188.528 270.4C188.528 269.72 188.638 269.06 188.858 268.42C189.078 267.78 189.408 267.22 189.848 266.74C190.308 266.24 190.888 265.84 191.588 265.54C192.308 265.22 193.168 265.05 194.168 265.03C195.088 265.01 195.928 265 196.688 265C197.468 265 198.218 265 198.938 265C199.678 265 200.428 265 201.188 265C201.968 265 202.818 265.01 203.738 265.03C204.718 265.03 205.568 265.19 206.288 265.51C207.008 265.81 207.588 266.21 208.028 266.71C208.488 267.21 208.828 267.78 209.048 268.42C209.268 269.06 209.378 269.72 209.378 270.4C209.378 271.06 209.258 271.7 209.018 272.32C208.778 272.96 208.418 273.53 207.938 274.03C207.478 274.53 206.898 274.93 206.198 275.23C205.498 275.55 204.688 275.72 203.768 275.74C202.848 275.76 201.998 275.77 201.218 275.77C200.458 275.79 199.698 275.8 198.938 275.8C198.198 275.8 197.438 275.79 196.658 275.77ZM200.498 252.88C200.738 253.48 200.838 254.11 200.798 254.77C200.758 255.65 200.688 256.48 200.588 257.26C200.488 258.02 200.368 258.67 200.228 259.21C200.028 259.99 199.708 260.63 199.268 261.13C198.828 261.61 198.298 262 197.678 262.3C197.078 262.58 196.408 262.78 195.668 262.9C194.928 263 194.168 263.05 193.388 263.05C191.208 263.05 189.588 262.59 188.528 261.67C187.468 260.73 187.018 259.42 187.178 257.74C187.218 257.24 187.278 256.65 187.358 255.97C187.458 255.27 187.598 254.6 187.778 253.96C188.018 253.12 188.368 252.44 188.828 251.92C189.288 251.38 189.828 250.96 190.448 250.66C191.068 250.34 191.738 250.12 192.458 250C193.178 249.88 193.898 249.82 194.618 249.82C195.698 249.82 196.628 249.96 197.408 250.24C198.208 250.5 198.858 250.86 199.358 251.32C199.878 251.76 200.258 252.28 200.498 252.88ZM192.578 273.43C193.058 273.63 193.648 273.74 194.348 273.76C195.768 273.78 197.298 273.79 198.938 273.79C200.598 273.79 202.138 273.78 203.558 273.76C204.258 273.74 204.838 273.63 205.298 273.43C205.778 273.23 206.158 272.97 206.438 272.65C206.738 272.35 206.948 272 207.068 271.6C207.208 271.22 207.278 270.83 207.278 270.43C207.278 270.01 207.218 269.6 207.098 269.2C206.998 268.8 206.808 268.44 206.528 268.12C206.248 267.8 205.858 267.54 205.358 267.34C204.878 267.14 204.268 267.04 203.528 267.04C202.108 267.02 200.578 267.01 198.938 267.01C197.318 267.01 195.798 267.02 194.378 267.04C193.618 267.04 192.998 267.14 192.518 267.34C192.038 267.54 191.658 267.8 191.378 268.12C191.098 268.44 190.898 268.8 190.778 269.2C190.678 269.6 190.628 270.01 190.628 270.43C190.628 270.83 190.688 271.22 190.808 271.6C190.948 272 191.158 272.35 191.438 272.65C191.738 272.97 192.118 273.23 192.578 273.43ZM197.198 259.99C197.538 259.69 197.798 259.29 197.978 258.79C198.038 258.61 198.098 258.38 198.158 258.1C198.238 257.8 198.308 257.48 198.368 257.14C198.428 256.78 198.478 256.43 198.518 256.09C198.558 255.73 198.578 255.4 198.578 255.1C198.598 254.4 198.498 253.84 198.278 253.42C198.058 252.98 197.758 252.64 197.378 252.4C197.018 252.16 196.588 252 196.088 251.92C195.588 251.84 195.058 251.8 194.498 251.8C194.078 251.8 193.628 251.83 193.148 251.89C192.688 251.95 192.248 252.07 191.828 252.25C191.408 252.43 191.028 252.69 190.688 253.03C190.348 253.37 190.088 253.83 189.908 254.41C189.848 254.59 189.788 254.83 189.728 255.13C189.668 255.43 189.608 255.74 189.548 256.06C189.508 256.38 189.468 256.7 189.428 257.02C189.388 257.34 189.368 257.6 189.368 257.8C189.348 258.5 189.448 259.06 189.668 259.48C189.888 259.9 190.188 260.23 190.568 260.47C190.968 260.71 191.418 260.87 191.918 260.95C192.438 261.03 192.968 261.07 193.508 261.07C193.888 261.07 194.298 261.05 194.738 261.01C195.198 260.95 195.638 260.84 196.058 260.68C196.478 260.52 196.858 260.29 197.198 259.99ZM208.088 252.85H212.378V254.83H208.088V258.52H212.378V260.5H208.088V263.5H205.988V250.03H208.088V252.85ZM228.35 253.33C228.61 253.99 228.72 254.71 228.68 255.49C228.58 257.07 228.46 258.53 228.32 259.87C228.2 261.19 228.06 262.47 227.9 263.71C227.76 264.93 227.6 266.13 227.42 267.31C227.26 268.47 227.09 269.68 226.91 270.94C226.75 271.78 226.45 272.47 226.01 273.01C225.59 273.55 225.08 273.97 224.48 274.27C223.88 274.57 223.23 274.78 222.53 274.9C221.85 275.02 221.18 275.08 220.52 275.08C219.36 275.08 218.35 274.93 217.49 274.63C216.65 274.33 215.96 273.9 215.42 273.34C214.88 272.8 214.5 272.15 214.28 271.39C214.06 270.63 214.01 269.78 214.13 268.84C214.37 266.52 214.62 264.24 214.88 262C215.14 259.74 215.41 257.39 215.69 254.95C215.83 253.97 216.13 253.17 216.59 252.55C217.05 251.91 217.59 251.4 218.21 251.02C218.85 250.64 219.54 250.38 220.28 250.24C221.02 250.08 221.75 250 222.47 250C223.53 250 224.45 250.14 225.23 250.42C226.03 250.7 226.69 251.09 227.21 251.59C227.73 252.07 228.11 252.65 228.35 253.33ZM224.39 271.45C224.71 270.97 224.92 270.31 225.02 269.47C225.3 267.43 225.56 265.32 225.8 263.14C226.06 260.96 226.3 258.57 226.52 255.97C226.58 255.13 226.5 254.45 226.28 253.93C226.06 253.41 225.75 253.01 225.35 252.73C224.95 252.43 224.49 252.23 223.97 252.13C223.45 252.03 222.91 251.98 222.35 251.98C221.91 251.98 221.44 252.03 220.94 252.13C220.44 252.21 219.97 252.4 219.53 252.7C219.09 252.98 218.7 253.39 218.36 253.93C218.02 254.47 217.79 255.19 217.67 256.09C217.49 257.39 217.33 258.6 217.19 259.72C217.07 260.82 216.95 261.89 216.83 262.93C216.73 263.97 216.63 265.01 216.53 266.05C216.45 267.07 216.37 268.13 216.29 269.23C216.23 270.01 216.31 270.65 216.53 271.15C216.77 271.67 217.09 272.07 217.49 272.35C217.89 272.63 218.35 272.82 218.87 272.92C219.41 273.04 219.95 273.1 220.49 273.1C220.93 273.1 221.39 273.06 221.87 272.98C222.35 272.92 222.81 272.77 223.25 272.53C223.69 272.29 224.07 271.93 224.39 271.45ZM233.96 250.03H236.06V275.11H233.96V250.03ZM261.272 250.03H263.372V268.51H261.272V250.03ZM264.002 275.77H243.242V267.01H245.342V273.79H264.002V275.77ZM254.522 253.12C254.742 253.76 254.832 254.45 254.792 255.19C254.752 256.17 254.652 257.12 254.492 258.04C254.352 258.94 254.202 259.74 254.042 260.44C253.842 261.3 253.522 262.01 253.082 262.57C252.662 263.11 252.152 263.54 251.552 263.86C250.972 264.18 250.322 264.4 249.602 264.52C248.882 264.64 248.132 264.7 247.352 264.7C245.172 264.7 243.552 264.19 242.492 263.17C241.432 262.13 240.982 260.67 241.142 258.79C241.162 258.51 241.192 258.19 241.232 257.83C241.272 257.45 241.312 257.06 241.352 256.66C241.412 256.26 241.472 255.86 241.532 255.46C241.612 255.04 241.702 254.65 241.802 254.29C242.042 253.37 242.392 252.62 242.852 252.04C243.312 251.46 243.852 251.01 244.472 250.69C245.092 250.35 245.752 250.12 246.452 250C247.172 249.88 247.892 249.82 248.612 249.82C249.752 249.82 250.722 249.96 251.522 250.24C252.322 250.52 252.962 250.91 253.442 251.41C253.942 251.89 254.302 252.46 254.522 253.12ZM251.072 261.55C251.412 261.21 251.672 260.75 251.852 260.17C251.932 259.89 252.012 259.56 252.092 259.18C252.172 258.8 252.242 258.4 252.302 257.98C252.382 257.56 252.442 257.14 252.482 256.72C252.522 256.3 252.552 255.92 252.572 255.58C252.592 254.74 252.492 254.08 252.272 253.6C252.072 253.1 251.782 252.72 251.402 252.46C251.022 252.18 250.582 252 250.082 251.92C249.582 251.84 249.052 251.8 248.492 251.8C248.072 251.8 247.632 251.83 247.172 251.89C246.712 251.95 246.262 252.09 245.822 252.31C245.402 252.51 245.022 252.81 244.682 253.21C244.342 253.59 244.092 254.12 243.932 254.8C243.872 255.08 243.802 255.41 243.722 255.79C243.662 256.17 243.602 256.57 243.542 256.99C243.482 257.39 243.432 257.78 243.392 258.16C243.352 258.54 243.332 258.88 243.332 259.18C243.312 259.96 243.412 260.58 243.632 261.04C243.852 261.5 244.152 261.86 244.532 262.12C244.932 262.36 245.382 262.52 245.882 262.6C246.402 262.68 246.932 262.72 247.472 262.72C247.852 262.72 248.262 262.7 248.702 262.66C249.142 262.6 249.562 262.49 249.962 262.33C250.382 262.15 250.752 261.89 251.072 261.55ZM290.459 253.33C290.719 253.99 290.829 254.71 290.789 255.49C290.689 257.07 290.569 258.53 290.429 259.87C290.309 261.19 290.169 262.47 290.009 263.71C289.869 264.93 289.709 266.13 289.529 267.31C289.369 268.47 289.199 269.68 289.019 270.94C288.859 271.78 288.559 272.47 288.119 273.01C287.699 273.55 287.189 273.97 286.589 274.27C285.989 274.57 285.339 274.78 284.639 274.9C283.959 275.02 283.289 275.08 282.629 275.08C281.469 275.08 280.459 274.93 279.599 274.63C278.759 274.33 278.069 273.9 277.529 273.34C276.989 272.8 276.609 272.15 276.389 271.39C276.169 270.63 276.119 269.78 276.239 268.84C276.479 266.52 276.729 264.24 276.989 262C277.249 259.74 277.519 257.39 277.799 254.95C277.939 253.97 278.239 253.17 278.699 252.55C279.159 251.91 279.699 251.4 280.319 251.02C280.959 250.64 281.649 250.38 282.389 250.24C283.129 250.08 283.859 250 284.579 250C285.639 250 286.559 250.14 287.339 250.42C288.139 250.7 288.799 251.09 289.319 251.59C289.839 252.07 290.219 252.65 290.459 253.33ZM286.499 271.45C286.819 270.97 287.029 270.31 287.129 269.47C287.409 267.43 287.669 265.32 287.909 263.14C288.169 260.96 288.409 258.57 288.629 255.97C288.689 255.13 288.609 254.45 288.389 253.93C288.169 253.41 287.859 253.01 287.459 252.73C287.059 252.43 286.599 252.23 286.079 252.13C285.559 252.03 285.019 251.98 284.459 251.98C284.019 251.98 283.549 252.03 283.049 252.13C282.549 252.21 282.079 252.4 281.639 252.7C281.199 252.98 280.809 253.39 280.469 253.93C280.129 254.47 279.899 255.19 279.779 256.09C279.599 257.39 279.439 258.6 279.299 259.72C279.179 260.82 279.059 261.89 278.939 262.93C278.839 263.97 278.739 265.01 278.639 266.05C278.559 267.07 278.479 268.13 278.399 269.23C278.339 270.01 278.419 270.65 278.639 271.15C278.879 271.67 279.199 272.07 279.599 272.35C279.999 272.63 280.459 272.82 280.979 272.92C281.519 273.04 282.059 273.1 282.599 273.1C283.039 273.1 283.499 273.06 283.979 272.98C284.459 272.92 284.919 272.77 285.359 272.53C285.799 272.29 286.179 271.93 286.499 271.45ZM296.069 250.03H298.169V275.11H296.069V250.03ZM304.631 259.48C304.291 258.66 304.121 257.65 304.121 256.45C304.121 255.25 304.291 254.25 304.631 253.45C304.991 252.65 305.471 252 306.071 251.5C306.691 251 307.421 250.63 308.261 250.39C309.101 250.15 310.011 250.01 310.991 249.97C311.851 249.93 312.591 249.9 313.211 249.88C313.851 249.86 314.441 249.85 314.981 249.85C315.541 249.85 316.081 249.86 316.601 249.88C317.121 249.9 317.701 249.93 318.341 249.97C319.301 250.03 320.201 250.18 321.041 250.42C321.881 250.66 322.611 251.03 323.231 251.53C323.851 252.01 324.341 252.65 324.701 253.45C325.061 254.25 325.241 255.25 325.241 256.45C325.241 257.65 325.061 258.66 324.701 259.48C324.341 260.28 323.851 260.93 323.231 261.43C322.631 261.93 321.911 262.3 321.071 262.54C320.231 262.76 319.331 262.9 318.371 262.96C317.571 263 316.891 263.04 316.331 263.08C315.791 263.1 315.261 263.11 314.741 263.11C314.241 263.11 313.701 263.1 313.121 263.08C312.561 263.04 311.851 263 310.991 262.96C309.991 262.9 309.071 262.76 308.231 262.54C307.391 262.3 306.661 261.93 306.041 261.43C305.441 260.93 304.971 260.28 304.631 259.48ZM306.581 254.44C306.341 254.98 306.221 255.65 306.221 256.45C306.221 257.25 306.321 257.93 306.521 258.49C306.741 259.03 307.051 259.48 307.451 259.84C307.871 260.18 308.371 260.45 308.951 260.65C309.531 260.83 310.181 260.95 310.901 261.01C311.481 261.07 312.091 261.11 312.731 261.13C313.391 261.15 314.051 261.16 314.711 261.16C315.371 261.16 316.021 261.15 316.661 261.13C317.301 261.09 317.911 261.05 318.491 261.01C319.131 260.95 319.731 260.83 320.291 260.65C320.851 260.47 321.341 260.2 321.761 259.84C322.181 259.48 322.511 259.03 322.751 258.49C322.991 257.93 323.111 257.25 323.111 256.45C323.111 255.65 322.991 254.98 322.751 254.44C322.531 253.88 322.221 253.42 321.821 253.06C321.421 252.7 320.931 252.43 320.351 252.25C319.771 252.07 319.141 251.96 318.461 251.92C317.921 251.9 317.331 251.88 316.691 251.86C316.071 251.82 315.421 251.8 314.741 251.8C314.081 251.8 313.421 251.81 312.761 251.83C312.101 251.85 311.481 251.88 310.901 251.92C310.241 251.98 309.621 252.1 309.041 252.28C308.481 252.46 307.991 252.73 307.571 253.09C307.151 253.43 306.821 253.88 306.581 254.44ZM302.591 268.03V266.05H326.801V268.03H321.011V275.65H318.911V268.03H310.451V275.65H308.351V268.03H302.591ZM328.167 264.94V262.96H352.407V264.94H328.167ZM350.457 275.74H330.537V267.4H332.637V273.76H350.457V275.74ZM332.637 257.44H350.157V259.42H330.537V250.06H332.637V257.44ZM381.598 252.13H363.448V250.15H384.058L381.988 268.12H379.768L381.598 252.13ZM361.858 275.11V273.13H386.068V275.11H361.858ZM397.693 275.77C396.913 275.77 396.063 275.76 395.143 275.74C394.223 275.72 393.413 275.55 392.713 275.23C392.033 274.93 391.453 274.53 390.973 274.03C390.513 273.53 390.163 272.96 389.923 272.32C389.683 271.7 389.563 271.06 389.563 270.4C389.563 269.72 389.673 269.06 389.893 268.42C390.113 267.78 390.443 267.22 390.883 266.74C391.343 266.24 391.923 265.84 392.623 265.54C393.343 265.22 394.203 265.05 395.203 265.03C396.123 265.01 396.963 265 397.723 265C398.503 265 399.253 265 399.973 265C400.713 265 401.463 265 402.223 265C403.003 265 403.853 265.01 404.773 265.03C405.753 265.03 406.603 265.19 407.323 265.51C408.043 265.81 408.623 266.21 409.063 266.71C409.523 267.21 409.863 267.78 410.083 268.42C410.303 269.06 410.413 269.72 410.413 270.4C410.413 271.06 410.293 271.7 410.053 272.32C409.813 272.96 409.453 273.53 408.973 274.03C408.513 274.53 407.933 274.93 407.233 275.23C406.533 275.55 405.723 275.72 404.803 275.74C403.883 275.76 403.033 275.77 402.253 275.77C401.493 275.79 400.733 275.8 399.973 275.8C399.233 275.8 398.473 275.79 397.693 275.77ZM393.613 273.43C394.093 273.63 394.683 273.74 395.383 273.76C396.803 273.78 398.333 273.79 399.973 273.79C401.633 273.79 403.173 273.78 404.593 273.76C405.293 273.74 405.873 273.63 406.333 273.43C406.813 273.23 407.193 272.97 407.473 272.65C407.773 272.35 407.983 272 408.103 271.6C408.243 271.22 408.313 270.83 408.313 270.43C408.313 270.01 408.253 269.6 408.133 269.2C408.033 268.8 407.843 268.44 407.563 268.12C407.283 267.8 406.893 267.54 406.393 267.34C405.913 267.14 405.303 267.04 404.563 267.04C403.143 267.02 401.613 267.01 399.973 267.01C398.353 267.01 396.833 267.02 395.413 267.04C394.653 267.04 394.033 267.14 393.553 267.34C393.073 267.54 392.693 267.8 392.413 268.12C392.133 268.44 391.933 268.8 391.813 269.2C391.713 269.6 391.663 270.01 391.663 270.43C391.663 270.83 391.723 271.22 391.843 271.6C391.983 272 392.193 272.35 392.473 272.65C392.773 272.97 393.153 273.23 393.613 273.43ZM390.883 260.23H402.703V262.21H388.783V250.21H390.883V260.23ZM409.123 252.43H413.413V254.41H409.123V258.25H413.413V260.23H409.123V263.59H407.023V250.03H409.123V252.43ZM422.591 265.75V263.77H440.141V265.75H431.861V275.11H429.761V265.75H422.591ZM443.141 250.03H445.241V275.11H443.141V250.03ZM438.041 250.36L436.811 261.61H434.621L435.611 252.34H423.491V250.36H438.041ZM470.093 250.03H472.193V275.11H470.093V268.18H463.223L462.833 270.94C462.673 271.78 462.383 272.47 461.963 273.01C461.543 273.55 461.043 273.97 460.463 274.27C459.883 274.57 459.253 274.78 458.573 274.9C457.893 275.02 457.223 275.08 456.563 275.08C455.403 275.08 454.403 274.93 453.563 274.63C452.723 274.33 452.033 273.9 451.493 273.34C450.973 272.8 450.603 272.15 450.383 271.39C450.183 270.63 450.143 269.78 450.263 268.84C450.503 266.52 450.753 264.24 451.013 262C451.273 259.74 451.543 257.39 451.823 254.95C451.963 253.97 452.253 253.17 452.693 252.55C453.153 251.91 453.693 251.4 454.313 251.02C454.933 250.64 455.603 250.38 456.323 250.24C457.063 250.08 457.793 250 458.513 250C459.573 250 460.493 250.14 461.273 250.42C462.053 250.7 462.693 251.09 463.193 251.59C463.713 252.07 464.083 252.65 464.303 253.33C464.543 253.99 464.643 254.71 464.603 255.49C464.583 255.57 464.573 255.65 464.573 255.73C464.573 255.79 464.573 255.85 464.573 255.91H470.093V250.03ZM460.313 271.45C460.633 270.97 460.843 270.31 460.943 269.47C461.223 267.43 461.483 265.32 461.723 263.14C461.983 260.96 462.223 258.57 462.443 255.97C462.503 255.13 462.423 254.45 462.203 253.93C462.003 253.41 461.713 253.01 461.333 252.73C460.953 252.43 460.503 252.23 459.983 252.13C459.483 252.03 458.953 251.98 458.393 251.98C457.953 251.98 457.483 252.03 456.983 252.13C456.503 252.21 456.043 252.4 455.603 252.7C455.183 252.98 454.803 253.39 454.463 253.93C454.143 254.47 453.923 255.19 453.803 256.09C453.623 257.39 453.463 258.6 453.323 259.72C453.203 260.82 453.083 261.89 452.963 262.93C452.863 263.97 452.763 265.01 452.663 266.05C452.583 267.07 452.503 268.13 452.423 269.23C452.363 270.01 452.443 270.65 452.663 271.15C452.883 271.67 453.183 272.07 453.563 272.35C453.963 272.63 454.423 272.82 454.943 272.92C455.463 273.04 455.993 273.1 456.533 273.1C456.973 273.1 457.423 273.06 457.883 272.98C458.363 272.92 458.813 272.77 459.233 272.53C459.653 272.29 460.013 271.93 460.313 271.45ZM470.093 266.2V257.89H464.423C464.303 259.45 464.163 260.9 464.003 262.24C463.863 263.58 463.703 264.9 463.523 266.2H470.093ZM491.945 253.15C492.205 253.77 492.325 254.45 492.305 255.19C492.305 255.45 492.285 255.76 492.245 256.12C492.205 256.46 492.155 256.82 492.095 257.2C492.055 257.56 491.995 257.92 491.915 258.28C491.835 258.64 491.755 258.96 491.675 259.24C491.395 260.08 491.015 260.76 490.535 261.28C490.075 261.8 489.535 262.2 488.915 262.48C488.315 262.76 487.655 262.95 486.935 263.05C486.215 263.13 485.465 263.17 484.685 263.17C482.525 263.17 480.855 262.72 479.675 261.82C478.515 260.9 478.015 259.58 478.175 257.86C478.215 257.3 478.275 256.71 478.355 256.09C478.435 255.45 478.555 254.85 478.715 254.29C478.955 253.37 479.325 252.64 479.825 252.1C480.345 251.54 480.925 251.12 481.565 250.84C482.205 250.54 482.895 250.35 483.635 250.27C484.375 250.17 485.105 250.12 485.825 250.12C486.965 250.12 487.945 250.25 488.765 250.51C489.585 250.75 490.255 251.1 490.775 251.56C491.315 252 491.705 252.53 491.945 253.15ZM488.645 260.2C489.025 259.9 489.305 259.49 489.485 258.97C489.685 258.41 489.825 257.88 489.905 257.38C489.985 256.88 490.045 256.28 490.085 255.58C490.105 254.74 489.995 254.09 489.755 253.63C489.515 253.17 489.185 252.83 488.765 252.61C488.345 252.37 487.865 252.23 487.325 252.19C486.805 252.13 486.265 252.1 485.705 252.1C485.285 252.1 484.825 252.12 484.325 252.16C483.845 252.18 483.365 252.28 482.885 252.46C482.425 252.62 482.005 252.88 481.625 253.24C481.265 253.6 481.005 254.12 480.845 254.8C480.705 255.38 480.595 255.91 480.515 256.39C480.435 256.85 480.385 257.37 480.365 257.95C480.345 258.71 480.455 259.31 480.695 259.75C480.955 260.17 481.295 260.49 481.715 260.71C482.155 260.91 482.645 261.04 483.185 261.1C483.725 261.16 484.265 261.19 484.805 261.19C485.185 261.19 485.605 261.17 486.065 261.13C486.545 261.09 487.005 261 487.445 260.86C487.885 260.7 488.285 260.48 488.645 260.2ZM489.515 272.11V270.13H497.165V250.03H499.265V275.11H497.165V272.11H489.515ZM476.615 267.04V265.06H494.165V267.04H485.885V275.11H483.785V267.04H476.615ZM512.926 252.34H510.946L506.206 274.81H504.106L509.146 250.36H514.726L519.766 274.81H517.666L512.926 252.34ZM524.116 262.21H517.906V260.23H524.116V250.03H526.216V275.11H524.116V262.21ZM553.604 253.33C553.864 253.99 553.974 254.71 553.934 255.49C553.834 257.07 553.714 258.53 553.574 259.87C553.454 261.19 553.314 262.47 553.154 263.71C553.014 264.93 552.854 266.13 552.674 267.31C552.514 268.47 552.344 269.68 552.164 270.94C552.004 271.78 551.704 272.47 551.264 273.01C550.844 273.55 550.334 273.97 549.734 274.27C549.134 274.57 548.484 274.78 547.784 274.9C547.104 275.02 546.434 275.08 545.774 275.08C544.614 275.08 543.604 274.93 542.744 274.63C541.904 274.33 541.214 273.9 540.674 273.34C540.134 272.8 539.754 272.15 539.534 271.39C539.314 270.63 539.264 269.78 539.384 268.84C539.624 266.52 539.874 264.24 540.134 262C540.394 259.74 540.664 257.39 540.944 254.95C541.084 253.97 541.384 253.17 541.844 252.55C542.304 251.91 542.844 251.4 543.464 251.02C544.104 250.64 544.794 250.38 545.534 250.24C546.274 250.08 547.004 250 547.724 250C548.784 250 549.704 250.14 550.484 250.42C551.284 250.7 551.944 251.09 552.464 251.59C552.984 252.07 553.364 252.65 553.604 253.33ZM549.644 271.45C549.964 270.97 550.174 270.31 550.274 269.47C550.554 267.43 550.814 265.32 551.054 263.14C551.314 260.96 551.554 258.57 551.774 255.97C551.834 255.13 551.754 254.45 551.534 253.93C551.314 253.41 551.004 253.01 550.604 252.73C550.204 252.43 549.744 252.23 549.224 252.13C548.704 252.03 548.164 251.98 547.604 251.98C547.164 251.98 546.694 252.03 546.194 252.13C545.694 252.21 545.224 252.4 544.784 252.7C544.344 252.98 543.954 253.39 543.614 253.93C543.274 254.47 543.044 255.19 542.924 256.09C542.744 257.39 542.584 258.6 542.444 259.72C542.324 260.82 542.204 261.89 542.084 262.93C541.984 263.97 541.884 265.01 541.784 266.05C541.704 267.07 541.624 268.13 541.544 269.23C541.484 270.01 541.564 270.65 541.784 271.15C542.024 271.67 542.344 272.07 542.744 272.35C543.144 272.63 543.604 272.82 544.124 272.92C544.664 273.04 545.204 273.1 545.744 273.1C546.184 273.1 546.644 273.06 547.124 272.98C547.604 272.92 548.064 272.77 548.504 272.53C548.944 272.29 549.324 271.93 549.644 271.45ZM559.214 250.03H561.314V275.11H559.214V250.03ZM569.186 272.83H580.406V274.81H567.086V250.36H579.986V252.34H569.186V272.83ZM586.826 260.47H591.656V262.45H586.826V275.11H584.726V250.03H586.826V260.47ZM598.567 277.57H594.637V273.91H598.567V277.57Z" fill="black"/>
</g>
<defs>
<clipPath id="clip0_97_105">
<rect width="823" height="421" rx="50" fill="white"/>
</clipPath>
</defs>
</svg>
