<svg width="176" height="37" viewBox="0 0 176 37" fill="none" xmlns="http://www.w3.org/2000/svg">
<g clip-path="url(#clip0_107_144)">
<rect width="176" height="37" rx="10" fill="#FFE0C2" fill-opacity="0.1"/>
<path d="M26.0362 15.95V14.69H37.5262V17.735H36.0262V17.48H26.1862V16.22H36.0262V15.95H26.0362ZM25.7362 19.28V17.96H37.9762V19.28H25.7362ZM25.8412 23.195V21.05C29.8312 21.05 35.6062 20.855 36.3712 20.72V20.57L26.0212 20.705V19.625H37.8712V21.515C37.3462 21.65 28.9612 22.07 27.3412 22.025V22.16H38.1112V23.195H25.8412ZM51.5703 20.195V23.18H50.0553V21.635H40.0353V20.195H50.0553V14.675H51.5553V20.195H51.5703ZM39.6153 19.595V16.55H47.4003V16.19H39.7353V14.84H48.9003V17.885H41.1153V18.23H49.1253V19.595H39.6153ZM52.7702 21.71C55.1552 20.765 56.3102 19.055 56.7452 17.57V14.84H58.2452L58.2302 17.57C58.6652 19.055 59.8202 20.765 62.2052 21.71L61.6952 23C59.5952 22.175 58.2452 20.765 57.4952 19.37C56.7302 20.765 55.3802 22.175 53.2802 23L52.7702 21.71ZM63.5702 23.18V14.675H65.0702V23.18H63.5702ZM70.3561 15.35C71.3761 14.75 72.4561 14.405 73.5661 14.42C75.4711 14.45 76.7011 14.72 77.2261 15.74C77.9011 17.045 77.0611 18.35 75.4561 18.545C77.0611 18.77 77.9761 19.25 77.9161 20.915C77.8561 22.745 75.9061 23.15 73.7161 23.15C72.2911 23.15 71.1361 22.67 69.8761 21.92L70.6411 20.81C71.7061 21.455 72.4111 21.8 73.7161 21.815C75.7861 21.845 76.4011 21.485 76.4011 20.81C76.3861 19.25 72.8461 19.34 71.7661 19.34V18.26C72.8461 18.26 76.2211 17.6 75.9211 16.505C75.7561 15.92 75.3061 15.755 73.6561 15.755C72.7261 15.755 71.8861 15.98 71.1511 16.415L70.3561 15.35ZM89.5137 18.935V14.675H91.0137V18.935H89.5137ZM78.8187 16.835C78.8187 15.575 80.1987 14.63 83.7537 14.63C87.3087 14.63 88.7037 15.575 88.7037 16.835C88.7037 18.11 87.3087 19.04 83.7537 19.04C80.1987 19.04 78.8187 18.11 78.8187 16.835ZM79.2837 23.18V20.915C83.0787 20.915 88.7937 20.72 89.5137 20.57V20.45L79.4487 20.585V19.46H91.0137V21.455C90.5187 21.59 82.3287 22.025 80.7837 21.98V22.1H91.1637V23.18H79.2837ZM80.3187 16.835C80.3187 17.255 80.9487 17.6 83.7537 17.6C86.5737 17.6 87.2037 17.24 87.2037 16.835C87.2037 16.43 86.5587 16.07 83.7537 16.07C80.9487 16.07 80.3187 16.43 80.3187 16.835ZM102.76 23.18V14.675H104.26V14.975H105.835V16.4H104.26V23.18H102.76ZM92.3649 21.71C94.6599 20.765 95.7699 19.055 96.1749 17.57V16.835H92.7849V15.395H96.1749V14.54H97.6749V15.395H101.08V16.835H97.6749V17.555C98.0649 18.905 99.1899 20.465 101.485 21.41L100.945 22.7C98.9799 21.905 97.7049 20.615 96.9549 19.355C96.2349 20.75 94.9299 22.175 92.9049 23L92.3649 21.71ZM106.986 16.28V14.84H118.206V18.425H108.366V19.13H118.401V20.57H113.481V21.44H118.821V22.88H106.581V21.44H111.981V20.57H106.866V16.985H116.706V16.28H106.986ZM128.368 18.515C130.963 18.515 131.608 18.02 131.608 17.285C131.608 16.58 130.963 16.07 128.368 16.07C125.758 16.07 125.128 16.58 125.128 17.285C125.128 18.02 125.758 18.515 128.368 18.515ZM123.628 17.285C123.628 15.77 125.098 14.63 128.368 14.63C129.448 14.63 130.318 14.75 131.023 14.975H134.323V14.675H135.823V21.02H134.323V18.68H132.583C131.908 19.46 130.528 19.955 128.368 19.955C125.098 19.955 123.628 18.83 123.628 17.285ZM124.603 23.18V20.27H126.103V21.74H136.078V23.18H124.603ZM132.928 16.415C133.048 16.67 133.108 16.955 133.108 17.255H134.323V16.415H132.928ZM148.317 18.83V18.38H147.162V18.695H145.662V16.28H137.877V14.84H147.162V14.975H148.317V14.675H149.817V18.83H148.317ZM138.087 23.18V20.765C141.882 20.765 147.597 20.555 148.317 20.405V20.24L138.252 20.39V19.16H149.817V21.275C149.322 21.44 141.132 21.905 139.587 21.845V22.01H149.967V23.18H138.087ZM147.162 16.955H148.317V16.415H147.162V16.955Z" fill="white"/>
</g>
<defs>
<clipPath id="clip0_107_144">
<rect width="176" height="37" rx="10" fill="white"/>
</clipPath>
</defs>
</svg>
