<svg width="176" height="37" viewBox="0 0 176 37" fill="none" xmlns="http://www.w3.org/2000/svg">
<g clip-path="url(#clip0_107_147)">
<rect width="176" height="37" rx="10" fill="#FFE0C2" fill-opacity="0.1"/>
<path d="M25.8458 15.95V14.69H37.3358V17.735H35.8358V17.48H25.9958V16.22H35.8358V15.95H25.8458ZM25.5458 19.28V17.96H37.7858V19.28H25.5458ZM25.6508 23.195V21.05C29.6408 21.05 35.4158 20.855 36.1808 20.72V20.57L25.8308 20.705V19.625H37.6808V21.515C37.1558 21.65 28.7708 22.07 27.1508 22.025V22.16H37.9208V23.195H25.6508ZM51.3799 20.195V23.18H49.8649V21.635H39.8449V20.195H49.8649V14.675H51.3649V20.195H51.3799ZM39.4249 19.595V16.55H47.2099V16.19H39.5449V14.84H48.7099V17.885H40.9249V18.23H48.9349V19.595H39.4249ZM52.5798 21.71C54.9648 20.765 56.1198 19.055 56.5548 17.57V14.84H58.0548L58.0398 17.57C58.4748 19.055 59.6298 20.765 62.0148 21.71L61.5048 23C59.4048 22.175 58.0548 20.765 57.3048 19.37C56.5398 20.765 55.1898 22.175 53.0898 23L52.5798 21.71ZM63.3798 23.18V14.675H64.8798V23.18H63.3798ZM75.0256 14.675H76.5406V19.625H78.1156V20.99H76.5406V23.03H75.0256V20.99H69.8356V19.625L75.0256 14.675ZM71.8156 19.625H75.0256V16.43L71.8156 19.625ZM89.7041 18.935V14.675H91.2041V18.935H89.7041ZM79.0091 16.835C79.0091 15.575 80.3891 14.63 83.9441 14.63C87.4991 14.63 88.8941 15.575 88.8941 16.835C88.8941 18.11 87.4991 19.04 83.9441 19.04C80.3891 19.04 79.0091 18.11 79.0091 16.835ZM79.4741 23.18V20.915C83.2691 20.915 88.9841 20.72 89.7041 20.57V20.45L79.6391 20.585V19.46H91.2041V21.455C90.7091 21.59 82.5191 22.025 80.9741 21.98V22.1H91.3541V23.18H79.4741ZM80.5091 16.835C80.5091 17.255 81.1391 17.6 83.9441 17.6C86.7641 17.6 87.3941 17.24 87.3941 16.835C87.3941 16.43 86.7491 16.07 83.9441 16.07C81.1391 16.07 80.5091 16.43 80.5091 16.835ZM102.95 23.18V14.675H104.45V14.975H106.025V16.4H104.45V23.18H102.95ZM92.5554 21.71C94.8504 20.765 95.9604 19.055 96.3654 17.57V16.835H92.9754V15.395H96.3654V14.54H97.8654V15.395H101.27V16.835H97.8654V17.555C98.2554 18.905 99.3804 20.465 101.675 21.41L101.135 22.7C99.1704 21.905 97.8954 20.615 97.1454 19.355C96.4254 20.75 95.1204 22.175 93.0954 23L92.5554 21.71ZM107.176 16.28V14.84H118.396V18.425H108.556V19.13H118.591V20.57H113.671V21.44H119.011V22.88H106.771V21.44H112.171V20.57H107.056V16.985H116.896V16.28H107.176ZM128.559 18.515C131.154 18.515 131.799 18.02 131.799 17.285C131.799 16.58 131.154 16.07 128.559 16.07C125.949 16.07 125.319 16.58 125.319 17.285C125.319 18.02 125.949 18.515 128.559 18.515ZM123.819 17.285C123.819 15.77 125.289 14.63 128.559 14.63C129.639 14.63 130.509 14.75 131.214 14.975H134.514V14.675H136.014V21.02H134.514V18.68H132.774C132.099 19.46 130.719 19.955 128.559 19.955C125.289 19.955 123.819 18.83 123.819 17.285ZM124.794 23.18V20.27H126.294V21.74H136.269V23.18H124.794ZM133.119 16.415C133.239 16.67 133.299 16.955 133.299 17.255H134.514V16.415H133.119ZM148.507 18.83V18.38H147.352V18.695H145.852V16.28H138.067V14.84H147.352V14.975H148.507V14.675H150.007V18.83H148.507ZM138.277 23.18V20.765C142.072 20.765 147.787 20.555 148.507 20.405V20.24L138.442 20.39V19.16H150.007V21.275C149.512 21.44 141.322 21.905 139.777 21.845V22.01H150.157V23.18H138.277ZM147.352 16.955H148.507V16.415H147.352V16.955Z" fill="white"/>
</g>
<defs>
<clipPath id="clip0_107_147">
<rect width="176" height="37" rx="10" fill="white"/>
</clipPath>
</defs>
</svg>
