<svg width="176" height="37" viewBox="0 0 176 37" fill="none" xmlns="http://www.w3.org/2000/svg">
<g clip-path="url(#clip0_107_139)">
<rect width="176" height="37" rx="10" fill="#FFE0C2" fill-opacity="0.1"/>
<path d="M26.0875 15.95V14.69H37.5775V17.735H36.0775V17.48H26.2375V16.22H36.0775V15.95H26.0875ZM25.7875 19.28V17.96H38.0275V19.28H25.7875ZM25.8925 23.195V21.05C29.8825 21.05 35.6575 20.855 36.4225 20.72V20.57L26.0725 20.705V19.625H37.9225V21.515C37.3975 21.65 29.0125 22.07 27.3925 22.025V22.16H38.1625V23.195H25.8925ZM51.6216 20.195V23.18H50.1066V21.635H40.0866V20.195H50.1066V14.675H51.6066V20.195H51.6216ZM39.6666 19.595V16.55H47.4516V16.19H39.7866V14.84H48.9516V17.885H41.1666V18.23H49.1766V19.595H39.6666ZM52.8215 21.71C55.2065 20.765 56.3615 19.055 56.7965 17.57V14.84H58.2965L58.2815 17.57C58.7165 19.055 59.8715 20.765 62.2565 21.71L61.7465 23C59.6465 22.175 58.2965 20.765 57.5465 19.37C56.7815 20.765 55.4315 22.175 53.3315 23L52.8215 21.71ZM63.6215 23.18V14.675H65.1215V23.18H63.6215ZM70.2273 23.03C70.4073 21.035 71.4873 19.4 73.6773 18.44C75.4173 17.675 76.3623 17.645 76.3623 16.865C76.3623 16.13 75.3273 15.755 74.1873 15.755C72.8673 15.755 72.1023 16.205 71.0373 17.015L70.2723 15.905C71.5323 14.99 72.7623 14.39 74.1873 14.42C75.3873 14.45 77.8623 14.57 77.8623 17.03C77.8623 18.74 75.8673 18.83 73.7523 19.865C72.8523 20.315 72.3573 21.02 72.0873 21.68H77.8323V23.03H70.2273ZM89.4624 18.935V14.675H90.9624V18.935H89.4624ZM78.7674 16.835C78.7674 15.575 80.1474 14.63 83.7024 14.63C87.2574 14.63 88.6524 15.575 88.6524 16.835C88.6524 18.11 87.2574 19.04 83.7024 19.04C80.1474 19.04 78.7674 18.11 78.7674 16.835ZM79.2324 23.18V20.915C83.0274 20.915 88.7424 20.72 89.4624 20.57V20.45L79.3974 20.585V19.46H90.9624V21.455C90.4674 21.59 82.2774 22.025 80.7324 21.98V22.1H91.1124V23.18H79.2324ZM80.2674 16.835C80.2674 17.255 80.8974 17.6 83.7024 17.6C86.5224 17.6 87.1524 17.24 87.1524 16.835C87.1524 16.43 86.5074 16.07 83.7024 16.07C80.8974 16.07 80.2674 16.43 80.2674 16.835ZM102.709 23.18V14.675H104.209V14.975H105.784V16.4H104.209V23.18H102.709ZM92.3137 21.71C94.6087 20.765 95.7187 19.055 96.1237 17.57V16.835H92.7337V15.395H96.1237V14.54H97.6237V15.395H101.029V16.835H97.6237V17.555C98.0137 18.905 99.1387 20.465 101.434 21.41L100.894 22.7C98.9287 21.905 97.6537 20.615 96.9037 19.355C96.1837 20.75 94.8787 22.175 92.8537 23L92.3137 21.71ZM106.935 16.28V14.84H118.155V18.425H108.315V19.13H118.35V20.57H113.43V21.44H118.77V22.88H106.53V21.44H111.93V20.57H106.815V16.985H116.655V16.28H106.935ZM128.317 18.515C130.912 18.515 131.557 18.02 131.557 17.285C131.557 16.58 130.912 16.07 128.317 16.07C125.707 16.07 125.077 16.58 125.077 17.285C125.077 18.02 125.707 18.515 128.317 18.515ZM123.577 17.285C123.577 15.77 125.047 14.63 128.317 14.63C129.397 14.63 130.267 14.75 130.972 14.975H134.272V14.675H135.772V21.02H134.272V18.68H132.532C131.857 19.46 130.477 19.955 128.317 19.955C125.047 19.955 123.577 18.83 123.577 17.285ZM124.552 23.18V20.27H126.052V21.74H136.027V23.18H124.552ZM132.877 16.415C132.997 16.67 133.057 16.955 133.057 17.255H134.272V16.415H132.877ZM148.266 18.83V18.38H147.111V18.695H145.611V16.28H137.826V14.84H147.111V14.975H148.266V14.675H149.766V18.83H148.266ZM138.036 23.18V20.765C141.831 20.765 147.546 20.555 148.266 20.405V20.24L138.201 20.39V19.16H149.766V21.275C149.271 21.44 141.081 21.905 139.536 21.845V22.01H149.916V23.18H138.036ZM147.111 16.955H148.266V16.415H147.111V16.955Z" fill="white"/>
</g>
<defs>
<clipPath id="clip0_107_139">
<rect width="176" height="37" rx="10" fill="white"/>
</clipPath>
</defs>
</svg>
