<svg width="368" height="176" viewBox="0 0 368 176" fill="none" xmlns="http://www.w3.org/2000/svg">
<path d="M119.124 158.866C118.8 160.021 118.113 161.043 117.062 161.932C116.108 162.95 114.892 163.707 113.415 164.204C112.508 164.578 111.351 164.885 109.946 165.125C108.505 165.492 107.185 165.668 105.985 165.653C103.985 165.627 102.493 165.22 101.509 164.434C100.524 163.648 100.176 162.742 100.463 161.714L103.75 149.965L25.9567 148.947L23.0469 159.348C22.7954 160.247 22.162 161.076 21.1465 161.836C20.2644 162.598 18.9695 163.161 17.2618 163.525C16.3541 163.9 15.149 164.141 13.6466 164.251C12.1441 164.36 10.8596 164.408 9.79302 164.394C7.79319 164.367 6.33702 163.833 5.42451 162.79C4.6094 161.877 4.41738 160.65 4.84846 159.109L14.5394 127.34L44.176 21.4078C44.8227 19.0966 45.3104 16.3966 45.6393 13.308C46.1374 10.0927 46.3892 7.51851 46.3948 5.58549L62.3373 16.0396L141.131 17.0711L149.885 9.45328C150.901 8.69334 151.809 8.3186 152.608 8.32908C153.542 8.34129 154.367 8.73872 155.085 9.52135L162.99 19.2903C163.538 20.1996 163.687 21.1037 163.435 22.0025C163.22 22.7729 162.538 23.5372 161.389 24.2954L155.819 27.7021L119.124 158.866ZM105.313 144.38L122.017 84.6726L44.2236 83.6542L27.5193 143.362L105.313 144.38ZM123.687 78.7018L139.26 23.0392L61.4668 22.0208L45.8941 77.6835L123.687 78.7018ZM332.007 125.697C330.807 125.681 329.456 125.728 327.953 125.837C326.451 125.946 325.366 125.997 324.7 125.988C324.264 126.111 322.989 127.319 320.876 129.611C318.932 131.776 316.875 134.584 314.706 138.035C309.574 132.942 305.052 127.341 301.141 121.233C297.23 115.125 293.827 108.637 290.931 101.769C287.83 95.1555 285.286 88.2275 283.298 80.9846C281.346 73.6132 279.83 66.1187 278.75 58.5011L260.267 124.564L271.466 124.711L282.16 115.185C283.042 114.424 283.949 114.049 284.883 114.061C285.949 114.075 286.775 114.473 287.359 115.254L295.556 125.413C296.299 126.583 296.243 127.742 295.386 128.89C294.53 130.039 293.435 130.605 292.102 130.587L258.704 130.15L247.496 170.212C247.317 170.854 246.955 171.429 246.411 171.937C245.868 172.446 245.009 172.885 243.834 173.257C242.624 173.756 241.068 174.058 239.165 174.162C237.36 174.396 235.658 174.503 234.058 174.482C232.192 174.457 230.766 174.052 229.782 173.266C228.761 172.608 228.395 171.766 228.682 170.739L240.706 129.914L227.707 129.744C225.041 129.709 221.569 129.922 217.292 130.381C213.185 130.714 209.677 131.055 206.77 131.403L205.772 121.338C208.926 122.024 212.83 122.655 217.486 123.231C222.142 123.808 226.07 124.117 229.27 124.159L242.269 124.329L259.512 62.6954C253.444 70.9927 246.95 78.8978 240.031 86.4108C233.148 93.7953 225.839 100.788 218.105 107.388C210.202 114.115 201.873 120.449 193.118 126.392C184.533 132.207 175.42 137.759 165.778 143.045L163.256 139.146C172.616 132.954 181.483 126.368 189.859 119.39C198.367 112.413 206.468 104.98 214.162 97.0908C221.552 89.3263 228.536 81.1054 235.112 72.4281C241.821 63.7525 248.038 54.6839 253.762 45.2222L216.565 44.7353C213.766 44.6986 210.227 44.9101 205.951 45.3696C201.843 45.7024 198.536 46.0458 196.028 46.3996L194.485 36.1339C197.602 36.948 201.489 37.6432 206.145 38.2197C210.801 38.7961 214.795 39.1061 218.128 39.1498L265.924 39.7755L268.834 29.3748C270.235 24.3671 271.454 19.2926 272.491 14.1512C273.661 9.01162 274.369 5.28358 274.616 2.96709L296.644 6.73503C298.803 7.1499 299.764 8.25791 299.528 10.059C299.425 11.8619 298.332 13.1363 296.25 13.8823L290.658 15.9355L283.922 40.0111L325.119 40.5504L338.351 29.125C339.403 28.2367 340.395 27.7986 341.328 27.8108C342.261 27.823 343.202 28.2864 344.151 29.2009L354.77 40.7452C355.914 41.92 355.954 43.2093 354.892 44.613C354 45.89 352.687 46.5172 350.954 46.4945L285.56 45.6385C287.029 53.7767 289.025 61.4708 291.546 68.7207C294.237 75.844 297.52 82.5239 301.395 88.7605C305.234 95.1256 309.884 100.986 315.343 106.341C320.839 111.568 327.315 116.163 334.77 120.127L332.007 125.697Z" fill="white"/>
</svg>
